<svg xmlns="http://www.w3.org/2000/svg" viewBox="0 0 750 500"><g id="freepik--Device--inject-38"><rect x="161.71" y="72.76" width="426.57" height="285.35" style="fill:#c7c7c7"></rect><rect x="164.81" y="76.24" width="420.37" height="278.39" style="fill:#263238"></rect><rect x="106.15" y="379.51" width="537.69" height="19.58" style="fill:#a6a6a6"></rect><polygon points="106.15 379.51 161.71 358.11 588.29 358.11 643.85 379.51 106.15 379.51" style="fill:#c7c7c7"></polygon><polygon points="166.67 371.92 202.53 358.11 547.47 358.11 583.33 371.92 166.67 371.92" style="fill:#263238"></polygon><rect x="188.57" y="97.39" width="372.86" height="236.08" style="fill:#fff"></rect><rect x="188.25" y="97.39" width="373.18" height="236.08" style="fill:#fff"></rect><rect x="188.25" y="97.39" width="373.18" height="9.08" style="fill:#455a64"></rect><path d="M195.47,101.93a2.25,2.25,0,1,1-2.25-2.25A2.25,2.25,0,0,1,195.47,101.93Z" style="fill:#c7c7c7"></path><path d="M204.67,101.93a2.25,2.25,0,1,1-2.25-2.25A2.25,2.25,0,0,1,204.67,101.93Z" style="fill:#fff"></path><path d="M213.87,101.93a2.25,2.25,0,1,1-2.25-2.25A2.25,2.25,0,0,1,213.87,101.93Z" style="fill:#6582E4"></path><rect x="475.22" y="242.02" width="63.2" height="63.2" style="fill:#455a64"></rect><path d="M479.06,316a.35.35,0,0,1,.35.35v.18a2.93,2.93,0,0,1,1.26.45.43.43,0,0,1,.25.39.46.46,0,0,1-.46.45.63.63,0,0,1-.25-.07,2.59,2.59,0,0,0-.83-.36v1.56c1.23.31,1.76.81,1.76,1.68s-.7,1.49-1.73,1.59v.49a.36.36,0,0,1-.71,0v-.51a3.48,3.48,0,0,1-1.67-.63.44.44,0,0,1-.22-.39.44.44,0,0,1,.45-.45.46.46,0,0,1,.27.09,2.9,2.9,0,0,0,1.2.54v-1.6c-1.19-.31-1.74-.76-1.74-1.68a1.64,1.64,0,0,1,1.71-1.56v-.17A.36.36,0,0,1,479.06,316Zm-.33,2.78V317.3c-.52.05-.78.32-.78.68S478.1,318.54,478.73,318.74Zm.65,1.13v1.49c.52-.06.8-.32.8-.71S480,320.07,479.38,319.87Z"></path><path d="M485.67,321.73a.44.44,0,0,1-.45.45h-2.9A.43.43,0,0,1,482,322a.44.44,0,0,1,0-.63l2.41-2.19a1,1,0,0,0,.35-.78,1.07,1.07,0,0,0-.27-.71,1.07,1.07,0,0,0-1.49-.07l-.26.23a.44.44,0,0,1-.63,0,.44.44,0,0,1,0-.63l.25-.23a2,2,0,0,1,1.32-.51,2,2,0,0,1,1.45.65,1.94,1.94,0,0,1,.5,1.31,2,2,0,0,1-.64,1.45l-1.54,1.39h1.73A.45.45,0,0,1,485.67,321.73Z"></path><path d="M490.91,320.66a.44.44,0,0,1-.46.45h-.08v.62a.45.45,0,1,1-.9,0v-.62h-2.56a.37.37,0,0,1-.28-.1.43.43,0,0,1-.07-.62l3-3.75,0,0,0,0s0,0,0,0l0,0a.06.06,0,0,1,.05,0s0,0,0,0l.05,0H490l.05,0h0l0,0,0,0h0l0,0,0,0s0,0,0,0a.11.11,0,0,1,0,.05l0,0s0,0,0,0v0a.07.07,0,0,1,0,.05s0,0,0,0v3.31h.08A.46.46,0,0,1,490.91,320.66Zm-1.44-2.46-1.62,2h1.62Z"></path><path d="M491.88,318.45a2,2,0,0,1,3.95-.21v0c0,.15,0,.31,0,.46a4.8,4.8,0,0,1-.28,1.67,2.9,2.9,0,0,1-1.05,1.4,2.38,2.38,0,0,1-1.23.38.45.45,0,0,1-.47-.43.46.46,0,0,1,.44-.47A1.55,1.55,0,0,0,494,321a1.77,1.77,0,0,0,.51-.57l.11-.21a2.06,2.06,0,0,1-.79.16A2,2,0,0,1,491.88,318.45Zm.91,0a1.07,1.07,0,1,0,2.14,0,1.07,1.07,0,1,0-2.14,0Z"></path><path d="M497.11,318.45a2,2,0,0,1,3.95-.21v0c0,.15,0,.31,0,.46a4.8,4.8,0,0,1-.28,1.67,2.9,2.9,0,0,1-1.05,1.4,2.38,2.38,0,0,1-1.23.38.45.45,0,0,1-.47-.43.46.46,0,0,1,.44-.47,1.55,1.55,0,0,0,.77-.23,1.77,1.77,0,0,0,.51-.57l.11-.21a2.06,2.06,0,0,1-.79.16A2,2,0,0,1,497.11,318.45Zm.91,0a1.07,1.07,0,1,0,2.14,0,1.07,1.07,0,0,0-2.14,0Z"></path><path d="M503,321a.61.61,0,0,1,.61.61A.61.61,0,1,1,503,321Z"></path><path d="M504.13,318.45a2,2,0,0,1,3.95-.21v0c0,.15,0,.31,0,.46a4.8,4.8,0,0,1-.28,1.67,2.9,2.9,0,0,1-1.05,1.4,2.38,2.38,0,0,1-1.23.38.45.45,0,0,1-.47-.43.46.46,0,0,1,.44-.47,1.55,1.55,0,0,0,.77-.23,1.77,1.77,0,0,0,.51-.57l.11-.21a2.06,2.06,0,0,1-.79.16A2,2,0,0,1,504.13,318.45Zm.91,0a1.07,1.07,0,1,0,2.14,0,1.07,1.07,0,1,0-2.14,0Z"></path><path d="M509.36,318.45a2,2,0,0,1,3.95-.21v0c0,.15,0,.31,0,.46a4.59,4.59,0,0,1-.29,1.67,2.78,2.78,0,0,1-1,1.4,2.32,2.32,0,0,1-1.22.38.45.45,0,0,1-.47-.43.46.46,0,0,1,.44-.47,1.48,1.48,0,0,0,.76-.23,1.69,1.69,0,0,0,.52-.57,2,2,0,0,0,.1-.21,2,2,0,0,1-2.76-1.81Zm.91,0a1.07,1.07,0,0,0,2.14,0,1.07,1.07,0,0,0-2.14,0Z"></path><path d="M478.52,308.14a.27.27,0,0,1,.28.28v.14a2.44,2.44,0,0,1,1,.36.35.35,0,0,1,.2.32.37.37,0,0,1-.37.36.41.41,0,0,1-.2-.06,2.27,2.27,0,0,0-.67-.29v1.26c1,.25,1.42.65,1.42,1.35s-.56,1.2-1.4,1.28v.4a.28.28,0,0,1-.28.28.3.3,0,0,1-.29-.28v-.41a2.82,2.82,0,0,1-1.34-.51.38.38,0,0,1-.18-.32.36.36,0,0,1,.36-.36.41.41,0,0,1,.22.07,2.19,2.19,0,0,0,1,.44v-1.29c-1-.25-1.4-.61-1.4-1.35a1.31,1.31,0,0,1,1.37-1.25v-.14A.29.29,0,0,1,478.52,308.14Zm-.26,2.23v-1.16c-.42,0-.63.26-.63.55S477.75,310.21,478.26,310.37Zm.52.92v1.19c.42-.05.65-.26.65-.57S479.28,311.44,478.78,311.29Z" style="fill:#a6a6a6"></path><path d="M483.85,312.78a.36.36,0,0,1-.36.36h-2.34a.34.34,0,0,1-.26-.12.35.35,0,0,1,0-.51l1.94-1.76a.81.81,0,0,0,.27-.63.87.87,0,0,0-.21-.57.83.83,0,0,0-.63-.27.86.86,0,0,0-.57.21l-.21.19a.35.35,0,0,1-.51,0,.36.36,0,0,1,0-.51l.2-.18a1.54,1.54,0,0,1,1.06-.41,1.57,1.57,0,0,1,1.16.52,1.51,1.51,0,0,1,.41,1.05,1.59,1.59,0,0,1-.52,1.17l-1.24,1.12h1.4A.37.37,0,0,1,483.85,312.78Z" style="fill:#a6a6a6"></path><path d="M488,311.55a1.6,1.6,0,0,1-1.6,1.59,1.58,1.58,0,0,1-1.58-1.42s0,0,0,0,0-.25,0-.38A3.9,3.9,0,0,1,485,310a2.25,2.25,0,0,1,.85-1.13,1.86,1.86,0,0,1,1-.3.36.36,0,0,1,.38.34.37.37,0,0,1-.35.38,1.2,1.2,0,0,0-.62.19,1.32,1.32,0,0,0-.41.46.91.91,0,0,0-.09.17,1.48,1.48,0,0,1,.63-.13A1.59,1.59,0,0,1,488,311.55Zm-.73,0a.87.87,0,0,0-1.73,0,.87.87,0,0,0,1.73,0Z" style="fill:#a6a6a6"></path><path d="M488.91,310.14a1.59,1.59,0,0,1,3.18-.17v0c0,.12,0,.25,0,.37a4,4,0,0,1-.23,1.35,2.39,2.39,0,0,1-.85,1.12,1.89,1.89,0,0,1-1,.3.35.35,0,0,1-.38-.34.37.37,0,0,1,.35-.38,1.2,1.2,0,0,0,.62-.19,1.32,1.32,0,0,0,.41-.46.89.89,0,0,0,.08-.17,1.45,1.45,0,0,1-.63.13A1.59,1.59,0,0,1,488.91,310.14Zm.73,0a.86.86,0,0,0,1.72,0,.86.86,0,0,0-1.72,0Z" style="fill:#a6a6a6"></path><path d="M493.12,310.14a1.59,1.59,0,0,1,3.18-.17v0c0,.12,0,.25,0,.37a4,4,0,0,1-.23,1.35,2.33,2.33,0,0,1-.85,1.12,1.86,1.86,0,0,1-1,.3.35.35,0,0,1-.38-.34.37.37,0,0,1,.35-.38,1.2,1.2,0,0,0,.62-.19,1.32,1.32,0,0,0,.41-.46l.09-.17a1.48,1.48,0,0,1-.63.13A1.59,1.59,0,0,1,493.12,310.14Zm.73,0a.87.87,0,0,0,1.73,0,.87.87,0,0,0-1.73,0Z" style="fill:#a6a6a6"></path><path d="M497.86,312.21a.49.49,0,0,1,0,1,.49.49,0,0,1,0-1Z" style="fill:#a6a6a6"></path><path d="M498.78,310.14A1.59,1.59,0,0,1,502,310v0c0,.12,0,.25,0,.37a4,4,0,0,1-.22,1.35,2.39,2.39,0,0,1-.85,1.12,1.89,1.89,0,0,1-1,.3.37.37,0,0,1-.39-.34.39.39,0,0,1,.36-.38,1.16,1.16,0,0,0,.61-.19,1.25,1.25,0,0,0,.42-.46.89.89,0,0,0,.08-.17,1.45,1.45,0,0,1-.63.13A1.59,1.59,0,0,1,498.78,310.14Zm.73,0a.86.86,0,0,0,1.72,0,.86.86,0,0,0-1.72,0Z" style="fill:#a6a6a6"></path><path d="M503,310.14a1.59,1.59,0,0,1,3.18-.17v0c0,.12,0,.25,0,.37a4,4,0,0,1-.23,1.35,2.33,2.33,0,0,1-.85,1.12,1.86,1.86,0,0,1-1,.3.35.35,0,0,1-.38-.34.37.37,0,0,1,.35-.38,1.2,1.2,0,0,0,.62-.19,1.32,1.32,0,0,0,.41-.46l.09-.17a1.48,1.48,0,0,1-.63.13A1.59,1.59,0,0,1,503,310.14Zm.73,0a.87.87,0,0,0,1.73,0,.87.87,0,0,0-1.73,0Z" style="fill:#a6a6a6"></path><rect x="479.94" y="251.17" width="53.77" height="36.56" style="fill:#263238"></rect><rect x="479.94" y="282.33" width="53.77" height="5.39" style="fill:#ebebeb"></rect><rect x="496.34" y="294.32" width="20.96" height="1.75" style="fill:#c7c7c7"></rect><polygon points="514.8 294.32 498.84 294.32 499.25 291.28 499.27 291.14 499.3 290.85 499.32 290.71 499.36 290.43 499.37 290.38 499.38 290.28 499.42 290 499.44 289.85 499.72 287.73 513.92 287.73 514.19 289.73 514.21 289.83 514.25 290.16 514.26 290.26 514.28 290.38 514.31 290.59 514.32 290.69 514.36 291.02 514.38 291.11 514.8 294.32" style="fill:#ebebeb"></polygon><path d="M507.7,284.67a.89.89,0,1,1-.89-.89A.89.89,0,0,1,507.7,284.67Z" style="fill:#37474f"></path><g style="opacity:0.16"><polygon points="514.28 290.38 499.44 289.85 499.72 287.73 513.92 287.73 514.28 290.38"></polygon></g><rect x="482.42" y="253.54" width="48.81" height="26.26" style="fill:#fff"></rect><rect x="482.42" y="253.54" width="48.81" height="26.26" style="fill:#455a64"></rect><g style="opacity:0.1"><polygon points="517.72 253.54 491.46 279.8 485.97 279.8 512.23 253.54 517.72 253.54" style="fill:#fff"></polygon><polygon points="531.23 267.18 531.23 272.68 524.11 279.8 518.61 279.8 531.23 267.18" style="fill:#fff"></polygon><polygon points="493.45 253.54 482.42 264.57 482.42 259.08 487.95 253.54 493.45 253.54" style="fill:#fff"></polygon><polygon points="531.23 259.86 531.23 262.16 513.59 279.8 511.29 279.8 531.23 259.86" style="fill:#fff"></polygon><polygon points="503.25 253.54 482.42 274.38 482.42 272.09 500.96 253.54 503.25 253.54" style="fill:#fff"></polygon><polygon points="522.91 253.54 496.66 279.8 496.05 279.8 522.3 253.54 522.91 253.54" style="fill:#fff"></polygon><polygon points="486.13 253.54 482.42 257.26 482.42 256.65 485.52 253.54 486.13 253.54" style="fill:#fff"></polygon></g><rect x="387.23" y="242.02" width="63.2" height="63.2" style="fill:#dbdbdb"></rect><path d="M391.19,316a.35.35,0,0,1,.35.35v.18a2.93,2.93,0,0,1,1.26.45.43.43,0,0,1,.25.39.46.46,0,0,1-.46.45.55.55,0,0,1-.24-.07,2.73,2.73,0,0,0-.84-.36v1.56c1.24.31,1.77.81,1.77,1.68s-.71,1.49-1.74,1.59v.49a.36.36,0,0,1-.71,0v-.51a3.48,3.48,0,0,1-1.67-.63.45.45,0,0,1,.23-.84.44.44,0,0,1,.27.09,3,3,0,0,0,1.2.54v-1.6c-1.19-.31-1.74-.76-1.74-1.68a1.64,1.64,0,0,1,1.71-1.56v-.17A.36.36,0,0,1,391.19,316Zm-.33,2.78V317.3c-.52.05-.78.32-.78.68S390.24,318.54,390.86,318.74Zm.65,1.13v1.49c.52-.06.8-.32.8-.71S392.13,320.07,391.51,319.87Z"></path><path d="M395.82,316.92v4.81a.46.46,0,0,1-.46.45.45.45,0,0,1-.45-.45v-4l-.33.19a.37.37,0,0,1-.22.06.46.46,0,0,1-.39-.22.45.45,0,0,1,.15-.62l1-.59,0,0,0,0h.26l.05,0h0l0,0,0,0,0,0a.07.07,0,0,1,0,0l0,0s0,0,0,0v0a0,0,0,0,1,0,0,.06.06,0,0,1,0,0s0,0,0,0,0,0,0,0,0,0,0,.06Z"></path><path d="M396.85,319.33a3.49,3.49,0,0,1,.55-1.95,1.72,1.72,0,0,1,3,0,3.77,3.77,0,0,1,0,3.89,1.72,1.72,0,0,1-3,0A3.48,3.48,0,0,1,396.85,319.33Zm3.22,0a2.77,2.77,0,0,0-.39-1.45.94.94,0,0,0-.76-.5,1,1,0,0,0-.78.5,2.77,2.77,0,0,0-.39,1.45,2.73,2.73,0,0,0,.39,1.44,1,1,0,0,0,.78.5,1,1,0,0,0,.76-.5A2.73,2.73,0,0,0,400.07,319.33Z"></path><path d="M402.64,318.45a2,2,0,0,1,2-2,2,2,0,0,1,2,1.77v0c0,.15,0,.31,0,.46a4.59,4.59,0,0,1-.29,1.67,2.84,2.84,0,0,1-1.05,1.4,2.35,2.35,0,0,1-1.22.38.45.45,0,0,1-.47-.43.46.46,0,0,1,.44-.47,1.48,1.48,0,0,0,.76-.23,1.69,1.69,0,0,0,.52-.57,2,2,0,0,0,.1-.21,2,2,0,0,1-2.76-1.81Zm.9,0a1.08,1.08,0,0,0,2.15,0,1.08,1.08,0,0,0-2.15,0Z"></path><path d="M407.87,318.45a2,2,0,0,1,3.94-.21v0c0,.15,0,.31,0,.46a4.81,4.81,0,0,1-.29,1.67,2.84,2.84,0,0,1-1.05,1.4,2.35,2.35,0,0,1-1.22.38.46.46,0,0,1-.48-.43.47.47,0,0,1,.45-.47A1.51,1.51,0,0,0,410,321a1.66,1.66,0,0,0,.51-.57,2.12,2.12,0,0,0,.11-.21,2.05,2.05,0,0,1-.78.16A2,2,0,0,1,407.87,318.45Zm.9,0a1.08,1.08,0,0,0,2.15,0,1.08,1.08,0,0,0-2.15,0Z"></path><path d="M413.75,321a.62.62,0,0,1,.61.61.61.61,0,0,1-.61.61.6.6,0,0,1-.6-.61A.61.61,0,0,1,413.75,321Z"></path><path d="M414.89,318.45a2,2,0,0,1,3.94-.21v0c0,.15,0,.31,0,.46a4.59,4.59,0,0,1-.29,1.67,2.84,2.84,0,0,1-1.05,1.4,2.35,2.35,0,0,1-1.22.38.44.44,0,0,1-.47-.43.46.46,0,0,1,.44-.47A1.48,1.48,0,0,0,417,321a1.57,1.57,0,0,0,.51-.57,2.12,2.12,0,0,0,.11-.21,2,2,0,0,1-.78.16A2,2,0,0,1,414.89,318.45Zm.9,0a1.08,1.08,0,0,0,2.15,0,1.08,1.08,0,0,0-2.15,0Z"></path><path d="M420.12,318.45a2,2,0,0,1,3.94-.21v0c0,.15,0,.31,0,.46a4.8,4.8,0,0,1-.28,1.67,2.84,2.84,0,0,1-1.05,1.4,2.35,2.35,0,0,1-1.22.38.46.46,0,0,1-.48-.43.47.47,0,0,1,.44-.47,1.52,1.52,0,0,0,.77-.23,1.77,1.77,0,0,0,.51-.57,2.12,2.12,0,0,0,.11-.21,2.05,2.05,0,0,1-.78.16A2,2,0,0,1,420.12,318.45Zm.9,0a1.07,1.07,0,1,0,2.14,0,1.06,1.06,0,0,0-1.06-1.07A1.07,1.07,0,0,0,421,318.45Z"></path><path d="M390.66,308.14a.28.28,0,0,1,.28.28v.14a2.49,2.49,0,0,1,1,.36.36.36,0,0,1-.18.68.35.35,0,0,1-.19-.06,2.32,2.32,0,0,0-.68-.29v1.26c1,.25,1.42.65,1.42,1.35s-.56,1.2-1.39,1.28v.4a.29.29,0,0,1-.57,0v-.41a2.86,2.86,0,0,1-1.35-.51.38.38,0,0,1-.18-.32.36.36,0,0,1,.37-.36.4.4,0,0,1,.21.07,2.19,2.19,0,0,0,1,.44v-1.29c-.95-.25-1.4-.61-1.4-1.35a1.32,1.32,0,0,1,1.38-1.25v-.14A.28.28,0,0,1,390.66,308.14Zm-.27,2.23v-1.16c-.42,0-.63.26-.63.55S389.89,310.21,390.39,310.37Zm.52.92v1.19c.42-.05.65-.26.65-.57S391.42,311.44,390.91,311.29Z" style="fill:#a6a6a6"></path><path d="M394.38,308.91v3.87a.36.36,0,0,1-.36.36.36.36,0,0,1-.37-.36v-3.23l-.26.15a.32.32,0,0,1-.18.06.35.35,0,0,1-.31-.19.35.35,0,0,1,.12-.49l.81-.48s0,0,0,0l0,0h.32s0,0,0,0l0,0,0,0,0,0,0,0v.07a0,0,0,0,1,0,0v0a.07.07,0,0,0,0,.05Z" style="fill:#a6a6a6"></path><path d="M398.18,312.78a.36.36,0,0,1-.36.36h-2.33a.34.34,0,0,1-.27-.12.35.35,0,0,1,0-.51l1.94-1.76a.81.81,0,0,0,.27-.63.87.87,0,0,0-.21-.57.83.83,0,0,0-.63-.27.86.86,0,0,0-.57.21l-.21.19a.35.35,0,0,1-.51,0,.36.36,0,0,1,0-.51l.2-.18a1.54,1.54,0,0,1,1.06-.41,1.6,1.6,0,0,1,1.17.52,1.55,1.55,0,0,1,.4,1.05,1.59,1.59,0,0,1-.52,1.17l-1.24,1.12h1.4A.37.37,0,0,1,398.18,312.78Z" style="fill:#a6a6a6"></path><path d="M399.09,310.14a1.6,1.6,0,0,1,1.6-1.59,1.58,1.58,0,0,1,1.58,1.42v0c0,.12,0,.25,0,.37a4,4,0,0,1-.23,1.35,2.27,2.27,0,0,1-.85,1.12,1.86,1.86,0,0,1-1,.3.36.36,0,0,1-.38-.34.37.37,0,0,1,.35-.38,1.2,1.2,0,0,0,.62-.19,1.32,1.32,0,0,0,.41-.46.91.91,0,0,0,.09-.17,1.48,1.48,0,0,1-.63.13A1.59,1.59,0,0,1,399.09,310.14Zm.73,0a.87.87,0,0,0,1.73,0,.87.87,0,0,0-1.73,0Z" style="fill:#a6a6a6"></path><path d="M403.31,310.14a1.59,1.59,0,0,1,3.17-.17v0c0,.12,0,.25,0,.37a3.76,3.76,0,0,1-.23,1.35,2.31,2.31,0,0,1-.84,1.12,1.89,1.89,0,0,1-1,.3.37.37,0,0,1-.38-.34.38.38,0,0,1,.36-.38,1.16,1.16,0,0,0,.61-.19,1.34,1.34,0,0,0,.42-.46c0-.05.05-.11.08-.17a1.48,1.48,0,0,1-.63.13A1.58,1.58,0,0,1,403.31,310.14Zm.73,0a.86.86,0,1,0,.86-.86A.86.86,0,0,0,404,310.14Z" style="fill:#a6a6a6"></path><path d="M408,312.21a.49.49,0,1,1,0,1,.49.49,0,0,1,0-1Z" style="fill:#a6a6a6"></path><path d="M409,310.14a1.59,1.59,0,0,1,3.18-.17v0c0,.12,0,.25,0,.37a4,4,0,0,1-.23,1.35,2.33,2.33,0,0,1-.85,1.12,1.86,1.86,0,0,1-1,.3.35.35,0,0,1-.38-.34.37.37,0,0,1,.35-.38,1.2,1.2,0,0,0,.62-.19,1.32,1.32,0,0,0,.41-.46l.09-.17a1.48,1.48,0,0,1-.63.13A1.59,1.59,0,0,1,409,310.14Zm.73,0a.87.87,0,0,0,1.73,0,.87.87,0,0,0-1.73,0Z" style="fill:#a6a6a6"></path><path d="M413.18,310.14a1.59,1.59,0,0,1,3.17-.17v0c0,.12,0,.25,0,.37a3.76,3.76,0,0,1-.23,1.35,2.31,2.31,0,0,1-.84,1.12,1.89,1.89,0,0,1-1,.3.36.36,0,0,1-.38-.34.38.38,0,0,1,.36-.38,1.19,1.19,0,0,0,.61-.19,1.34,1.34,0,0,0,.42-.46c0-.05.05-.11.08-.17a1.48,1.48,0,0,1-.63.13A1.58,1.58,0,0,1,413.18,310.14Zm.72,0a.87.87,0,0,0,1.73,0,.87.87,0,0,0-1.73,0Z" style="fill:#a6a6a6"></path><path d="M434.78,301.29H402.89a2.59,2.59,0,0,1-2.57-2.61V248.56a2.6,2.6,0,0,1,2.57-2.62h31.89a2.6,2.6,0,0,1,2.57,2.62v50.12A2.59,2.59,0,0,1,434.78,301.29Z" style="fill:#263238"></path><rect x="401.92" y="249.85" width="33.87" height="47.64" style="fill:#455a64"></rect><g style="opacity:0.1"><polygon points="428.7 249.86 401.93 276.63 401.93 276.23 428.3 249.86 428.7 249.86" style="fill:#fff"></polygon><polygon points="435.79 281.44 435.79 284.08 422.37 297.49 419.72 297.49 435.79 281.44" style="fill:#fff"></polygon><polygon points="433.73 249.86 401.93 281.63 401.93 279 431.09 249.86 433.73 249.86" style="fill:#fff"></polygon><polygon points="435.83 264.04 435.83 269.3 435.79 269.34 407.55 297.49 402.27 297.49 435.79 264.08 435.83 264.04" style="fill:#fff"></polygon><polygon points="418.15 249.86 401.93 266.08 401.93 260.8 412.88 249.86 418.15 249.86" style="fill:#fff"></polygon></g><rect x="418.55" y="244.2" width="0.58" height="8.06" rx="0.26" transform="translate(667.06 -170.61) rotate(90)" style="fill:#455a64"></rect><path d="M418.84,300.62a1,1,0,1,1,1-1A1,1,0,0,1,418.84,300.62Z" style="fill:#455a64"></path><rect x="299.25" y="242.02" width="63.2" height="63.2" style="fill:#455a64"></rect><path d="M303.2,316a.35.35,0,0,1,.35.35v.18a3,3,0,0,1,1.27.45.42.42,0,0,1,.24.39.45.45,0,0,1-.46.45.55.55,0,0,1-.24-.07,2.54,2.54,0,0,0-.84-.36v1.56c1.24.31,1.77.81,1.77,1.68s-.7,1.49-1.74,1.59v.49a.35.35,0,0,1-.35.35.36.36,0,0,1-.36-.35v-.51a3.48,3.48,0,0,1-1.67-.63.47.47,0,0,1-.22-.39.44.44,0,0,1,.45-.45.42.42,0,0,1,.27.09,2.93,2.93,0,0,0,1.21.54v-1.6c-1.19-.31-1.75-.76-1.75-1.68a1.64,1.64,0,0,1,1.71-1.56v-.17A.36.36,0,0,1,303.2,316Zm-.32,2.78V317.3c-.52.05-.78.32-.78.68S302.25,318.54,302.88,318.74Zm.64,1.13v1.49c.52-.06.81-.32.81-.71S304.15,320.07,303.52,319.87Z"></path><path d="M309.82,321.73a.45.45,0,0,1-.45.45h-2.9a.46.46,0,0,1-.34-.15.44.44,0,0,1,0-.63l2.41-2.19a1,1,0,0,0,.34-.78,1.07,1.07,0,0,0-.27-.71,1,1,0,0,0-.78-.34,1.09,1.09,0,0,0-.71.27l-.25.23a.45.45,0,1,1-.6-.67l.25-.23a2,2,0,0,1,1.31-.51,2,2,0,0,1,1.45.65,1.94,1.94,0,0,1-.14,2.76l-1.54,1.39h1.74A.46.46,0,0,1,309.82,321.73Z"></path><path d="M311,318.45a2,2,0,0,1,3.94-.21v0c0,.15,0,.31,0,.46a4.81,4.81,0,0,1-.29,1.67,2.84,2.84,0,0,1-1.05,1.4,2.35,2.35,0,0,1-1.22.38.46.46,0,0,1-.48-.43.47.47,0,0,1,.45-.47,1.51,1.51,0,0,0,.76-.23,1.66,1.66,0,0,0,.51-.57,1.06,1.06,0,0,0,.11-.21,2,2,0,0,1-.78.16A2,2,0,0,1,311,318.45Zm.9,0a1.08,1.08,0,0,0,2.15,0,1.08,1.08,0,0,0-2.15,0Z"></path><path d="M316.18,318.45a2,2,0,0,1,3.94-.21v0c0,.15,0,.31,0,.46a4.8,4.8,0,0,1-.28,1.67,2.84,2.84,0,0,1-1.05,1.4,2.35,2.35,0,0,1-1.22.38.46.46,0,0,1-.48-.43.47.47,0,0,1,.44-.47,1.52,1.52,0,0,0,.77-.23,1.77,1.77,0,0,0,.51-.57,2.12,2.12,0,0,0,.11-.21,2.05,2.05,0,0,1-.78.16A2,2,0,0,1,316.18,318.45Zm.9,0a1.07,1.07,0,1,0,2.14,0,1.06,1.06,0,0,0-1.06-1.07A1.07,1.07,0,0,0,317.08,318.45Z"></path><path d="M322.06,321a.62.62,0,0,1,.61.61.61.61,0,0,1-.61.61.61.61,0,0,1-.61-.61A.61.61,0,0,1,322.06,321Z"></path><path d="M323.2,318.45a2,2,0,0,1,3.94-.21v0c0,.15,0,.31,0,.46a4.81,4.81,0,0,1-.29,1.67,2.84,2.84,0,0,1-1.05,1.4,2.35,2.35,0,0,1-1.22.38.46.46,0,0,1-.48-.43.47.47,0,0,1,.44-.47,1.52,1.52,0,0,0,.77-.23,1.77,1.77,0,0,0,.51-.57,2.12,2.12,0,0,0,.11-.21,2.05,2.05,0,0,1-.78.16A2,2,0,0,1,323.2,318.45Zm.9,0a1.07,1.07,0,1,0,2.14,0,1.06,1.06,0,0,0-1.06-1.07A1.07,1.07,0,0,0,324.1,318.45Z"></path><path d="M328.43,318.45a2,2,0,0,1,3.94-.21v0c0,.15,0,.31,0,.46a4.8,4.8,0,0,1-.28,1.67,2.84,2.84,0,0,1-1.05,1.4,2.35,2.35,0,0,1-1.22.38.46.46,0,0,1-.48-.43.46.46,0,0,1,.44-.47,1.52,1.52,0,0,0,.77-.23,1.77,1.77,0,0,0,.51-.57,2.12,2.12,0,0,0,.11-.21,2.05,2.05,0,0,1-.78.16A2,2,0,0,1,328.43,318.45Zm.9,0a1.07,1.07,0,1,0,2.14,0,1.06,1.06,0,0,0-1.06-1.07A1.07,1.07,0,0,0,329.33,318.45Z"></path><path d="M302.67,308.14a.27.27,0,0,1,.28.28v.14a2.44,2.44,0,0,1,1,.36.36.36,0,0,1-.17.68.39.39,0,0,1-.2-.06,2.27,2.27,0,0,0-.67-.29v1.26c1,.25,1.42.65,1.42,1.35s-.56,1.2-1.4,1.28v.4a.28.28,0,0,1-.28.28.29.29,0,0,1-.29-.28v-.41a2.82,2.82,0,0,1-1.34-.51.37.37,0,0,1,.18-.68.41.41,0,0,1,.22.07,2.14,2.14,0,0,0,1,.44v-1.29c-1-.25-1.41-.61-1.41-1.35a1.32,1.32,0,0,1,1.38-1.25v-.14A.28.28,0,0,1,302.67,308.14Zm-.26,2.23v-1.16c-.42,0-.63.26-.63.55S301.9,310.21,302.41,310.37Zm.52.92v1.19c.42-.05.65-.26.65-.57S303.43,311.44,302.93,311.29Z" style="fill:#a6a6a6"></path><path d="M307.52,310.35a1.63,1.63,0,0,1,.48,1.15,1.62,1.62,0,0,1-1.64,1.63,1.62,1.62,0,0,1-1.14-.47.37.37,0,0,1,0-.53.37.37,0,0,1,.52,0,.87.87,0,0,0,.62.26.89.89,0,0,0,.63-.26.88.88,0,0,0,.27-.63.84.84,0,0,0-.27-.62.83.83,0,0,0-.62-.26.36.36,0,0,1-.27-.12h0a.37.37,0,0,1,0-.52l.67-.69h-1.06a.36.36,0,0,1-.37-.37.37.37,0,0,1,.37-.37h1.93a.37.37,0,0,1,.33.55l-.06.09-.83.85A1.47,1.47,0,0,1,307.52,310.35Z" style="fill:#a6a6a6"></path><path d="M309,310.14a1.59,1.59,0,0,1,1.59-1.59,1.57,1.57,0,0,1,1.58,1.42v0c0,.12,0,.25,0,.37a3.76,3.76,0,0,1-.23,1.35,2.31,2.31,0,0,1-.84,1.12,1.89,1.89,0,0,1-1,.3.37.37,0,0,1-.38-.34.38.38,0,0,1,.36-.38,1.16,1.16,0,0,0,.61-.19,1.25,1.25,0,0,0,.42-.46.89.89,0,0,0,.08-.17,1.45,1.45,0,0,1-.63.13A1.58,1.58,0,0,1,309,310.14Zm.73,0a.86.86,0,1,0,.86-.86A.86.86,0,0,0,309.74,310.14Z" style="fill:#a6a6a6"></path><path d="M313.22,310.14a1.59,1.59,0,0,1,3.18-.17v0c0,.12,0,.25,0,.37a4,4,0,0,1-.23,1.35,2.39,2.39,0,0,1-.85,1.12,1.86,1.86,0,0,1-1,.3.35.35,0,0,1-.38-.34.37.37,0,0,1,.35-.38,1.2,1.2,0,0,0,.62-.19,1.32,1.32,0,0,0,.41-.46l.09-.17a1.48,1.48,0,0,1-.63.13A1.59,1.59,0,0,1,313.22,310.14Zm.73,0a.87.87,0,1,0,.87-.86A.87.87,0,0,0,314,310.14Z" style="fill:#a6a6a6"></path><path d="M318,312.21a.49.49,0,1,1-.49.49A.49.49,0,0,1,318,312.21Z" style="fill:#a6a6a6"></path><path d="M318.88,310.14a1.59,1.59,0,0,1,3.17-.17v0c0,.12,0,.25,0,.37a3.76,3.76,0,0,1-.23,1.35,2.31,2.31,0,0,1-.84,1.12,1.89,1.89,0,0,1-1,.3.37.37,0,0,1-.38-.34.38.38,0,0,1,.36-.38,1.16,1.16,0,0,0,.61-.19,1.25,1.25,0,0,0,.42-.46.89.89,0,0,0,.08-.17,1.45,1.45,0,0,1-.63.13A1.58,1.58,0,0,1,318.88,310.14Zm.73,0a.86.86,0,1,0,.86-.86A.86.86,0,0,0,319.61,310.14Z" style="fill:#a6a6a6"></path><path d="M323.09,310.14a1.59,1.59,0,0,1,3.18-.17v0c0,.12,0,.25,0,.37a4,4,0,0,1-.23,1.35,2.39,2.39,0,0,1-.85,1.12,1.89,1.89,0,0,1-1,.3.35.35,0,0,1-.38-.34.37.37,0,0,1,.35-.38,1.2,1.2,0,0,0,.62-.19,1.32,1.32,0,0,0,.41-.46.89.89,0,0,0,.08-.17,1.44,1.44,0,0,1-.62.13A1.59,1.59,0,0,1,323.09,310.14Zm.73,0a.87.87,0,0,0,.87.86.86.86,0,1,0-.87-.86Z" style="fill:#a6a6a6"></path><rect x="318.13" y="258.51" width="25.45" height="30.21" style="fill:#263238"></rect><rect x="316.79" y="262.87" width="1.34" height="12.92" style="fill:#6582E4"></rect><rect x="316.79" y="279.17" width="1.34" height="5.2" style="fill:#6582E4"></rect><rect x="343.57" y="263.94" width="1.34" height="5.2" style="fill:#6582E4"></rect><rect x="343.57" y="270.93" width="1.34" height="8.4" style="fill:#6582E4"></rect><rect x="320.53" y="261.37" width="20.63" height="24.49" style="fill:#455a64"></rect><polygon points="324.02 301.29 337.68 301.29 339.44 288.72 322.26 288.72 324.02 301.29" style="fill:#6582E4"></polygon><polygon points="322.26 288.72 339.44 288.72 339.21 290.3 322.51 290.46 322.26 288.72" style="fill:#050400;opacity:0.2"></polygon><polygon points="337.68 245.94 324.03 245.94 322.26 258.51 339.44 258.51 337.68 245.94" style="fill:#6582E4"></polygon><polygon points="339.44 258.51 322.26 258.51 322.49 256.93 339.19 256.77 339.44 258.51" style="fill:#050400;opacity:0.2"></polygon><g style="opacity:0.1"><polygon points="341.17 261.74 341.17 262.13 320.54 282.77 320.54 282.37 341.17 261.74" style="fill:#fff"></polygon><polygon points="324.8 261.38 320.54 265.65 320.54 265.25 324.42 261.38 324.8 261.38" style="fill:#fff"></polygon><polygon points="341.17 283.4 341.17 285.86 338.71 285.86 341.17 283.4" style="fill:#fff"></polygon><polygon points="329.77 261.38 320.54 270.62 320.54 268 327.16 261.38 329.77 261.38" style="fill:#fff"></polygon><polygon points="341.17 266.07 341.17 271.29 326.61 285.86 321.38 285.86 341.17 266.07" style="fill:#fff"></polygon></g><rect x="211.26" y="242.02" width="63.2" height="63.2" style="fill:#dbdbdb"></rect><path d="M215.1,316a.35.35,0,0,1,.35.35v.18a2.93,2.93,0,0,1,1.26.45.43.43,0,0,1,.25.39.46.46,0,0,1-.46.45.63.63,0,0,1-.25-.07,2.59,2.59,0,0,0-.83-.36v1.56c1.23.31,1.76.81,1.76,1.68s-.7,1.49-1.73,1.59v.49a.36.36,0,0,1-.71,0v-.51a3.48,3.48,0,0,1-1.67-.63.44.44,0,0,1-.22-.39.45.45,0,0,1,.72-.36,2.9,2.9,0,0,0,1.2.54v-1.6c-1.19-.31-1.74-.76-1.74-1.68a1.64,1.64,0,0,1,1.71-1.56v-.17A.36.36,0,0,1,215.1,316Zm-.33,2.78V317.3c-.52.05-.78.32-.78.68S214.14,318.54,214.77,318.74Zm.65,1.13v1.49c.52-.06.8-.32.8-.71S216,320.07,215.42,319.87Z"></path><path d="M221,318.72a2.06,2.06,0,0,1,.59,1.44,2,2,0,0,1-2,2h0a2,2,0,0,1-1.41-.6.44.44,0,0,1,0-.65.46.46,0,0,1,.65,0,1.08,1.08,0,0,0,1.55,0,1.08,1.08,0,0,0,.33-.77,1.11,1.11,0,0,0-1.1-1.1,1.07,1.07,0,0,0-.78.32.48.48,0,0,1-.65,0l-.09-.11s0,0,0,0,0,0,0,0a.35.35,0,0,0,0-.06V319l.25-2.11a.47.47,0,0,1,.2-.32l0,0s0,0,0,0a.5.5,0,0,1,.21,0h2.41a.47.47,0,0,1,0,.93h-2l-.1.8a2.08,2.08,0,0,1,.55-.07A2,2,0,0,1,221,318.72Z"></path><path d="M222.92,318.45a2,2,0,0,1,4-.21v0c0,.15,0,.31,0,.46a4.8,4.8,0,0,1-.28,1.67,2.9,2.9,0,0,1-1.05,1.4,2.38,2.38,0,0,1-1.23.38.45.45,0,0,1-.47-.43.46.46,0,0,1,.44-.47,1.55,1.55,0,0,0,.77-.23,1.77,1.77,0,0,0,.51-.57l.11-.21a2.06,2.06,0,0,1-.79.16A2,2,0,0,1,222.92,318.45Zm.91,0a1.07,1.07,0,1,0,2.14,0,1.07,1.07,0,1,0-2.14,0Z"></path><path d="M228.15,318.45a2,2,0,0,1,3.95-.21v0c0,.15,0,.31,0,.46a4.8,4.8,0,0,1-.28,1.67,2.86,2.86,0,0,1-1.06,1.4,2.32,2.32,0,0,1-1.22.38.45.45,0,0,1-.47-.43.46.46,0,0,1,.44-.47,1.55,1.55,0,0,0,.77-.23,1.77,1.77,0,0,0,.51-.57,2,2,0,0,0,.1-.21,2,2,0,0,1-2.76-1.81Zm.91,0a1.07,1.07,0,1,0,2.14,0,1.07,1.07,0,1,0-2.14,0Z"></path><path d="M234,321a.61.61,0,0,1,.61.61A.61.61,0,1,1,234,321Z"></path><path d="M235.17,318.45a2,2,0,0,1,4-.21v0c0,.15,0,.31,0,.46a4.8,4.8,0,0,1-.28,1.67,2.86,2.86,0,0,1-1.06,1.4,2.32,2.32,0,0,1-1.22.38.45.45,0,0,1-.47-.43.46.46,0,0,1,.44-.47,1.55,1.55,0,0,0,.77-.23,1.77,1.77,0,0,0,.51-.57l.11-.21a2.06,2.06,0,0,1-.79.16A2,2,0,0,1,235.17,318.45Zm.91,0a1.07,1.07,0,1,0,2.14,0,1.07,1.07,0,1,0-2.14,0Z"></path><path d="M240.4,318.45a2,2,0,0,1,3.95-.21v0c0,.15,0,.31,0,.46a4.59,4.59,0,0,1-.29,1.67,2.78,2.78,0,0,1-1.05,1.4,2.32,2.32,0,0,1-1.22.38.45.45,0,0,1-.47-.43.46.46,0,0,1,.44-.47,1.48,1.48,0,0,0,.76-.23,1.69,1.69,0,0,0,.52-.57,2,2,0,0,0,.1-.21,2,2,0,0,1-2.76-1.81Zm.91,0a1.07,1.07,0,1,0,2.14,0,1.07,1.07,0,1,0-2.14,0Z"></path><path d="M214.56,308.14a.28.28,0,0,1,.29.28v.14a2.44,2.44,0,0,1,1,.36.35.35,0,0,1,.2.32.36.36,0,0,1-.37.36.35.35,0,0,1-.19-.06,2.32,2.32,0,0,0-.68-.29v1.26c1,.25,1.42.65,1.42,1.35s-.56,1.2-1.39,1.28v.4a.29.29,0,0,1-.29.28.3.3,0,0,1-.29-.28v-.41a2.82,2.82,0,0,1-1.34-.51.38.38,0,0,1-.18-.32.36.36,0,0,1,.36-.36.41.41,0,0,1,.22.07,2.19,2.19,0,0,0,1,.44v-1.29c-1-.25-1.4-.61-1.4-1.35a1.31,1.31,0,0,1,1.37-1.25v-.14A.29.29,0,0,1,214.56,308.14Zm-.26,2.23v-1.16c-.42,0-.63.26-.63.55S213.8,310.21,214.3,310.37Zm.52.92v1.19c.42-.05.65-.26.65-.57S215.32,311.44,214.82,311.29Z" style="fill:#a6a6a6"></path><path d="M219.8,309.05l-1.64,3.87a.34.34,0,0,1-.34.22l-.13,0a.38.38,0,0,1-.2-.48l1.42-3.36h-1.7a.37.37,0,0,1-.36-.37.36.36,0,0,1,.36-.36h2.32a.39.39,0,0,1,.14.05l0,0,0,0s0,0,0,0l0,0s0,0,0,0l0,0v0a.06.06,0,0,0,0,0,.33.33,0,0,1,0,.14A.64.64,0,0,1,219.8,309.05Z" style="fill:#a6a6a6"></path><path d="M220.62,310.14a1.59,1.59,0,0,1,3.18-.17v0c0,.12,0,.25,0,.37a4,4,0,0,1-.23,1.35,2.39,2.39,0,0,1-.85,1.12,1.89,1.89,0,0,1-1,.3.37.37,0,0,1-.39-.34.39.39,0,0,1,.36-.38,1.2,1.2,0,0,0,.62-.19,1.32,1.32,0,0,0,.41-.46.89.89,0,0,0,.08-.17,1.45,1.45,0,0,1-.63.13A1.59,1.59,0,0,1,220.62,310.14Zm.73,0a.86.86,0,1,0,1.72,0,.86.86,0,1,0-1.72,0Z" style="fill:#a6a6a6"></path><path d="M224.83,310.14A1.59,1.59,0,0,1,228,310v0c0,.12,0,.25,0,.37a4,4,0,0,1-.23,1.35,2.33,2.33,0,0,1-.85,1.12,1.86,1.86,0,0,1-1,.3.35.35,0,0,1-.38-.34.37.37,0,0,1,.35-.38,1.2,1.2,0,0,0,.62-.19,1.32,1.32,0,0,0,.41-.46l.09-.17a1.48,1.48,0,0,1-.63.13A1.59,1.59,0,0,1,224.83,310.14Zm.73,0a.87.87,0,0,0,1.73,0,.87.87,0,0,0-1.73,0Z" style="fill:#a6a6a6"></path><path d="M229.57,312.21a.49.49,0,1,1-.49.49A.49.49,0,0,1,229.57,312.21Z" style="fill:#a6a6a6"></path><path d="M230.49,310.14a1.59,1.59,0,0,1,3.18-.17v0c0,.12,0,.25,0,.37a4,4,0,0,1-.22,1.35,2.39,2.39,0,0,1-.85,1.12,1.89,1.89,0,0,1-1,.3.37.37,0,0,1-.38-.34.38.38,0,0,1,.36-.38,1.16,1.16,0,0,0,.61-.19,1.25,1.25,0,0,0,.42-.46.89.89,0,0,0,.08-.17,1.45,1.45,0,0,1-.63.13A1.58,1.58,0,0,1,230.49,310.14Zm.73,0a.86.86,0,1,0,.86-.86A.86.86,0,0,0,231.22,310.14Z" style="fill:#a6a6a6"></path><path d="M234.7,310.14a1.59,1.59,0,0,1,3.18-.17v0c0,.12,0,.25,0,.37a4,4,0,0,1-.23,1.35,2.39,2.39,0,0,1-.85,1.12,1.86,1.86,0,0,1-1,.3.35.35,0,0,1-.38-.34.37.37,0,0,1,.35-.38,1.2,1.2,0,0,0,.62-.19,1.32,1.32,0,0,0,.41-.46l.09-.17a1.48,1.48,0,0,1-.63.13A1.59,1.59,0,0,1,234.7,310.14Zm.73,0a.87.87,0,0,0,1.73,0,.87.87,0,0,0-1.73,0Z" style="fill:#a6a6a6"></path><path d="M255.08,245.94H230.64a2.5,2.5,0,0,0-2.47,2.52v50.31a2.5,2.5,0,0,0,2.47,2.52h24.44a2.5,2.5,0,0,0,2.48-2.52V248.46A2.5,2.5,0,0,0,255.08,245.94Zm.93,51.28a2.31,2.31,0,0,1-2.22,2.39H231.93a2.31,2.31,0,0,1-2.22-2.39V250.37c0-2.7,1-2.83,2.22-2.83h4.38c.25,0,.46.29.46.65v.15c0,.84.46.85,1,.85h10.12c.57,0,1,0,1-.85v-.15c0-.36.21-.65.47-.65h4.37c1.23,0,2.22.36,2.22,2.83Z" style="fill:#263238"></path><path d="M256,250.37v46.85a2.31,2.31,0,0,1-2.22,2.39H231.93a2.31,2.31,0,0,1-2.22-2.39V250.37c0-2.7,1-2.83,2.22-2.83h4.38c.25,0,.46.29.46.65v.15c0,.84.46.85,1,.85h10.12c.57,0,1,0,1-.85v-.15c0-.36.21-.65.47-.65h4.37C255,247.54,256,247.9,256,250.37Z" style="fill:#fff"></path><path d="M256,250.37v46.85a2.31,2.31,0,0,1-2.22,2.39H231.93a2.31,2.31,0,0,1-2.22-2.39V250.37c0-2.7,1-2.83,2.22-2.83h4.38c.25,0,.46.29.46.65v.15c0,.84.46.85,1,.85h10.12c.57,0,1,0,1-.85v-.15c0-.36.21-.65.47-.65h4.37C255,247.54,256,247.9,256,250.37Z" style="fill:#455a64"></path><path d="M244.24,248.14h-2.76a.18.18,0,0,1-.17-.17h0a.17.17,0,0,1,.17-.17h2.76a.16.16,0,0,1,.17.17h0A.17.17,0,0,1,244.24,248.14Z" style="fill:#fff"></path><g style="opacity:0.1"><polygon points="256.01 268.86 256.01 269.25 229.71 295.55 229.71 295.16 256.01 268.86" style="fill:#fff"></polygon><polygon points="256.01 251.61 256.01 252 229.71 278.31 229.71 277.92 256.01 251.61" style="fill:#fff"></polygon><polygon points="256.01 290.68 256.01 293.31 249.72 299.61 247.07 299.61 256.01 290.68" style="fill:#fff"></polygon><polygon points="256.01 254.38 256.01 257.01 229.71 283.31 229.71 280.68 256.01 254.38" style="fill:#fff"></polygon><path d="M235.34,247.54l-5.63,5.63v-2.8c0-2.69,1-2.83,2.22-2.83Z" style="fill:#fff"></path><path d="M256,273.22v5.26l-21.12,21.13h-3a2.14,2.14,0,0,1-1.59-.72Z" style="fill:#fff"></path><path d="M244.24,248.14h-.18l.3-.3a.14.14,0,0,1,.06.12A.19.19,0,0,1,244.24,248.14Z" style="fill:#fff"></path><path d="M247.92,249.19h.37l-18.58,18.58v-5.27l13.3-13.3Z" style="fill:#fff"></path><path d="M249.93,247.54l-1,1a1.09,1.09,0,0,0,0-.19v-.15c0-.36.21-.65.46-.65Z" style="fill:#fff"></path></g><circle cx="475.22" cy="242.02" r="11.94" transform="translate(57.35 573.36) rotate(-65.4)" style="fill:#6582E4"></circle><path d="M469.82,243.23a.66.66,0,0,0-.19,0,2.27,2.27,0,0,0-.37,0l-.45.06a1.7,1.7,0,0,0-.45.15c-.38.2-.51.42-.37.68a.31.31,0,0,0,.16.16.58.58,0,0,0,.25.05,1.71,1.71,0,0,0,.36,0l.48-.1c.26,0,.49-.09.7-.11a1.89,1.89,0,0,1,.59,0,1.49,1.49,0,0,1,.49.24,1.57,1.57,0,0,1,.38.5,1.62,1.62,0,0,1,.19.73,1.55,1.55,0,0,1-.16.64,2.09,2.09,0,0,1-.43.52,2.79,2.79,0,0,1-.61.4,3.25,3.25,0,0,1-.54.23,3.83,3.83,0,0,1-.58.16,5.41,5.41,0,0,1-.58.07,2.6,2.6,0,0,1-.56,0V246.4l.23,0h.45a4.19,4.19,0,0,0,.56-.08,2.35,2.35,0,0,0,.56-.2c.38-.19.5-.4.39-.63a.33.33,0,0,0-.2-.17.93.93,0,0,0-.31,0l-.42.06-.51.1a4.37,4.37,0,0,1-.66.07,1.65,1.65,0,0,1-.52-.06,1.18,1.18,0,0,1-.41-.23,1.58,1.58,0,0,1-.31-.42,1.61,1.61,0,0,1-.19-.71,1.5,1.5,0,0,1,.13-.66,1.81,1.81,0,0,1,.39-.57,2.62,2.62,0,0,1,.6-.43,3.47,3.47,0,0,1,.5-.2,3.1,3.1,0,0,1,.51-.11,4.35,4.35,0,0,1,.48-.05h.44Z" style="fill:#fff"></path><path d="M471.52,240.65l1-.5,4.05,3.75-1.09.56-.89-.85-1.44.74.18,1.21-1.09.56ZM474,243l-1.38-1.36.28,1.92Z" style="fill:#fff"></path><path d="M477,243.67l-2.37-4.61,1.07-.55,1.89,3.68,2.23-1.15.48.93Z" style="fill:#fff"></path><path d="M483.56,239.11l.48.94-3.25,1.67-2.37-4.62,3.19-1.63.48.93L480,237.49l.46.9,1.82-.94.44.87-1.81.93.5,1Z" style="fill:#fff"></path><circle cx="387.23" cy="242.02" r="11.94" transform="translate(39.78 538.33) rotate(-72.46)" style="fill:#6582E4"></circle><path d="M381.83,243.23a.61.61,0,0,0-.19,0,2.26,2.26,0,0,0-.37,0l-.45.06a1.7,1.7,0,0,0-.45.15c-.38.2-.5.42-.37.68a.31.31,0,0,0,.16.16.62.62,0,0,0,.25.05,1.65,1.65,0,0,0,.36,0l.49-.1a6.7,6.7,0,0,1,.7-.11,1.82,1.82,0,0,1,.58,0,1.49,1.49,0,0,1,.49.24,1.57,1.57,0,0,1,.38.5,1.5,1.5,0,0,1,.19.73,1.41,1.41,0,0,1-.16.64,1.89,1.89,0,0,1-.43.52,2.73,2.73,0,0,1-.6.4,3.25,3.25,0,0,1-.54.23,4.18,4.18,0,0,1-.58.16c-.2,0-.39.06-.58.07a2.67,2.67,0,0,1-.57,0V246.4l.24,0h.44a4,4,0,0,0,.56-.08,2.2,2.2,0,0,0,.56-.2q.57-.28.39-.63a.32.32,0,0,0-.19-.17,1,1,0,0,0-.32,0l-.42.06-.51.1a4.13,4.13,0,0,1-.66.07,1.69,1.69,0,0,1-.52-.06,1.13,1.13,0,0,1-.4-.23,1.39,1.39,0,0,1-.31-.42,1.63,1.63,0,0,1-.2-.71,1.65,1.65,0,0,1,.13-.66,1.81,1.81,0,0,1,.39-.57,2.68,2.68,0,0,1,.61-.43,2.75,2.75,0,0,1,.5-.2,3.22,3.22,0,0,1,.5-.11,4.28,4.28,0,0,1,.49-.05h.43Z" style="fill:#fff"></path><path d="M383.54,240.65l1-.5,4.05,3.75-1.09.56-.89-.85-1.43.74.18,1.21-1.1.56ZM386,243l-1.38-1.36.29,1.92Z" style="fill:#fff"></path><path d="M389,243.67l-2.37-4.61,1.06-.55,1.89,3.68,2.24-1.15.48.93Z" style="fill:#fff"></path><path d="M395.57,239.11l.48.94-3.24,1.67-2.37-4.62,3.18-1.63.48.93L392,237.49l.46.9,1.82-.94.45.87-1.82.93.5,1Z" style="fill:#fff"></path><circle cx="299.25" cy="242.02" r="11.94" transform="translate(5.86 491.11) rotate(-79.3)" style="fill:#6582E4"></circle><path d="M293.84,243.23a.56.56,0,0,0-.19,0,2.15,2.15,0,0,0-.36,0l-.46.06a1.52,1.52,0,0,0-.44.15c-.39.2-.51.42-.38.68a.35.35,0,0,0,.16.16.67.67,0,0,0,.26.05,1.71,1.71,0,0,0,.36,0l.48-.1a6.7,6.7,0,0,1,.7-.11,1.9,1.9,0,0,1,.59,0,1.35,1.35,0,0,1,.48.24,1.43,1.43,0,0,1,.38.5,1.52,1.52,0,0,1,.2.73,1.42,1.42,0,0,1-.17.64,1.73,1.73,0,0,1-.43.52,2.73,2.73,0,0,1-.6.4,3.25,3.25,0,0,1-.54.23,3.83,3.83,0,0,1-.58.16,5.73,5.73,0,0,1-.58.07,2.6,2.6,0,0,1-.56,0V246.4l.23,0h.45a4.05,4.05,0,0,0,.55-.08,2.07,2.07,0,0,0,.56-.2q.57-.28.39-.63a.32.32,0,0,0-.19-.17,1,1,0,0,0-.31,0l-.42.06-.52.1a4.13,4.13,0,0,1-.66.07,1.73,1.73,0,0,1-.52-.06,1.13,1.13,0,0,1-.4-.23,1.39,1.39,0,0,1-.31-.42,1.61,1.61,0,0,1-.19-.71,1.49,1.49,0,0,1,.12-.66,1.84,1.84,0,0,1,.4-.57,2.42,2.42,0,0,1,.6-.43,3.07,3.07,0,0,1,.5-.2,3.1,3.1,0,0,1,.51-.11,4.12,4.12,0,0,1,.48-.05h.43Z" style="fill:#fff"></path><path d="M295.55,240.65l1-.5,4.05,3.75-1.09.56-.88-.85-1.44.74.18,1.21-1.09.56ZM298,243l-1.37-1.36.28,1.92Z" style="fill:#fff"></path><path d="M301,243.67l-2.37-4.61,1.07-.55,1.88,3.68,2.24-1.15.48.93Z" style="fill:#fff"></path><path d="M307.58,239.11l.48.94-3.24,1.67-2.37-4.62,3.18-1.63.48.93L304,237.49l.46.9,1.82-.94.44.87-1.82.93.51,1Z" style="fill:#fff"></path><circle cx="211.26" cy="242.02" r="11.94" transform="translate(-83.17 370.53) rotate(-72.46)" style="fill:#6582E4"></circle><path d="M205.85,243.23a.53.53,0,0,0-.18,0,2.27,2.27,0,0,0-.37,0l-.46.06a1.76,1.76,0,0,0-.44.15c-.38.2-.51.42-.38.68a.33.33,0,0,0,.17.16.58.58,0,0,0,.25.05,1.71,1.71,0,0,0,.36,0l.48-.1c.25,0,.49-.09.7-.11a1.89,1.89,0,0,1,.59,0,1.49,1.49,0,0,1,.49.24,1.57,1.57,0,0,1,.38.5,1.62,1.62,0,0,1,.19.73,1.55,1.55,0,0,1-.16.64,2.09,2.09,0,0,1-.43.52,3.06,3.06,0,0,1-.61.4,3.25,3.25,0,0,1-.54.23,3.83,3.83,0,0,1-.58.16,5.41,5.41,0,0,1-.58.07,2.6,2.6,0,0,1-.56,0V246.4l.23,0h.45a3.84,3.84,0,0,0,.55-.08,2.27,2.27,0,0,0,.57-.2q.56-.28.39-.63a.33.33,0,0,0-.2-.17.93.93,0,0,0-.31,0l-.42.06-.51.1a4.37,4.37,0,0,1-.66.07,1.65,1.65,0,0,1-.52-.06,1.18,1.18,0,0,1-.41-.23,1.39,1.39,0,0,1-.31-.42,1.61,1.61,0,0,1-.19-.71,1.5,1.5,0,0,1,.13-.66,1.81,1.81,0,0,1,.39-.57,2.42,2.42,0,0,1,.6-.43,3.07,3.07,0,0,1,.5-.2,3.1,3.1,0,0,1,.51-.11,4.35,4.35,0,0,1,.48-.05h.44Z" style="fill:#fff"></path><path d="M207.56,240.65l1-.5,4.05,3.75-1.09.56-.89-.85-1.44.74.18,1.21-1.09.56Zm2.49,2.32-1.38-1.36.28,1.92Z" style="fill:#fff"></path><path d="M213,243.67l-2.37-4.61,1.07-.55,1.89,3.68,2.23-1.15.48.93Z" style="fill:#fff"></path><path d="M219.6,239.11l.48.94-3.25,1.67-2.37-4.62,3.19-1.63.48.93L216,237.49l.46.9,1.82-.94.44.87-1.82.93.51,1Z" style="fill:#fff"></path><rect x="188.25" y="106.48" width="373.18" height="121.25" style="fill:#6582E4"></rect><polygon points="453.68 172.68 398.84 172.68 398.84 172.16 453.51 172.16 483.28 150.35 561.43 150.35 561.43 150.86 483.45 150.86 453.68 172.68" style="fill:#fff"></polygon><path d="M396.94,174.61a2.19,2.19,0,1,1,2.19-2.19A2.2,2.2,0,0,1,396.94,174.61Zm0-3.87a1.68,1.68,0,1,0,1.68,1.68A1.69,1.69,0,0,0,396.94,170.74Z" style="fill:#fff"></path><polygon points="457.27 178.29 442.71 178.29 442.71 177.78 457.11 177.78 486.88 155.97 561.43 155.97 561.43 156.48 487.05 156.48 457.27 178.29" style="fill:#fff"></polygon><path d="M440.8,180.23A2.19,2.19,0,1,1,443,178,2.19,2.19,0,0,1,440.8,180.23Zm0-3.87a1.68,1.68,0,1,0,1.69,1.68A1.68,1.68,0,0,0,440.8,176.36Z" style="fill:#fff"></path><rect x="462.36" y="144.94" width="99.08" height="0.51" style="fill:#fff"></rect><path d="M460.42,147.39a2.2,2.2,0,1,1,2.19-2.2A2.21,2.21,0,0,1,460.42,147.39Zm0-3.88a1.69,1.69,0,1,0,1.68,1.68A1.69,1.69,0,0,0,460.42,143.51Z" style="fill:#fff"></path><polygon points="561.43 140.24 492.35 140.24 492.29 140.21 464.42 125.43 363.39 125.43 363.39 124.92 464.54 124.92 464.6 124.95 492.48 139.73 561.43 139.73 561.43 140.24" style="fill:#fff"></polygon><path d="M361.45,127.37a2.2,2.2,0,1,1,2.2-2.2A2.2,2.2,0,0,1,361.45,127.37Zm0-3.88a1.69,1.69,0,1,0,1.68,1.68A1.68,1.68,0,0,0,361.45,123.49Z" style="fill:#fff"></path><polygon points="561.43 135.06 495.33 135.06 495.27 135.02 464.45 117.6 431.54 117.6 431.54 117.09 464.58 117.09 464.64 117.12 495.46 134.55 561.43 134.55 561.43 135.06" style="fill:#fff"></polygon><path d="M429.6,119.54a2.2,2.2,0,1,1,2.19-2.2A2.21,2.21,0,0,1,429.6,119.54Zm0-3.88a1.69,1.69,0,1,0,1.68,1.68A1.69,1.69,0,0,0,429.6,115.66Z" style="fill:#fff"></path><polygon points="266.4 183.85 188.25 183.85 188.25 183.34 266.24 183.34 296.01 161.53 342.68 161.53 342.68 162.03 296.18 162.03 266.4 183.85" style="fill:#fff"></polygon><path d="M344.58,164a2.19,2.19,0,1,1,2.2-2.19A2.2,2.2,0,0,1,344.58,164Zm0-3.87a1.68,1.68,0,1,0,1.69,1.68A1.68,1.68,0,0,0,344.58,160.1Z" style="fill:#fff"></path><polygon points="262.81 178.23 188.25 178.23 188.25 177.72 262.64 177.72 292.41 155.91 306.98 155.91 306.98 156.42 292.58 156.42 262.81 178.23" style="fill:#fff"></polygon><path d="M308.88,158.35a2.19,2.19,0,1,1,2.19-2.19A2.19,2.19,0,0,1,308.88,158.35Zm0-3.87a1.68,1.68,0,1,0,1.68,1.68A1.68,1.68,0,0,0,308.88,154.48Z" style="fill:#fff"></path><rect x="188.25" y="188.75" width="101.12" height="0.51" style="fill:#fff"></rect><path d="M291.31,191.2A2.2,2.2,0,1,1,293.5,189,2.2,2.2,0,0,1,291.31,191.2Zm0-3.88a1.69,1.69,0,1,0,0,3.37,1.69,1.69,0,0,0,0-3.37Z" style="fill:#fff"></path><polygon points="386.3 209.28 285.14 209.28 257.21 194.47 188.25 194.47 188.25 193.96 257.33 193.96 285.27 208.77 386.3 208.77 386.3 209.28" style="fill:#fff"></polygon><path d="M388.23,211.22a2.2,2.2,0,1,1,2.2-2.19A2.19,2.19,0,0,1,388.23,211.22Zm0-3.88a1.69,1.69,0,1,0,1.69,1.69A1.69,1.69,0,0,0,388.23,207.34Z" style="fill:#fff"></path><polygon points="318.15 217.11 285.1 217.11 285.04 217.08 254.22 199.65 188.25 199.65 188.25 199.14 254.35 199.14 254.41 199.18 285.24 216.6 318.15 216.6 318.15 217.11" style="fill:#fff"></polygon><path d="M320.09,219.05a2.2,2.2,0,1,1,2.19-2.19A2.2,2.2,0,0,1,320.09,219.05Zm0-3.88a1.69,1.69,0,1,0,1.68,1.69A1.69,1.69,0,0,0,320.09,215.17Z" style="fill:#fff"></path><path d="M261.21,154a24.34,24.34,0,0,1,1.64-8.67,23.52,23.52,0,0,1,4.76-7.72,24.32,24.32,0,0,1,7.62-5.52,23.78,23.78,0,0,1,10.2-2.1,23,23,0,0,1,11.81,2.92,19,19,0,0,1,7.45,7.62l-8.58,6a9.9,9.9,0,0,0-2.07-3.17,11.46,11.46,0,0,0-2.76-2,11.32,11.32,0,0,0-3.06-1.09,16.18,16.18,0,0,0-3.06-.3,11.55,11.55,0,0,0-5.58,1.29,12.28,12.28,0,0,0-3.94,3.33,13.91,13.91,0,0,0-2.32,4.63,18.69,18.69,0,0,0-.74,5.24,17.32,17.32,0,0,0,.88,5.51,14.67,14.67,0,0,0,2.55,4.69,12.4,12.4,0,0,0,4,3.24A11.51,11.51,0,0,0,285.3,169a13.52,13.52,0,0,0,3.09-.38,12.06,12.06,0,0,0,3.06-1.16,10.69,10.69,0,0,0,2.69-2,9.26,9.26,0,0,0,2-3.09l9.12,5.37a14.3,14.3,0,0,1-3.23,4.77,20,20,0,0,1-4.93,3.53A27.07,27.07,0,0,1,285,179a21.73,21.73,0,0,1-9.63-2.14,24.33,24.33,0,0,1-7.55-5.69,25.94,25.94,0,0,1-4.9-8A25.06,25.06,0,0,1,261.21,154Z" style="fill:#fff"></path><path d="M317.27,130.24l10.41,22.18,10.55-22.18H350.4l-17.21,31.84v16.46H322.1v-16.6l-16.94-31.7Z" style="fill:#fff"></path><path d="M394.83,166.16a10.87,10.87,0,0,1-1.3,5.44,11.27,11.27,0,0,1-3.53,3.84,16.58,16.58,0,0,1-5.24,2.32,25.06,25.06,0,0,1-6.33.78H354.89v-48.3h26.87a9.48,9.48,0,0,1,4.56,1.09,11.22,11.22,0,0,1,3.47,2.82A12.74,12.74,0,0,1,392,138.1a13.48,13.48,0,0,1,.79,4.52,13,13,0,0,1-1.74,6.53,11,11,0,0,1-5.2,4.63,12.44,12.44,0,0,1,6.56,4.35A12.77,12.77,0,0,1,394.83,166.16Zm-28.78-26.4v10H377a4.9,4.9,0,0,0,3.27-1.22,4.77,4.77,0,0,0,1.43-3.81,5.07,5.07,0,0,0-1.26-3.68,4.08,4.08,0,0,0-3-1.29Zm17.42,24.15a5.83,5.83,0,0,0-1.3-3.81,4.06,4.06,0,0,0-3.26-1.56H366.05v10.54h12.38a4.91,4.91,0,0,0,3.61-1.42A5.09,5.09,0,0,0,383.47,163.91Z" style="fill:#fff"></path><path d="M435.37,168.74v9.8H401.42v-48.3h33.34V140H412.58v9.39h19.05v9.05H412.58v10.27Z" style="fill:#fff"></path><path d="M442.18,178.54v-48.3H464a13.93,13.93,0,0,1,6.29,1.43,16.72,16.72,0,0,1,5,3.74,17.74,17.74,0,0,1,3.3,5.24,15.64,15.64,0,0,1,1.19,5.92,17,17,0,0,1-2.11,8.23,14.69,14.69,0,0,1-5.78,5.78l10.61,18H469.86L460.61,163h-7.28v15.58Zm11.15-25.31h10.21a4.18,4.18,0,0,0,3.4-1.87,7.68,7.68,0,0,0,1.43-4.79,6.8,6.8,0,0,0-1.63-4.77A4.79,4.79,0,0,0,463.2,140h-9.87Z" style="fill:#fff"></path><path d="M309.37,168.39h2.2v35.13h-2.2v-17.1l-2.1,17.1H305l-2.11-17.1v17.1h-2.19V168.39h2.19l3.25,26.14Z" style="fill:#263238"></path><path d="M329.12,172.16a3.73,3.73,0,0,1,.17-1.62,2.87,2.87,0,0,1,.79-1.23,4.37,4.37,0,0,1,1.32-.75,4.9,4.9,0,0,1,1.84-.31,3.65,3.65,0,0,1,2.85,1.06,3.77,3.77,0,0,1,1.27,2.85V199.8a3.59,3.59,0,0,1-1.27,2.8,3.65,3.65,0,0,1-2.85,1.06,5.88,5.88,0,0,1-1.84-.27,3.61,3.61,0,0,1-1.32-.79,3,3,0,0,1-.79-1.18,3.84,3.84,0,0,1-.17-1.62Zm6,0a1.91,1.91,0,0,0-.48-1.41,1.8,1.8,0,0,0-1.45-.61,1.55,1.55,0,0,0-1.35.61,1.85,1.85,0,0,0-.44,1.41v27.59a2,2,0,0,0,.44,1.45,1.53,1.53,0,0,0,1.35.57,1.78,1.78,0,0,0,1.45-.57,2.09,2.09,0,0,0,.48-1.45Z" style="fill:#263238"></path><path d="M361,168.39h2.19v35.13H361l-3.87-22.24v22.24h-2.19V168.39h2.19L361,190.63Z" style="fill:#263238"></path><path d="M384.61,168.43a4.37,4.37,0,0,1,3.16,1,3.65,3.65,0,0,1,1.19,2.85v27.29a3.71,3.71,0,0,1-1.19,2.85,4.37,4.37,0,0,1-3.16,1.05h-3.9V168.43Zm0,33.21a2.13,2.13,0,0,0,1.58-.57,2.34,2.34,0,0,0,.53-1.45V172.33a2.12,2.12,0,0,0-.53-1.44,2.34,2.34,0,0,0-1.58-.62H382.9v31.37Z" style="fill:#263238"></path><path d="M412.65,203.52l-.53-6h-2.9l-.52,6h-2.2l3.08-35.13h2.19l3.07,35.13Zm-3.21-8.2h2.5l-1.27-14.26Z" style="fill:#263238"></path><path d="M441.78,168.39,438.18,186v17.54H436V185.93l-3.6-17.54h2.19l2.5,12.19,2.5-12.19Z" style="fill:#263238"></path><rect x="316.66" y="167.56" width="10.22" height="1.75" style="fill:#fff"></rect><rect x="330.02" y="134.32" width="10.22" height="1.75" style="fill:#fff"></rect><rect x="456.99" y="165.35" width="10.22" height="1.75" style="fill:#6582E4"></rect><rect x="428.62" y="152.1" width="10.22" height="1.75" style="fill:#fff"></rect><rect x="396.32" y="144.76" width="10.22" height="1.75" style="fill:#6582E4"></rect><rect x="363.39" y="143.89" width="10.22" height="1.75" style="fill:#6582E4"></rect><rect x="269.91" y="157.48" width="10.22" height="1.75" style="fill:#6582E4"></rect><rect x="348.82" y="164.58" width="10.22" height="1.75" style="fill:#fff"></rect><rect x="470.11" y="133.45" width="10.22" height="1.75" style="fill:#6582E4"></rect><rect x="478.65" y="174.97" width="10.22" height="1.75" style="fill:#fff"></rect><rect x="437.89" y="138.49" width="10.22" height="1.75" style="fill:#fff"></rect><rect x="384.81" y="133.45" width="10.22" height="1.75" style="fill:#fff"></rect><rect x="408.64" y="162.94" width="10.22" height="1.75" style="fill:#6582E4"></rect><rect x="335.13" y="152.38" width="10.22" height="1.75" style="fill:#6582E4"></rect><rect x="253.2" y="150.64" width="10.22" height="1.75" style="fill:#fff"></rect></g><g id="freepik--character-1--inject-38"><polygon points="472.45 433.74 472.36 431.94 567.21 427.07 560.18 384.8 561.95 384.51 569.32 428.76 472.45 433.74" style="fill:#c7c7c7"></polygon><circle cx="477.84" cy="437.83" r="9.92" transform="translate(-64.14 82.47) rotate(-9.25)" style="fill:#37474f"></circle><path d="M473.32,437.83a4.52,4.52,0,1,0,4.52-4.52A4.52,4.52,0,0,0,473.32,437.83Z" style="fill:#ebebeb"></path><circle cx="553.84" cy="437.83" r="9.92" transform="translate(-63.15 94.68) rotate(-9.25)" style="fill:#37474f"></circle><path d="M549.32,437.83a4.52,4.52,0,1,0,4.52-4.52A4.52,4.52,0,0,0,549.32,437.83Z" style="fill:#ebebeb"></path><polygon points="489.43 444.68 489.33 442.88 584.19 438 574.97 382.57 576.74 382.28 586.29 439.7 489.43 444.68" style="fill:#c7c7c7"></polygon><circle cx="494.81" cy="448.77" r="9.92" transform="translate(-118.88 712.61) rotate(-65.47)" style="fill:#37474f"></circle><path d="M490.3,448.77a4.52,4.52,0,1,0,4.51-4.52A4.52,4.52,0,0,0,490.3,448.77Z" style="fill:#ebebeb"></path><circle cx="570.81" cy="448.77" r="9.92" transform="translate(19.86 921.7) rotate(-78.82)" style="fill:#37474f"></circle><path d="M566.3,448.77a4.52,4.52,0,1,0,4.51-4.52A4.52,4.52,0,0,0,566.3,448.77Z" style="fill:#ebebeb"></path><path d="M469.06,379.14,455.2,316l94.45-15.26,1,66-.77.12Zm-11.7-61.7,13.1,59.67,78.32-11.95-.9-62.34Z" style="fill:#a6a6a6"></path><rect x="482.38" y="312.75" width="1.8" height="62.95" transform="translate(-47.37 78.79) rotate(-8.89)" style="fill:#a6a6a6"></rect><rect x="506.27" y="308.85" width="1.8" height="63.23" transform="translate(-34.27 57.66) rotate(-6.29)" style="fill:#a6a6a6"></rect><rect x="528.87" y="305.35" width="1.8" height="63.44" transform="translate(-14.05 23.17) rotate(-2.47)" style="fill:#a6a6a6"></rect><rect x="460.16" y="328.75" width="90.25" height="1.8" transform="translate(-50.65 95.31) rotate(-10.26)" style="fill:#a6a6a6"></rect><rect x="464.9" y="350.92" width="85.26" height="1.8" transform="translate(-46.18 78.38) rotate(-8.45)" style="fill:#a6a6a6"></rect><path d="M501.79,392.86l-32.74-13.7-.1-.46-13.82-63.05,40.64,16.68Zm-31.18-15L499.7,390l-5.61-56.45-36.47-15Z" style="fill:#dbdbdb"></path><rect x="472.34" y="321.15" width="1.8" height="61.22" transform="translate(-53.73 87.2) rotate(-9.97)" style="fill:#dbdbdb"></rect><rect x="484.64" y="326.93" width="1.8" height="60.11" transform="translate(-45.46 71.99) rotate(-8.1)" style="fill:#dbdbdb"></rect><rect x="481.71" y="351.39" width="1.8" height="34.88" transform="translate(-24.83 702.68) rotate(-70.73)" style="fill:#dbdbdb"></rect><rect x="477.97" y="325.83" width="1.8" height="38.69" transform="translate(-18.47 663.15) rotate(-68.38)" style="fill:#dbdbdb"></rect><path d="M589,382.09l-40.24-15.55V300.66l61.44,17.82Zm-38.44-16.78,37.33,14.42,20-60-57.34-16.63Z" style="fill:#dbdbdb"></path><rect x="574.75" y="303.76" width="1.8" height="55.58" transform="translate(60.16 750.56) rotate(-69.05)" style="fill:#dbdbdb"></rect><rect x="571.05" y="330.61" width="1.8" height="48.07" transform="translate(27.54 750.26) rotate(-67.81)" style="fill:#dbdbdb"></rect><rect x="534.19" y="338.21" width="63.52" height="1.8" transform="translate(155.19 855.42) rotate(-82.42)" style="fill:#dbdbdb"></rect><rect x="550.99" y="343.92" width="64.1" height="1.8" transform="translate(118.52 837.83) rotate(-77.31)" style="fill:#dbdbdb"></rect><rect x="530.69" y="275.43" width="53.29" height="1.8" transform="translate(132.64 730.89) rotate(-73.32)" style="fill:#dbdbdb"></rect><rect x="588.11" y="290.05" width="58.48" height="1.8" transform="translate(161.42 798.79) rotate(-73.32)" style="fill:#dbdbdb"></rect><rect x="593.65" y="221.68" width="3.6" height="70.37" transform="translate(223.81 788.3) rotate(-78.37)" style="fill:#263238"></rect><path d="M566.36,292.8a37.13,37.13,0,0,0,7.26,3.16c-4.24-5.26-4.76-18-4.14-16.23,2.94,8.44,9.9,17.33,12.27,17.58h0a30.22,30.22,0,0,0,16.49-4.7l0,0c-5.4-5.89-6.31-18.8-5.91-18,4.28,8.08,12.06,12.3,13.33,12.17h0c4.38-4.44,6.54-8.66,5.83-9-5.15-2.48-10-9.67-14.42-17.34h0c-4.39-7.55-7.61-19.13-13.44-25.69-5.34-6-15-6.34-20.13-2.53C550.07,242.13,563.15,291,566.36,292.8Z" style="fill:#c95d4c"></path><path d="M564.45,231.52a9.66,9.66,0,0,0-3,2.58,20.67,20.67,0,0,0-2.06,3.22,32.78,32.78,0,0,0-2.45,7c-1.15,4.79-.62,13.94-.31,18.78a75.51,75.51,0,0,0,2.56,14.3c.3,1.18.69,2.33,1,3.49l1.16,3.46,1.31,3.41,1.42,3.36L563,287.71l-1.11-3.46-1-3.47c-.3-1.17-.65-2.33-.91-3.5a82.1,82.1,0,0,1-2.35-14.22c-.38-4.79-.89-13.86.08-18.62a33,33,0,0,1,2.17-7,20.64,20.64,0,0,1,1.86-3.25,15.33,15.33,0,0,1,1.23-1.46A7.06,7.06,0,0,1,564.45,231.52Z" style="fill:#c95d4c"></path><path d="M612,276.35a63.17,63.17,0,0,1-4.61-4.65c-1.46-1.6-2.86-3.25-4.16-4.95s-2.55-3.45-3.66-5.25-2.16-3.67-3.25-5.5c-2.21-3.65-5.12-11.53-7.58-15.06-1.24-1.76-2.52-3.5-3.93-5.16a28.29,28.29,0,0,0-2.28-2.37,8,8,0,0,0-2.81-1.84,8.52,8.52,0,0,1,2.63,2,27,27,0,0,1,2.09,2.47c1.33,1.69,2.53,3.46,3.69,5.25,2.33,3.58,5.23,11.45,7.38,15.13,1.12,1.82,2.18,3.65,3.33,5.47a53.81,53.81,0,0,0,3.81,5.24A60.55,60.55,0,0,0,612,276.35Z" style="fill:#c95d4c"></path><path d="M560.13,274.58c-16.74-1.16-36.75-8-40.84-13.24-1.62-2.08-14.65-18.51-18.17-25.22-1.45-2.77,19.72-18.12,20.88-15,1.31,3.53,12.49,25.17,13.12,25.84,1.84,2,17.41,12,28,17.81C576,271.85,566.8,275,560.13,274.58Z" style="fill:#eb9481"></path><path d="M531.22,269.24l10.35-18.77s17.64,9.29,25.12,15.17c6.1,4.8,4.7,9.79-6.11,9.33C550.33,274.53,531.22,269.24,531.22,269.24Z" style="fill:#c7c7c7"></path><path d="M536.5,268a133.55,133.55,0,0,1,7.73-14.65c0-.06.13,0,.1.06-.75,1.26-4.34,8.79-7.73,14.65C536.56,268.13,536.47,268.07,536.5,268Z" style="fill:#263238"></path><path d="M561.45,271.51a1.31,1.31,0,1,1-1.3-1.31A1.3,1.3,0,0,1,561.45,271.51Zm-13.53-1.31a1.31,1.31,0,1,0,1.3,1.31A1.3,1.3,0,0,0,547.92,270.2Zm-12.23,0a1.28,1.28,0,0,0-.48.09l1.48.37A1.32,1.32,0,0,0,535.69,270.2Zm12.23-16a1.31,1.31,0,1,0,1.3,1.3A1.3,1.3,0,0,0,547.92,254.15Zm17.37,10.43a1.23,1.23,0,0,0,.46.35ZM554,262.41a1.31,1.31,0,1,0,1.31,1.31A1.31,1.31,0,0,0,554,262.41Zm-12.23,0a1.31,1.31,0,1,0,1.31,1.31A1.31,1.31,0,0,0,541.8,262.41Z" style="fill:#fff"></path><path d="M560.58,275c-7.68-.33-20.34-3.38-26.2-4.9L568.21,267C572.44,271.33,570.37,275.39,560.58,275Z" style="fill:#263238"></path><path d="M492.89,228.32c2.93,4.48,12.52,11.3,15.46,12.05s15.08-15.15,14.27-18.16-11.85-17.34-17-19S489.85,223.68,492.89,228.32Z" style="fill:#eb9481"></path><polygon points="534.34 276.11 487.41 280.4 489.88 231.98 523.12 228.93 534.34 276.11" style="fill:#6582E4"></polygon><polygon points="523.12 228.93 522.28 277.21 534.34 276.11 523.12 228.93" style="fill:#6582E4"></polygon><polygon points="523.12 228.93 522.28 277.21 534.34 276.11 523.12 228.93" style="fill:#a6a6a6;opacity:0.1"></polygon><polygon points="523.12 228.93 522.28 277.21 534.34 276.11 523.12 228.93" style="opacity:0.1"></polygon><path d="M522.88,276.79c.9-.78,1.85-1.5,2.79-2.22s1.9-1.4,2.87-2.08l.14-.09.13.08c.85.52,1.7,1,2.53,1.6s1.66,1.11,2.46,1.7c-.9-.43-1.78-.9-2.65-1.39s-1.74-1-2.59-1.49h.27c-1,.69-1.94,1.36-2.93,2S523.91,276.2,522.88,276.79Z" style="fill:#fff"></path><path d="M528.69,272.69c-.49-3-.92-6.06-1.34-9.1s-.81-6.08-1.21-9.12-.75-6.09-1.09-9.13l-.51-4.58c-.15-1.52-.32-3-.45-4.58.25,1.52.46,3,.69,4.55l.65,4.56c.42,3,.8,6.08,1.21,9.12s.74,6.08,1.09,9.13S528.41,269.64,528.69,272.69Z" style="fill:#fff"></path><path d="M498.5,235.58l-2-.3c0-.06.83-5.49,1.73-11,1-5.94,6.58-9,11.44-8.48,3.64.38,7.81,3,7.55,9-.27,6.48-.58,9.54-.59,9.66l-2-.2s.32-3.14.59-9.54c.19-4.65-2.84-6.62-5.75-6.92a8.42,8.42,0,0,0-9.26,6.81C499.33,230.1,498.5,235.53,498.5,235.58Z" style="fill:#263238"></path><path d="M500.17,235.27a2.67,2.67,0,1,1-2.82-2.51A2.67,2.67,0,0,1,500.17,235.27Z" style="fill:#263238"></path><path d="M518.1,234.23a2.67,2.67,0,1,1-2.82-2.51A2.67,2.67,0,0,1,518.1,234.23Z" style="fill:#263238"></path><polygon points="540.16 265.43 499.34 277.16 493.35 233.87 522.26 225.56 540.16 265.43" style="fill:#455a64"></polygon><polygon points="522.26 225.56 529.67 268.44 540.16 265.43 522.26 225.56" style="fill:#37474f"></polygon><path d="M530.14,268c.66-.84,1.37-1.63,2.09-2.43s1.45-1.57,2.19-2.33l.1-.1.14,0c.84.31,1.68.63,2.5,1s1.66.7,2.47,1.09c-.87-.23-1.73-.5-2.58-.79s-1.7-.57-2.55-.88l.24-.05q-1.1,1.15-2.25,2.28C531.72,266.53,531,267.27,530.14,268Z" style="fill:#fff"></path><path d="M534.58,263.35c-.94-2.59-1.84-5.21-2.72-7.83s-1.74-5.24-2.61-7.87-1.69-5.26-2.51-7.9l-1.22-4c-.39-1.33-.8-2.65-1.18-4,.48,1.3.93,2.61,1.39,3.91l1.34,3.93c.89,2.61,1.74,5.24,2.61,7.86s1.69,5.27,2.51,7.91S533.82,260.7,534.58,263.35Z" style="fill:#fff"></path><path d="M501.38,235.88l-1.84.13s-.36-5.08-.67-10.17A9.57,9.57,0,0,1,507.4,216c3.32-.4,7.56,1.07,8.56,6.52,1.06,5.84,1.4,8.64,1.41,8.76l-1.83.22s-.34-2.87-1.39-8.65c-.77-4.19-3.88-5.34-6.53-5a7.71,7.71,0,0,0-6.91,7.94C501,230.81,501.37,235.83,501.38,235.88Z" style="fill:#263238"></path><path d="M502.81,235.27a2.45,2.45,0,1,1-3-1.68A2.46,2.46,0,0,1,502.81,235.27Z" style="fill:#263238"></path><path d="M518.63,230.72a2.45,2.45,0,1,1-3-1.67A2.45,2.45,0,0,1,518.63,230.72Z" style="fill:#263238"></path><path d="M510.14,206.32c.81,2.72-2.86,2.11-2.86,2.11s5.07,2.15,4.81,5.27-4.65,2.13-5,2.07c.27.11,4.87,2.21,4.3,5.32s-4.88,1.59-5.15,1.48c.22.19,3.06,2.73,2.08,5-1.68,3.89-9.12-2.41-12.53-2,0,0,.07,5.85,0,6,0,0-7.2-5.85-7.52-10.48a3,3,0,0,1,2.08-3.08s-2.53-1.63-2.16-4.1c.2-1.26,2.4-2.07,2.4-2.07a3.72,3.72,0,0,1-1.5-3.57c.37-1.73,2.52-2.28,2.52-2.28s-1.27-2.21-.31-3.86C493.28,198.85,508.41,200.49,510.14,206.32Z" style="fill:#eb9481"></path><path d="M492,205.91c-.05,0-.06-.08,0-.08a26.4,26.4,0,0,1,15.49,2.61c.15.08.08.36-.1.3A54.05,54.05,0,0,0,492,205.91Z" style="fill:#263238"></path><path d="M490.58,211.85c-.06,0-.06-.1,0-.11a24.71,24.71,0,0,1,16.72,3.9c.17.12.2.4,0,.28C503.85,213.86,495.5,212,490.58,211.85Z" style="fill:#263238"></path><path d="M506.53,222.93c-4.85-3.14-10.21-4.4-15.91-4.91-.07,0-.06-.11,0-.13,2.85-.51,6.45.2,9.2,1a15.2,15.2,0,0,1,6.81,3.89C506.71,222.83,506.63,223,506.53,222.93Z" style="fill:#263238"></path><path d="M507.28,208.43a18.13,18.13,0,0,1,2.65,1.75,5.77,5.77,0,0,1,1.88,2.37,1.85,1.85,0,0,1,0,1.37,2.73,2.73,0,0,1-.85,1.13,3.41,3.41,0,0,1-2.72.45l-2.28-.49,2,1.25a9.43,9.43,0,0,1,2.32,2,3.42,3.42,0,0,1,.88,2.64,2,2,0,0,1-1.74,1.72,5.85,5.85,0,0,1-2.91-.51l-2.54-1.05,2.05,1.82a8.83,8.83,0,0,1,1.5,1.72,3.62,3.62,0,0,1,.7,2,1.75,1.75,0,0,1-1,1.57,3.83,3.83,0,0,1-2.16.07,30.87,30.87,0,0,1-4.54-1.49c-.76-.29-1.52-.57-2.29-.82a5.61,5.61,0,0,0-2.39-.38,6,6,0,0,1,2.31.59c.75.3,1.48.64,2.21,1a25.07,25.07,0,0,0,4.56,1.77,4.51,4.51,0,0,0,2.6,0,2.47,2.47,0,0,0,1.52-2.26,4.49,4.49,0,0,0-.81-2.51,9.48,9.48,0,0,0-1.64-1.94l-.49.77a6.82,6.82,0,0,0,3.42.63,2.82,2.82,0,0,0,1.72-.83,3.28,3.28,0,0,0,.81-1.7,4.32,4.32,0,0,0-1.12-3.35,10.46,10.46,0,0,0-2.58-2.2l-.31.77a4.11,4.11,0,0,0,3.34-.74,3.43,3.43,0,0,0,1-1.44,2.45,2.45,0,0,0-.05-1.75A5.91,5.91,0,0,0,510.1,210,14.28,14.28,0,0,0,507.28,208.43Z" style="fill:#263238"></path><path d="M522,221.13s-10.4-25.86-16.68-18.21c-1.87,2.27-6.82,13.82-4.51,14.86,3,1.34,5.93-3.1,7.35-6.18,0,0,2.22,7.49,7.89,7.5A10,10,0,0,1,522,221.13Z" style="fill:#eb9481"></path><path d="M505.88,202.31a12,12,0,0,0-2.12,2.74,24.42,24.42,0,0,0-1.58,3.1,39.37,39.37,0,0,0-2.28,6.58,6.46,6.46,0,0,0-.19,1.84,2.44,2.44,0,0,0,.28,1,1.56,1.56,0,0,0,.35.46,1.61,1.61,0,0,0,.48.32,2.91,2.91,0,0,0,2,.1,5.58,5.58,0,0,0,1.67-.89,10.41,10.41,0,0,0,2.35-2.71,23.71,23.71,0,0,0,1.66-3.1l-.76-.06a14.5,14.5,0,0,0,1.09,2.44,13,13,0,0,0,1.51,2.17,8.89,8.89,0,0,0,2,1.71,6.71,6.71,0,0,0,2.42.94,7.89,7.89,0,0,1-2.27-1.17,9.48,9.48,0,0,1-1.77-1.81,12.39,12.39,0,0,1-1.32-2.15,13.07,13.07,0,0,1-.89-2.34l-.27-1-.48.93a25.77,25.77,0,0,1-1.69,2.94,10.27,10.27,0,0,1-2.18,2.45,2.87,2.87,0,0,1-2.7.68c-.74-.27-.65-1.53-.44-2.59a33.11,33.11,0,0,1,.87-3.28c.33-1.1.68-2.19,1.08-3.25A22,22,0,0,1,505.88,202.31Z" style="fill:#263238"></path><path d="M449.89,373.79c-4.2,5.16-7.78,9.52-8.81,10.68,0,0-7.23,7.82-7.56,7.82-2.43-.39-45.4-36.32-46.4-38.07s3.89-4.72,6.59-4.58a75.17,75.17,0,0,1,9.17,2.35h0c7,2,14.78,4.69,14.78,4.69l4.72-6.17Z" style="fill:#ebebeb"></path><path d="M386.9,354.19c1.07,1.78,44,38.31,46.49,38.66,1,.15,6.63-5.79,13.29-13.16l.2-.23-27.42-23.88-.39.48s-22.66-6.64-25.47-6.73S385.83,352.42,386.9,354.19Z" style="fill:#6582E4"></path><path d="M388.8,352.94c7.38,6,36.6,30.8,43.45,37.27.06.05,0,.09,0,0-7.45-5.76-36.46-30.82-43.51-37.19C388.55,352.92,388.64,352.81,388.8,352.94Z" style="fill:#263238"></path><path d="M416.31,353c3.3,1.89,6.41,5.29,6.86,9.17,0,.15-.19.17-.26.06a52.65,52.65,0,0,0-6.89-8.86A.24.24,0,0,1,416.31,353Z" style="fill:#263238"></path><path d="M413.21,352.53c3.3,1.89,6.41,5.29,6.86,9.17,0,.15-.2.17-.27.06a52.13,52.13,0,0,0-6.89-8.86A.24.24,0,0,1,413.21,352.53Z" style="fill:#263238"></path><path d="M410.1,352c3.3,1.89,6.41,5.29,6.86,9.17,0,.15-.19.17-.26.06a53.17,53.17,0,0,0-6.89-8.86A.24.24,0,0,1,410.1,352Z" style="fill:#263238"></path><path d="M415.72,348.82c.68,3.28,2.76,6.15,4.37,9a.46.46,0,0,0,.75,0,.09.09,0,0,0,.15,0,19.9,19.9,0,0,0,1.16-10.25c-.34-2-1.83-4.47-4.26-3.88S415.32,346.91,415.72,348.82Zm1.22-2.9c2.15-3.55,4.11.94,4.3,2.43a20.25,20.25,0,0,1,.13,2.91,60,60,0,0,1-.55,6c-.7-1.45-1.52-2.84-2.28-4.27C417.63,351.28,415.75,347.87,416.94,345.92Z" style="fill:#263238"></path><path d="M434.18,361.57c.82-2.35-1.49-4.08-3.45-4.61a19.91,19.91,0,0,0-10.31.15.1.1,0,0,0-.06.15.46.46,0,0,0-.05.75c2.7,1.88,5.35,4.23,8.55,5.23C430.72,363.82,433.41,363.81,434.18,361.57ZM425,360c-1.35-.9-2.65-1.85-4-2.7,2,0,4-.13,6,.05a21.45,21.45,0,0,1,2.88.4c1.47.34,5.75,2.72,2,4.52C429.81,363.29,426.59,361.09,425,360Z" style="fill:#263238"></path><path d="M422,349.07l25.09,29.72s50.26-61,54.8-60.14c2.27.4,19.48,32.64,33,38.33,8.41,3.54,21.34.7,29.55-7,9-8.42,10.68-23.87,10.68-23.87l-38.78-24s-3.1,5.46-4.9,4.65c-1.2-.52-19-33.53-35.4-31C476,278.94,422,349.07,422,349.07Z" style="fill:#37474f"></path><path d="M427.25,346.44c.87.67,7.87,8.11,9.37,9.81,3,3.44,6,6.89,8.94,10.41,1.52,1.83,4.81,5.75,4.9,6,0,.14-.17.28-.26.18-3.23-3.21-6.29-6.57-9.36-9.92s-13.13-15.16-13.81-16.3C427,346.56,427.13,346.34,427.25,346.44Z" style="fill:#263238"></path><path d="M501.78,311.17A6,6,0,0,1,504,313.4q5.12,7,10.26,13.9c3.2,4.34,6.33,8.75,9.63,13,2.74,3.52,5.77,7,9.61,9.28A18.27,18.27,0,0,0,546,351.91a32.61,32.61,0,0,0,12-5c.9-.57,1.75-1.22,2.59-1.87.07-.05.15.06.08.1-6.53,4.94-14.81,9.29-23.28,6.81-4.13-1.21-7.6-4-10.53-7.13a128,128,0,0,1-9-11.51q-5.13-7-10.25-13.91c-1.65-2.23-3.22-4.55-4.95-6.71a2.78,2.78,0,0,0-1.26-1,2.11,2.11,0,0,0-1.86.67c-1.07.85-2.09,1.77-3.08,2.71-8,7.56-45.81,52.41-46.57,53.49-.08.11-.25,0-.17-.13,5.91-8.85,36.05-43.36,43.42-51A63,63,0,0,1,499.1,312,2.65,2.65,0,0,1,501.78,311.17Z" style="fill:#263238"></path><path d="M414.3,338c-10.56,4.78-20.41,8.95-21.72,8.47-2.13-1.25-27.54-49.58-27.82-51.58s5.34-3,7.8-1.84a78.75,78.75,0,0,1,7.68,5.55h0c5.78,4.47,12,9.8,12,9.8l5.72-2.49Z" style="fill:#ebebeb"></path><path d="M364.21,293.89c.31,2.05,26.06,52.18,28.26,53.46.82.5,8.33-2.82,17.29-7.09l.28-.14L393.79,307.6l-.54.29s-18.43-14.78-21-15.94S363.89,291.83,364.21,293.89Z" style="fill:#6582E4"></path><path d="M366.44,293.46c4.55,8.34,22.11,42.42,26,51,0,.07,0,.09-.05,0-4.69-8.17-22-42.39-26.05-51C366.22,293.35,366.35,293.28,366.44,293.46Z" style="fill:#263238"></path><path d="M391.85,304c2.33,3,3.91,7.34,2.85,11.09-.05.15-.25.09-.27,0a53.6,53.6,0,0,0-3-10.82A.24.24,0,0,1,391.85,304Z" style="fill:#263238"></path><path d="M389.17,302.38c2.33,3,3.91,7.34,2.85,11.1,0,.14-.25.08-.27,0a52.24,52.24,0,0,0-3-10.83A.24.24,0,0,1,389.17,302.38Z" style="fill:#263238"></path><path d="M386.49,300.73c2.33,3,3.91,7.33,2.85,11.09,0,.14-.25.08-.27,0a52.15,52.15,0,0,0-3-10.82A.24.24,0,0,1,386.49,300.73Z" style="fill:#263238"></path><path d="M392.91,299.92c-.62,3.29.2,6.73.6,10a.46.46,0,0,0,.68.31.1.1,0,0,0,.16,0,19.91,19.91,0,0,0,5-9c.45-2,0-4.84-2.46-5.22S393.27,298,392.91,299.92Zm2.23-2.22c3.35-2.46,3.44,2.44,3.05,3.89a22.4,22.4,0,0,1-1,2.74c-.79,1.86-1.83,3.57-2.79,5.34-.1-1.62-.33-3.21-.49-4.83C393.74,302.92,393.3,299.05,395.14,297.7Z" style="fill:#263238"></path><path d="M405.12,318.75c1.65-1.87.18-4.35-1.44-5.59a20,20,0,0,0-9.59-3.79c-.08,0-.11.05-.11.12a.46.46,0,0,0-.33.67c1.78,2.77,3.34,5.95,5.91,8.09C401.06,319.5,403.55,320.51,405.12,318.75Zm-7.92-4.94c-.9-1.34-1.74-2.72-2.7-4a58.7,58.7,0,0,1,5.55,2.34,20.45,20.45,0,0,1,2.52,1.47c1.22.87,4.27,4.71.13,5C400.42,318.67,398.29,315.4,397.2,313.81Z" style="fill:#263238"></path><path d="M395,304.71l20.11,35s58.81-31.14,63.75-30.16c6.59,1.29,30.35,44.08,50.94,49.32,9,2.3,20.9,1.07,29.69-6.09a43.08,43.08,0,0,0,15.65-26.7l-28.45-17.45a122.77,122.77,0,0,1-9.16,12s-32.6-42.7-53.73-48.57C469.57,268.08,395,304.71,395,304.71Z" style="fill:#37474f"></path><path d="M542,305.59c-.76,1.91-1.58,3.81-2.27,5.75-.32.89-.65,1.79-.88,2.71a2.47,2.47,0,0,0,.26,2.36c.7.73,1.43.21,1.84-.5s.8-1.68,1.18-2.52.88-1.93,1.33-2.88c.23-.48.45-1,.69-1.44,0-.12.56-1,.67-1.26a0,0,0,0,1-.07,0l0,0a.08.08,0,0,1,0-.08c0-.07.05-.08.13-.09a.09.09,0,0,1,.08.05c.09.19,0,.41-.11.61-.17.5-.33,1-.5,1.51-.34.93-.68,1.87-1,2.79l-1.11,2.77a4.48,4.48,0,0,1-1.14,1.91,1.67,1.67,0,0,1-2,.12,1.46,1.46,0,0,1,0,.22c0,.21-.11.42-.17.63s-.13.42-.2.63-.08.19-.13.28-.15.18-.2.28a.17.17,0,0,1-.32-.09c0-.11,0-.22,0-.33a2.09,2.09,0,0,1,.08-.36,5.89,5.89,0,0,1,.21-.59c.08-.2.15-.4.23-.59l.19-.32a2.28,2.28,0,0,1-.68-1,4,4,0,0,1,.09-2.18c.25-.85.56-1.69.87-2.52a37.35,37.35,0,0,1,2.72-6A.19.19,0,0,1,542,305.59Z" style="fill:#263238"></path><path d="M555,319.11c-.07,1-.21,2-.24,3s0,2,.06,3a10.29,10.29,0,0,0,.54,2.8,9.72,9.72,0,0,0,1.38,2.4,16.56,16.56,0,0,0,3.9,3.71A21.2,21.2,0,0,0,563,335.4c.42.22.85.41,1.29.59a3.2,3.2,0,0,1,1,.53.23.23,0,0,1-.12.38,4.19,4.19,0,0,1-2-.46,14.55,14.55,0,0,1-2.05-.94,15.93,15.93,0,0,1-3.62-2.76,13.18,13.18,0,0,1-2.68-3.66,9.92,9.92,0,0,1-.79-4.44,20.1,20.1,0,0,1,.81-5.56C554.81,319,555,319,555,319.11Z" style="fill:#263238"></path><path d="M402.19,303.84C407,311.51,419,334.3,419,334.61c0,.15-.23.23-.3.11-2.44-3.84-16.36-29.44-16.77-30.71C401.88,303.89,402.11,303.71,402.19,303.84Z" style="fill:#263238"></path><path d="M573.52,326.58c-5,10.05-14.1,23.82-24.89,27.21-10.51,3.3-22.61.95-30.54-6.85-5.35-5.26-27.91-33-29.75-35.18a31.18,31.18,0,0,0-3-3.11,18.05,18.05,0,0,0-3.42-2.6,5.47,5.47,0,0,0-4.16-.41c-1.66.45-3.28,1.13-4.89,1.71-3.32,1.21-6.61,2.47-9.9,3.76-13.07,5.12-25.92,10.8-38.42,17.19-1.57.8-3.12,1.64-4.67,2.48-.1.05,0,.2.1.15,12.92-6.09,25.89-12.05,39.16-17.34q5-2,10-3.86l5-1.83a20.15,20.15,0,0,1,5.14-1.6c1.75-.13,3.15,1,4.41,2.05a32.21,32.21,0,0,1,3.05,3c2,2.18,23.38,28,29.72,35,7.42,8.19,19.81,11.38,30.39,8.69,12.81-3.26,22.78-18,27-28.33C573.91,326.55,573.62,326.38,573.52,326.58Z" style="fill:#263238"></path><path d="M539.78,321.63c-4.45-6.81-12.14-14.35-17.65-20.32a167.23,167.23,0,0,0-17.89-16.81c-3.58-2.89-7.3-5.55-11.09-8.15-.08-.05-.15.07-.08.12A188,188,0,0,1,512,292.06c5.93,5.55,24.66,26.2,27.37,29.88C539.52,322.19,539.94,321.88,539.78,321.63Z" style="fill:#263238"></path><path d="M463.54,314.61c4-1.69,8-3.24,12.12-4.54,1.66-.53,3.68-1.46,5.26-.24.73.57,11.95,13.81,13,16,0,.1-.08.22-.17.14s-13.58-15.6-14.51-15.66a8.4,8.4,0,0,0-2.77.64,178.52,178.52,0,0,0-23.54,9.46c-2.11,1-4.22,2-6.31,3.07s-4.28,2.27-6.5,3.19a.19.19,0,0,1-.17-.35c1.86-1.16,3.87-2.1,5.81-3.1s3.91-2,5.87-3C455.55,318.23,459.51,316.34,463.54,314.61Z" style="fill:#263238"></path><path d="M541.08,291.23,532,306.87s33.92,22,44,24.68c0,0,7.76-44.57,1.15-59.64-3.31-7.54-9.65-9.23-15-6.58-1.34.67-16.21,8.35-19.53,13.94C539.65,284.2,541.08,291.23,541.08,291.23Z" style="fill:#c7c7c7"></path><path d="M573.68,319.66a1.31,1.31,0,1,1-1.3-1.31A1.31,1.31,0,0,1,573.68,319.66Zm-13.53-1.31a1.31,1.31,0,1,0,1.3,1.31A1.31,1.31,0,0,0,560.15,318.35Zm6.11,8.27a1.28,1.28,0,0,0-.79.27l2.1,1.08v0A1.3,1.3,0,0,0,566.26,326.62Zm6.12-24.32a1.31,1.31,0,1,0,1.3,1.31A1.31,1.31,0,0,0,572.38,302.3Zm-12.23,0a1.31,1.31,0,1,0,1.3,1.31A1.31,1.31,0,0,0,560.15,302.3Zm-12.23,0a1.31,1.31,0,1,0,1.3,1.31A1.31,1.31,0,0,0,547.92,302.3Zm-12.23,0a1.31,1.31,0,1,0,1.3,1.31A1.31,1.31,0,0,0,535.69,302.3Zm42.8,8.27a1.31,1.31,0,0,0,0,2.61l.27-2.58A.91.91,0,0,0,578.49,310.57Zm-12.23,0a1.31,1.31,0,1,0,1.31,1.3A1.31,1.31,0,0,0,566.26,310.57Zm-12.23,0a1.31,1.31,0,1,0,1.31,1.3A1.31,1.31,0,0,0,554,310.57Zm-12.23,0a1.3,1.3,0,0,0-1.3,1.3,1.22,1.22,0,0,0,.08.43l1.37.86a1.29,1.29,0,0,0,1.16-1.29A1.31,1.31,0,0,0,541.8,310.57Zm30.58-24.32a1.31,1.31,0,1,0,1.3,1.31A1.31,1.31,0,0,0,572.38,286.25Zm-12.23,0a1.31,1.31,0,1,0,1.3,1.31A1.31,1.31,0,0,0,560.15,286.25Zm-12.23,0a1.31,1.31,0,1,0,1.3,1.31A1.31,1.31,0,0,0,547.92,286.25Zm30.57,8.26a1.31,1.31,0,0,0,0,2.62,1.32,1.32,0,0,0,1.2-.77h0c0-.34,0-.67,0-1A1.3,1.3,0,0,0,578.49,294.51Zm-12.23,0a1.31,1.31,0,1,0,1.31,1.31A1.31,1.31,0,0,0,566.26,294.51Zm-12.23,0a1.31,1.31,0,1,0,1.31,1.31A1.31,1.31,0,0,0,554,294.51Zm-12.23,0a1.31,1.31,0,1,0,1.31,1.31A1.31,1.31,0,0,0,541.8,294.51Zm30.58-24.31a1.31,1.31,0,1,0,1.3,1.31A1.31,1.31,0,0,0,572.38,270.2Zm-12.23,0a1.31,1.31,0,1,0,1.3,1.31A1.3,1.3,0,0,0,560.15,270.2Zm18.75,8.33a1.14,1.14,0,0,0-.41-.07,1.31,1.31,0,0,0,0,2.62,1.34,1.34,0,0,0,.74-.22C579.14,280.06,579,279.28,578.9,278.53Zm-12.64-.07a1.31,1.31,0,1,0,1.31,1.31A1.31,1.31,0,0,0,566.26,278.46Zm-12.23,0a1.31,1.31,0,1,0,1.31,1.31A1.31,1.31,0,0,0,554,278.46Zm-11.23.48a3,3,0,0,0-.21.33,11.35,11.35,0,0,0-.85,1.8h.06a1.31,1.31,0,0,0,1.31-1.31A1.24,1.24,0,0,0,542.8,278.94Zm22.31-14.61a1.3,1.3,0,0,0,2.37-.15A9.43,9.43,0,0,0,565.11,264.33Z" style="fill:#fff"></path><path d="M558.08,299a54.89,54.89,0,0,0-13.48-9.24.08.08,0,0,0-.08.13c4.57,3,8.86,6.34,13.4,9.32C558.05,299.26,558.18,299.06,558.08,299Z" style="fill:#263238"></path><path d="M549.61,293.93a7.8,7.8,0,0,0-1-.8,8,8,0,0,0-1.21-.59,15.7,15.7,0,0,0-2.71-.64.08.08,0,0,0,0,.15c.44.17.89.27,1.33.4s.85.29,1.26.46.76.36,1.13.56.78.38,1.15.61C549.59,294.14,549.69,294,549.61,293.93Z" style="fill:#263238"></path><path d="M570.54,269.28c-.54.73-6.73,4.35-10.39,2.57-1.19-.59,1.7-7.23,1.7-7.23l.11-.54,1.42-7.54,10.32-1.7,1.47-.19s-.53,2-1.21,4.57c0,.12-.06.24-.1.36s-.06.29-.1.42c-.1.38-.2.77-.31,1.15s-.16.58-.25.88-.19.6-.27.91A52.2,52.2,0,0,1,570.54,269.28Z" style="fill:#eb9481"></path><path d="M574,259.22a15.37,15.37,0,0,1-12,4.86l1.42-7.54,10.32-1.7,1.47-.19S574.64,256.69,574,259.22Z" style="fill:#263238"></path><path d="M556.93,244c-3.8,12.93,3.52,16.67,6.31,17.49,2.53.74,11.24,2.94,16.36-9.53s.3-18.32-5.4-20.32S560.73,231.05,556.93,244Z" style="fill:#eb9481"></path><path d="M579,251.28c-3-.76-1.73-5.48-1.73-5.48s-3.32-1.21-2.12-6.76a8.58,8.58,0,0,1-7.3,2.33c-1-.11,2.93-1.78,2.93-1.78s-4.86,2.52-11.77-.75c-.49-.23,2.09-7.92,8.49-9a13.47,13.47,0,0,1,14.26,6.57s3.09,3.11,2.52,7.2S580.13,251.58,579,251.28Z" style="fill:#c95d4c"></path><path d="M562,241.75a7.28,7.28,0,0,0,.93.07,1.5,1.5,0,0,0,1-.1.47.47,0,0,0,.16-.56,1.16,1.16,0,0,0-1-.6,1.78,1.78,0,0,0-1.23.28A.51.51,0,0,0,562,241.75Z" style="fill:#263238"></path><path d="M570.46,244.42a9.27,9.27,0,0,1-.82-.44,1.55,1.55,0,0,1-.75-.61.48.48,0,0,1,.17-.56,1.18,1.18,0,0,1,1.2.06,1.76,1.76,0,0,1,.88.9A.51.51,0,0,1,570.46,244.42Z" style="fill:#263238"></path><path d="M567.78,247.17s.06.07,0,.1c-.3.87-.51,1.91.19,2.45a0,0,0,0,1,0,.05C567.06,249.32,567.35,247.94,567.78,247.17Z" style="fill:#263238"></path><path d="M568.85,246.51c1.44.34.65,3.2-.68,2.88S567.65,246.22,568.85,246.51Z" style="fill:#263238"></path><path d="M569.37,246.82c.21.23.37.58.66.69s.69-.09,1-.31c0,0,.05,0,0,0-.14.55-.51,1-1.11,1s-.81-.66-.79-1.25C569.16,246.85,569.29,246.72,569.37,246.82Z" style="fill:#263238"></path><path d="M562.76,245.48s-.08,0-.09.06c-.21.89-.6,1.88-1.49,2,0,0,0,0,0,.05C562.19,247.67,562.7,246.36,562.76,245.48Z" style="fill:#263238"></path><path d="M562.22,244.34c-1.4-.49-2.28,2.33-1,2.79S563.39,244.75,562.22,244.34Z" style="fill:#263238"></path><path d="M561.57,244.34c-.27.08-.58.28-.85.22s-.45-.46-.56-.81c0,0,0,0,0,0-.18.53-.18,1.15.31,1.42s.93-.12,1.23-.61C561.7,244.48,561.68,244.31,561.57,244.34Z" style="fill:#263238"></path><path d="M565.45,254.36c-.26.16-.54.4-.87.35a2.29,2.29,0,0,1-.91-.45s-.06,0,0,0a1.23,1.23,0,0,0,1,.75,1,1,0,0,0,.88-.63S565.49,254.33,565.45,254.36Z" style="fill:#263238"></path><path d="M562.27,252a3.82,3.82,0,0,0,1.12,1.56,1.68,1.68,0,0,0,1,.35c.77,0,1-.63,1-1.23a3.93,3.93,0,0,0-.07-1A4.84,4.84,0,0,1,562.27,252Z" style="fill:#263238"></path><path d="M563.39,253.56a1.68,1.68,0,0,0,1,.35c.77,0,1-.63,1-1.23A1.75,1.75,0,0,0,563.39,253.56Z" style="fill:#ff99ba"></path><path d="M562.54,249.88s-.56,1.26-.74,1.88c0,.06.12.13.33.2h0a3.08,3.08,0,0,0,3.19-.27c.06,0,0-.13-.07-.11a4.7,4.7,0,0,1-2.92,0c0-.19,1-2.13.95-2.17a5.61,5.61,0,0,0-1.51-.09c1.1-2.67,2.62-5.13,3.67-7.8a.09.09,0,0,0-.15-.09,46.85,46.85,0,0,0-4.31,8.24C560.85,250,562.26,249.91,562.54,249.88Z" style="fill:#263238"></path><path d="M577.25,252.32s3.72-3.54,5.38-2.13-1.71,6.94-4.07,7.31a2.27,2.27,0,0,1-2.75-1.8Z" style="fill:#eb9481"></path><path d="M581.62,251.75s0,.05,0,.06a5.78,5.78,0,0,0-3.63,2.94,1.26,1.26,0,0,1,1.91,0,0,0,0,0,1,0,.07,1.41,1.41,0,0,0-1.61.18,6.17,6.17,0,0,0-1,1.07c-.1.13-.34,0-.25-.14l0,0C577.39,254,579.48,251.52,581.62,251.75Z" style="fill:#263238"></path><path d="M501.73,392.83l-7.8-60.66,116.32-13.82L589,382.14l-.57.06Zm-5.79-59.08,7.35,57.08,84.38-10.34,20-60Z" style="fill:#ebebeb"></path><rect x="522.5" y="329.75" width="1.8" height="58.78" transform="translate(-29.22 46.83) rotate(-4.98)" style="fill:#ebebeb"></rect><rect x="520.37" y="355.03" width="59.67" height="1.8" transform="translate(163.17 884.71) rotate(-86.7)" style="fill:#ebebeb"></rect><rect x="545" y="352.02" width="61.71" height="1.8" transform="translate(122.2 853.28) rotate(-79.31)" style="fill:#ebebeb"></rect><rect x="496.52" y="345.19" width="105.85" height="1.8" transform="translate(-35.23 63.57) rotate(-6.42)" style="fill:#ebebeb"></rect><rect x="498.81" y="367.79" width="95.65" height="1.8" transform="translate(-35.4 58.89) rotate(-5.97)" style="fill:#ebebeb"></rect><polygon points="576.74 408.42 521.33 408.82 529.01 352.33 568.25 352.04 576.74 408.42" style="fill:#455a64"></polygon><polygon points="568.25 352.04 562.5 408.52 576.74 408.42 568.25 352.04" style="fill:#263238"></polygon><path d="M539.27,356.36l-2-.33s.91-5.48,1.89-11c1.06-5.93,6.71-8.88,11.56-8.31,3.64.42,7.76,3.06,7.42,9.1-.36,6.47-.71,9.53-.73,9.65l-2-.23s.36-3.13.72-9.53c.26-4.64-2.75-6.66-5.65-7a8.41,8.41,0,0,0-9.35,6.67C540.18,350.89,539.28,356.31,539.27,356.36Z" style="fill:#263238"></path><path d="M563.25,408.08c1.13-.82,2.31-1.57,3.48-2.32s2.37-1.46,3.57-2.16l.17-.09.15.11c1,.69,1.89,1.39,2.8,2.13s1.83,1.45,2.72,2.23c-1-.6-2-1.24-3-1.89s-1.94-1.32-2.89-2h.32c-1.2.72-2.41,1.41-3.63,2.08S564.52,407.49,563.25,408.08Z" style="fill:#fff"></path><path d="M570.45,403.85c-.27-3.59-.47-7.19-.67-10.79s-.34-7.2-.51-10.8-.28-7.21-.38-10.81l-.14-5.41c0-1.8-.07-3.6-.08-5.41.14,1.8.24,3.6.37,5.4l.3,5.4c.2,3.6.34,7.2.51,10.8s.28,7.21.38,10.81S570.42,400.25,570.45,403.85Z" style="fill:#fff"></path><path d="M541,356.08a2.67,2.67,0,1,1-2.79-2.55A2.67,2.67,0,0,1,541,356.08Z" style="fill:#263238"></path><path d="M558.89,355.29a2.67,2.67,0,1,1-2.78-2.55A2.66,2.66,0,0,1,558.89,355.29Z" style="fill:#263238"></path><polygon points="567.71 423.45 504.63 412.64 524.84 349.96 569.52 357.62 567.71 423.45" style="fill:#6582E4"></polygon><polygon points="569.52 357.62 551.51 420.67 567.72 423.45 569.52 357.62" style="opacity:0.1"></polygon><path d="M536.66,356.55l-1.9-.76c0-.05,2.09-5.25,4.24-10.49,2.33-5.66,8.59-7.38,13.3-5.77,3.52,1.2,7.05,4.72,5.41,10.65-1.75,6.36-2.76,9.32-2.81,9.44L553,359s1-3,2.77-9.32c1.26-4.56-1.29-7.22-4.11-8.18a8.57,8.57,0,0,0-10.74,4.62C538.74,351.3,536.68,356.5,536.66,356.55Z" style="fill:#263238"></path><path d="M552.44,420.33c1.46-.7,2.95-1.32,4.43-1.93s3-1.18,4.51-1.73l.21-.08.15.16c.93,1,1.86,2,2.75,3s1.79,2,2.63,3.09c-1-.88-2-1.81-3-2.75s-1.93-1.9-2.88-2.86l.36.08c-1.5.57-3,1.1-4.54,1.62S554,419.91,552.44,420.33Z" style="fill:#fff"></path><path d="M561.49,417c.43-4.14.93-8.28,1.43-12.41s1.08-8.26,1.62-12.39,1.14-8.25,1.76-12.37l.94-6.17c.34-2.06.65-4.12,1-6.17-.2,2.08-.45,4.14-.68,6.21l-.75,6.21c-.51,4.13-1.07,8.25-1.61,12.38s-1.15,8.25-1.77,12.37S562.2,412.88,561.49,417Z" style="fill:#fff"></path><path d="M538.39,356.63a2.72,2.72,0,1,1-2.22-3.14A2.72,2.72,0,0,1,538.39,356.63Z" style="fill:#263238"></path><path d="M556.41,359.72a2.72,2.72,0,1,1-2.22-3.14A2.71,2.71,0,0,1,556.41,359.72Z" style="fill:#263238"></path><path d="M579.41,273.14c11,11.37,21,31.1,19.36,37.88-1.9,8-18.68,22.9-28.28,28.69-2.54,1.53-14.35-21.82-11.71-23.57,5.09-3.35,17.45-10.65,19-13.32.52-.93-5.61-16.64-7.52-26.8C568.86,268.86,572.93,266.42,579.41,273.14Z" style="fill:#eb9481"></path><path d="M536.9,337.77a3.53,3.53,0,0,0,3.45,2.07,5.18,5.18,0,0,0,.62,3.5c1.16,1.82,4.51.79,4.51.79a6.42,6.42,0,0,0,1.24,3.59c1.29,1.63,4.82,1.08,4.82,1.08a5.68,5.68,0,0,0,3.08,2.47c3.49,1,7.61-2.71,10.26-5s8.22-7.39,9.41-9L560.49,315s-16.11,8.11-18.83,11.3C539.36,329,535.87,335.21,536.9,337.77Z" style="fill:#eb9481"></path><path d="M540.23,339.46c1.75-3.43,4.42-6.16,6.94-9,.05-.07.15,0,.1.09-2.54,2.83-4.47,6.13-6.89,9.05A.09.09,0,0,1,540.23,339.46Z" style="fill:#263238"></path><path d="M545.34,343.86a9.85,9.85,0,0,1,1.7-2c.64-.67,1.3-1.33,2-2q2-2,4.11-3.79c.07-.06.17,0,.1.09q-2,1.93-3.92,4l-1.9,2a12.18,12.18,0,0,1-1.87,1.86A.13.13,0,0,1,545.34,343.86Z" style="fill:#263238"></path><path d="M551.6,348.74a6.82,6.82,0,0,1,1.62-1.73l1.85-1.74c1.24-1.18,2.47-2.35,3.66-3.56a.07.07,0,0,1,.1.09c-1.21,1.24-2.39,2.49-3.61,3.72q-.88.9-1.8,1.8a6.48,6.48,0,0,1-1.77,1.49A0,0,0,0,1,551.6,348.74Z" style="fill:#263238"></path><path d="M596.86,297.61l-20.64,5.79s-5.76-19.07-6.82-28.53c-.87-7.72,3.67-10.22,10.93-2.2C587.21,280.28,596.86,297.61,596.86,297.61Z" style="fill:#c7c7c7"></path><path d="M592.26,294.72a134.78,134.78,0,0,1-15.86,4.77c-.06,0-.09-.09,0-.11,1.42-.35,9.31-3.08,15.86-4.78C592.31,294.58,592.34,294.69,592.26,294.72Z" style="fill:#263238"></path><path d="M577.43,303.07a8.23,8.23,0,0,0-1.1.17c-.88-3.41-1.88-6.89-2.78-10.29-.45-1.67-.9-3.33-1.34-5s-.81-3.51-1.37-5.22a0,0,0,0,0-.08,0,47.86,47.86,0,0,0,.9,4.72c-.1-.26-.18-.51-.3-.76-.25-.56-.5-1.12-.71-1.69,0-.09-.18-.06-.15,0,.2.55.36,1.1.52,1.66s.34,1.1.53,1.65.42,1.05.64,1.57l.09.19c.22,1,.43,2,.68,2.94.87,3.42,3.07,10.46,3.13,10.46a9.15,9.15,0,0,0,1.36-.36C577.51,303.14,577.48,303.08,577.43,303.07Z" style="fill:#263238"></path><path d="M585.91,287.56a1.31,1.31,0,1,1-1.3-1.31A1.31,1.31,0,0,1,585.91,287.56Zm-13.53-1.31a1.35,1.35,0,0,0-.74.23c.19.79.39,1.59.59,2.37a.39.39,0,0,0,.15,0,1.31,1.31,0,1,0,0-2.62Zm18.34,8.26a1.31,1.31,0,1,0,1.31,1.31A1.31,1.31,0,0,0,590.72,294.51Zm-12.23,0a1.31,1.31,0,1,0,1.31,1.31A1.31,1.31,0,0,0,578.49,294.51Zm-6.11-24.31a1.31,1.31,0,1,0,1.3,1.31A1.31,1.31,0,0,0,572.38,270.2Zm6.11,8.26a1.31,1.31,0,1,0,1.31,1.31A1.31,1.31,0,0,0,578.49,278.46Z" style="fill:#fff"></path></g><g id="freepik--character-2--inject-38"><path d="M589.57,452.94c2,.63,57.73-.09,59.84-1.47.81-.51,1.18-8.64,1.34-18.48v-.31c0-2,.07-4.12.07-6.23,0-.3,0-.59,0-.88l-36.34.1,0,1.14.22,5.93,0,.61s-21.22,9.83-23.38,11.59S587.61,452.32,589.57,452.94Z" style="fill:#ebebeb"></path><path d="M589.57,452.94c1.21.39,22.81.26,39.73-.21,10.57-.29,19.3-.73,20.11-1.26s1.17-8.41,1.33-18.07c0-.14,0-.27,0-.41s0-.21,0-.31l-36,.06,0,.62s-21.23,9.82-23.38,11.58S587.61,452.32,589.57,452.94Z" style="fill:#6582E4"></path><path d="M590.17,450.77c9.4-.35,47.35-.89,56.67-.52.07,0,.07.05,0,.06-9.31.55-47.26.78-56.67.61C590,450.92,590,450.78,590.17,450.77Z" style="fill:#263238"></path><path d="M610.76,432.9c3.69-.74,8.22-.23,11.08,2.37.11.1,0,.25-.15.22a52,52,0,0,0-10.91-2.12A.24.24,0,0,1,610.76,432.9Z" style="fill:#263238"></path><path d="M608.11,434.54c3.69-.74,8.22-.23,11.08,2.37.11.1,0,.26-.15.22A52.63,52.63,0,0,0,608.13,435,.24.24,0,0,1,608.11,434.54Z" style="fill:#263238"></path><path d="M605.46,436.19c3.69-.74,8.22-.23,11.08,2.37.11.1,0,.25-.15.22a52,52,0,0,0-10.91-2.13A.23.23,0,0,1,605.46,436.19Z" style="fill:#263238"></path><path d="M607.57,430.14c2.64,2,6.06,2.79,9.13,3.88.32.11.56-.19.57-.47a.11.11,0,0,0,.09-.14,19.8,19.8,0,0,0-5.81-8.4c-1.56-1.28-4.28-2.14-5.71-.12S606,429,607.57,430.14Zm-1-3c-.71-4.05,3.68-2,4.79-1a20.77,20.77,0,0,1,2,2.1,59.34,59.34,0,0,1,3.5,4.83c-1.48-.63-3-1.13-4.49-1.7C610.6,430.73,607,429.41,606.59,427.17Z" style="fill:#263238"></path><path d="M629.64,427.62c-.93-2.3-3.77-2.08-5.59-1.2a19.74,19.74,0,0,0-7.58,6.84.09.09,0,0,0,0,.15.45.45,0,0,0,.45.59c3.24-.36,6.75-.33,9.78-1.67C628.52,431.54,630.51,429.79,629.64,427.62Zm-7.87,4.84c-1.59.21-3.18.35-4.76.62a58,58,0,0,1,4.52-3.9A20.52,20.52,0,0,1,624,427.6c1.31-.7,6-1.71,4.43,2.07C627.49,431.75,623.66,432.2,621.77,432.46Z" style="fill:#263238"></path><path d="M594.84,443.35a7.57,7.57,0,0,1,5.67,2.22,7.34,7.34,0,0,1,2.17,5c0,.06-.1.06-.11,0a8.74,8.74,0,0,0-7.73-7.1A.06.06,0,1,1,594.84,443.35Z" style="fill:#263238"></path><path d="M644.42,441.71c4.23,0,4.31,6.52.07,6.57S640.18,441.76,644.42,441.71Z" style="fill:#263238"></path><path d="M629.3,452.73c10.57-.29,19.3-.73,20.11-1.26s1.17-8.41,1.33-18.07C646.4,437.27,635.64,446.86,629.3,452.73Z" style="fill:#263238"></path><path d="M662.13,236s-8.37,94.25-9.74,101.44c-.32,1.64-.51,10.55-.64,22-.29,25-.12,70-.12,70H612.32s1.16-78.07,2.9-92.44,12.87-101,12.87-101Z" style="fill:#455a64"></path><path d="M614.09,422.6c6.14-.13,4.37-.18,10.51-.24,3,0,22.74-.2,25.54.27a.06.06,0,0,1,0,.12c-2.81.47-22.54.3-25.54.27-6.14-.06-4.37-.11-10.51-.24A.09.09,0,0,1,614.09,422.6Z" style="fill:#263238"></path><path d="M644.16,378q.08-8.55.13-17.11c0-5.52,0-11.05.3-16.57.53-11.17,2.79-22.16,4.41-33.21s3-22.14,4.17-33.24c1.37-12.46,2.58-24.93,3.86-37.4,0-.09.14-.08.13,0-1.85,22.26-3.92,44.51-7,66.64q-1.15,8.25-2.52,16.47c-.91,5.55-1.83,11.11-2.26,16.72s-.5,11-.56,16.51q-.09,8.55-.17,17.09c-.12,12.66-.24,32.15-.37,44.81,0,.24-.38.23-.38,0C644,407.38,644.08,389.26,644.16,378Z" style="fill:#263238"></path><path d="M670.42,236s-16.66,94.25-18,101.44c-.32,1.64-.51,10.55-.64,22v0L633,236Z" style="fill:#263238"></path><path d="M635.23,456.26c2,.5,57.58-4.18,59.58-5.7.77-.56.56-8.7,0-18.53,0-.1,0-.21,0-.31-.11-2-.23-4.11-.37-6.22l-.06-.87-36.23,2.67.12,1.13.64,5.9.07.61s-20.48,11.31-22.5,13.21S633.23,455.78,635.23,456.26Z" style="fill:#ebebeb"></path><path d="M635.23,456.26c2,.5,57.58-4.18,59.58-5.7.77-.56.56-8.7,0-18.53,0-.1,0-.21,0-.31l-35.9,2.61.07.61s-20.48,11.31-22.5,13.21S633.23,455.78,635.23,456.26Z" style="fill:#6582E4"></path><path d="M635.68,454.06c9.35-1,47.16-4.24,56.48-4.54.07,0,.08.05,0,.06-9.24,1.21-47.08,4.13-56.47,4.63C635.49,454.22,635.48,454.08,635.68,454.06Z" style="fill:#263238"></path><path d="M654.94,434.77c3.63-1,8.19-.81,11.23,1.58.11.09,0,.26-.14.23a51.83,51.83,0,0,0-11-1.34A.24.24,0,0,1,654.94,434.77Z" style="fill:#263238"></path><path d="M652.41,436.6c3.63-1,8.19-.81,11.23,1.58.12.09,0,.26-.14.23a52.41,52.41,0,0,0-11-1.35A.23.23,0,0,1,652.41,436.6Z" style="fill:#263238"></path><path d="M649.89,438.43c3.63-1,8.18-.81,11.22,1.58.12.09,0,.26-.14.23a52.41,52.41,0,0,0-11-1.35A.23.23,0,0,1,649.89,438.43Z" style="fill:#263238"></path><path d="M651.56,432.25c2.78,1.8,6.25,2.35,9.39,3.22.32.09.55-.23.54-.51a.1.1,0,0,0,.07-.14,19.72,19.72,0,0,0-6.39-8c-1.64-1.16-4.42-1.83-5.7.28S649.94,431.19,651.56,432.25Zm-1.18-2.89c-1-4,3.53-2.23,4.71-1.33a20.69,20.69,0,0,1,2.13,2,57.53,57.53,0,0,1,3.83,4.57c-1.51-.52-3.06-.91-4.59-1.38C654.63,432.62,650.92,431.56,650.38,429.36Z" style="fill:#263238"></path><path d="M673.4,428.17c-1.09-2.23-3.91-1.81-5.65-.8a19.79,19.79,0,0,0-7.09,7.36.11.11,0,0,0,.07.15.45.45,0,0,0,.49.55c3.2-.58,6.7-.81,9.63-2.36C672.56,432.16,674.43,430.27,673.4,428.17Zm-7.5,5.38c-1.57.33-3.15.57-4.71,1,1.39-1.43,2.71-2.92,4.23-4.21a23.21,23.21,0,0,1,2.3-1.75c1.26-.79,5.92-2.14,4.58,1.75C671.55,432.44,667.77,433.16,665.9,433.55Z" style="fill:#263238"></path><path d="M638.92,446.61a7.59,7.59,0,0,1,5.84,1.72,7.35,7.35,0,0,1,2.6,4.79c0,.06-.1.07-.11,0a8.75,8.75,0,0,0-8.32-6.4A.06.06,0,0,1,638.92,446.61Z" style="fill:#263238"></path><path d="M688.17,440.68c4.21-.41,4.86,6.13.65,6.54S684,441.1,688.17,440.68Z" style="fill:#263238"></path><path d="M657.32,431.58l39.28-1.67s-10.72-86.2-10.92-91.5c-.51-13.74-9.65-102.48-9.65-102.48h-48s3,20.49,8.2,33.47a60.94,60.94,0,0,1,10,4.59s4.49,58.68,4.66,66C651.29,354.46,657.32,431.58,657.32,431.58Z" style="fill:#455a64"></path><path d="M658.37,424.38c6.12-.39,4.36-.37,10.49-.69,3-.15,22.7-1.16,25.52-.81.07,0,.07.11,0,.12-2.78.58-22.5,1.25-25.51,1.35-6.13.2-4.37.07-10.51.2A.09.09,0,1,1,658.37,424.38Z" style="fill:#263238"></path><path d="M672.51,241.19c1.79,22.35,3.61,44.7,5.66,67s4.45,44.78,7.38,67.09c1.63,12.46,3.44,30,5.37,42.43,0,.08-.11.12-.13,0-3.95-22.07-6.86-49.45-9.34-71.73s-4.5-44.6-6.3-66.94c-1-12.64-1.95-25.28-2.92-37.92C672.22,241,672.5,241,672.51,241.19Z" style="fill:#263238"></path><path d="M634.55,268.51A74.22,74.22,0,0,1,646.3,274c.14.08.05.31-.11.24-4-1.7-8-3.33-11.86-5.24A.26.26,0,0,1,634.55,268.51Z" style="fill:#263238"></path><path d="M633.29,241.35c0-.13.25-.16.25,0,0,4.7.27,8.84.66,13.23.19,2,1.83,13.31,5.36,12.48.59-.13.9-.72,1-1.61a14.05,14.05,0,0,0-.47-3.45c-.39-2.36-.71-4.73-.91-7.11a64.55,64.55,0,0,1,.14-13.33.12.12,0,0,1,.23,0,123,123,0,0,0,1.08,18.4c.44,2.93,1.92,7.35-1.15,7.8s-5.14-6.93-5.52-9A67.45,67.45,0,0,1,633.29,241.35Z" style="fill:#263238"></path><path d="M639.47,267.35a18.78,18.78,0,0,1,.79,2.33,5.32,5.32,0,0,1,.33,1.92c0,.13-.17.14-.24.06a6.65,6.65,0,0,1-.82-1.87c-.27-.73-.56-1.44-.8-2.17A.39.39,0,0,1,639.47,267.35Z" style="fill:#263238"></path><polygon points="642.42 333.79 587.08 331.08 597.91 275.11 637.11 277.03 642.42 333.79" style="fill:#6582E4"></polygon><polygon points="637.11 277.03 628.2 333.1 642.42 333.79 637.11 277.03" style="fill:#6582E4"></polygon><polygon points="637.11 277.03 628.2 333.1 642.42 333.79 637.11 277.03" style="opacity:0.1"></polygon><path d="M607.93,279.72l-2-.44c0-.06,1.22-5.43,2.5-10.84,1.39-5.86,7.2-8.49,12-7.65,3.61.62,7.58,3.49,6.9,9.51-.72,6.43-1.25,9.46-1.27,9.59l-2-.35s.54-3.1,1.26-9.47c.52-4.62-2.37-6.8-5.25-7.3a8.41,8.41,0,0,0-9.71,6.13C609.15,274.31,607.94,279.66,607.93,279.72Z" style="fill:#263238"></path><path d="M629,332.7c1.18-.75,2.39-1.44,3.61-2.12s2.45-1.33,3.69-1.95l.17-.09.14.12c.91.75,1.81,1.49,2.68,2.28s1.75,1.56,2.59,2.38c-1-.65-1.93-1.35-2.86-2.05s-1.86-1.43-2.77-2.16l.31,0c-1.23.65-2.48,1.27-3.73,1.87S630.27,332.18,629,332.7Z" style="fill:#fff"></path><path d="M636.4,328.88c-.07-3.6-.07-7.21-.06-10.81s.06-7.21.09-10.82.13-7.21.23-10.81l.16-5.41c.07-1.8.13-3.6.22-5.4,0,1.8.05,3.61.07,5.41v5.41c0,3.6-.06,7.21-.09,10.81s-.13,7.21-.23,10.81S636.58,325.28,636.4,328.88Z" style="fill:#fff"></path><path d="M609.62,279.53a2.67,2.67,0,1,1-2.64-2.7A2.67,2.67,0,0,1,609.62,279.53Z" style="fill:#263238"></path><path d="M627.58,279.75A2.67,2.67,0,1,1,625,277,2.65,2.65,0,0,1,627.58,279.75Z" style="fill:#263238"></path><polygon points="653.93 330.85 596.57 336.43 599.26 277.2 639.88 273.25 653.93 330.85" style="fill:#dbdbdb"></polygon><polygon points="639.88 273.25 639.19 332.29 653.93 330.85 639.88 273.25" style="fill:#c7c7c7"></polygon><path d="M611.09,280.11l-1.83-.2c0-.05.57-5.06,1.2-10.12a9.55,9.55,0,0,1,10.17-8.17c3.35.21,7.25,2.43,7.23,8,0,5.94-.19,8.75-.2,8.87l-1.83-.12s.18-2.88.19-8.75c0-4.26-2.83-6-5.5-6.13a7.71,7.71,0,0,0-8.24,6.55C611.65,275.06,611.09,280.06,611.09,280.11Z" style="fill:#263238"></path><path d="M639.92,331.76c1.1-.95,2.25-1.84,3.39-2.73s2.32-1.73,3.51-2.56l.16-.12.17.1c1,.63,2.08,1.27,3.09,1.94s2,1.34,3,2.07c-1.11-.53-2.19-1.1-3.26-1.69s-2.12-1.18-3.17-1.8h.33c-1.18.85-2.36,1.67-3.57,2.48S641.18,331,639.92,331.76Z" style="fill:#fff"></path><path d="M647,326.71c-.61-3.7-1.16-7.41-1.7-11.12s-1-7.43-1.54-11.14-1-7.44-1.4-11.16l-.65-5.59c-.19-1.86-.41-3.72-.58-5.59.31,1.85.58,3.7.88,5.55l.82,5.57c.54,3.71,1,7.43,1.54,11.14s1,7.44,1.4,11.16S646.63,323,647,326.71Z" style="fill:#fff"></path><path d="M612.61,279.77a2.45,2.45,0,1,1-2.67-2.19A2.44,2.44,0,0,1,612.61,279.77Z" style="fill:#263238"></path><path d="M629,278.18a2.45,2.45,0,1,1-2.67-2.2A2.45,2.45,0,0,1,629,278.18Z" style="fill:#263238"></path><path d="M641.7,186.4c-4.19,8-19.75,36.79-30.86,37.7-6.69.55-30.3-9-35.62-12.43-6.23-4,8.32-19.45,12.48-18.12,5.14,1.65,19.41,8.48,22.59,8.22,2.85-.24,10.24-10,24.89-21.4C642.71,174.53,645.31,179.53,641.7,186.4Z" style="fill: rgb(119, 68, 66);"></path><path d="M575.83,212.05c-2.19-.83-11.86-5.52-14.26-7.43s-8.9-7.9-7.63-9.89,3.32-.38,3.32-.38-2.35-3-.88-4.85,4.56.72,4.56.72-2.19-3.23-.59-5,4.28,1.36,4.28,1.36-2.14-2.85-.21-3.76c2.32-1.09,5.67,4.61,8.47,6.52.64.43,13.55,7.86,13.55,7.86Z" style="fill: rgb(119, 68, 66);"></path><path d="M564.39,186.32c2.47,4.19,4.28,5.59,8.54,7.78a.08.08,0,0,1-.06.14c-4.36-1.77-6.88-3.2-8.69-7.81C564.09,186.2,564.27,186.12,564.39,186.32Z" style="fill:#263238"></path><path d="M560.75,189.88c3,4.12,4.9,5.66,9.19,8.28.06,0,0,.15-.06.11-4.43-2.21-6.91-3.7-9.31-8.21C560.46,189.86,560.62,189.69,560.75,189.88Z" style="fill:#263238"></path><path d="M557.48,194.47c3.14,3.79,5.2,5.57,9.7,7.58a.09.09,0,0,1-.07.17,16.29,16.29,0,0,1-9.73-7.64C557.22,194.32,557.28,194.24,557.48,194.47Z" style="fill:#263238"></path><path d="M590.83,196.39a59.58,59.58,0,0,0-3.7-8c-1.51-2.29-10.28-8.74-11.78-6.92-1.94,2.34,2.39,7.06,4.81,9.1,0,0-4.48,5.41-2.11,9.47S590.83,196.39,590.83,196.39Z" style="fill: rgb(119, 68, 66);"></path><path d="M575,182.32c-.22,3.41,3.13,5.87,5.34,8a.29.29,0,0,1-.06.46c-1.73,2.4-3.47,6.28-2.43,9.22a.07.07,0,0,1-.13.06c-1.54-3-.14-7,1.92-9.46-2.29-2.17-5.55-4.79-4.67-8.31C575,182.29,575,182.3,575,182.32Z" style="fill:#263238"></path><path d="M616.92,193.63,633,205.77s7.67-11,10.39-21-5.6-8.23-11.25-3.78S616.92,193.63,616.92,193.63Z" style="fill:#6582E4"></path><path d="M634.37,202.39a139.18,139.18,0,0,1-13.62-10.67c-.06,0,0-.13.08-.08,1.16,1,8.24,6.09,13.63,10.66C634.52,202.35,634.44,202.44,634.37,202.39Z" style="fill:#263238"></path><path d="M643.37,184.72c-2.72,10.09-10.39,21-10.39,21l-7.4-5.59c4-6.69,10.58-17.49,13.83-22.73C642.71,177,645,178.74,643.37,184.72Z" style="fill:#263238"></path><path d="M622.91,248.65c.93.91,56.22.37,56.49,0,.74-1-7.73-36.66-14.09-50.19-8.15-17.34-12.46-18.78-15-19.75-3.29-1.23-11.9-.72-13.3-.08-1.6.71-5.66,8.82-7.56,15.25C625.61,206.81,622.11,247.85,622.91,248.65Z" style="fill:#6582E4"></path><path d="M677.85,239.74H623.18c0-.46.07-.94.11-1.42h54.23C677.64,238.81,677.75,239.28,677.85,239.74Z" style="fill:#263238"></path><path d="M675.33,229.43H624.07c0-.47.09-.94.14-1.42H675C675.08,228.49,675.21,229,675.33,229.43Z" style="fill:#263238"></path><path d="M677,235.93H623.48c.11-1.31.23-2.69.37-4.12h52.09C676.3,233.23,676.64,234.61,677,235.93Z" style="fill:#263238"></path><path d="M659,190.54c4.53,16.43,9.51,36,6.58,42.73-4.43,10.27-19.36,19.78-25.92,23.39-2.73,1.51-17.39-18.14-14.45-19.71,6.26-3.35,19.95-10.15,20.94-11.94s1.6-19.08,2.18-32.65C649,176.05,656.35,181,659,190.54Z" style="fill: rgb(119, 68, 66);"></path><path d="M628.49,235s-8.15,4.83-13.34,8.24c-2.89,1.9-7.56,5.6-9,8-2.22,3.55-9.25,19.79-5.35,21.57,3.53,1.62,7.8-13.1,7.8-13.1s-5.62,14.48-1,15.64,7.22-16.1,7.22-16.1-5.44,15-.49,15.45c3.73.34,7-15.17,7-15.17s-4.59,12.93-.76,13.44c4.23.57,8.12-13.55,8.12-13.55,10-.33,14.86-3.42,17.78-6.81C646.4,252.56,634.23,239.87,628.49,235Z" style="fill: rgb(119, 68, 66);"></path><path d="M610.18,254.53c-.72,1.68-1.46,3.37-2,5.11s-1.08,3.49-1.49,5.27a32,32,0,0,0-.92,7.07,67.58,67.58,0,0,1,2.89-12.2c.57-1.73,1-3.49,1.62-5.23C610.26,254.51,610.2,254.49,610.18,254.53Z" style="fill:#263238"></path><path d="M616.48,256.48c-1.47,2.08-3.83,8.9-4.26,13.14,0,.18.06.14.11,0,.67-2.22,3.44-10.91,4.2-13.1C616.55,256.46,616.5,256.45,616.48,256.48Z" style="fill:#263238"></path><path d="M622.19,257.17a28,28,0,0,0-3,10.28c0,.17.09.11.14-.06.94-3.44,1.64-6.14,3-10.17C622.32,257.16,622.22,257.11,622.19,257.17Z" style="fill:#263238"></path><path d="M645.4,209.91l20-2.76S663,194,657.85,184.92s-9.78-1.86-10.64,5.28S645.4,209.91,645.4,209.91Z" style="fill:#6582E4"></path><path d="M663.66,203.55A141,141,0,0,1,646.52,206c-.07,0-.08-.11,0-.12,1.53-.14,10.11-1.7,17.14-2.41C663.73,203.42,663.73,203.54,663.66,203.55Z" style="fill:#263238"></path><path d="M646.21,202.55c.21-2.41.58-5.86.65-8.28a0,0,0,0,0-.06,0c-.22,1.31-.39,2.63-.53,4,0-.08,0-.16,0-.23-.07-.7-.16-1.4-.29-2.09,0,0,0,0,0,0,0,.71,0,1.42.08,2.13,0,.44.1.88.15,1.32-.07.71-.27,2.44-.34,3.14-.11,1.17-.78,7.61-.66,7.6s2-.36,2.39-.4a.07.07,0,1,0,0-.14c-.34.11-1.88.27-2,.29.08-1.23.26-2.46.39-3.68S646.11,203.77,646.21,202.55Z" style="fill:#263238"></path><path d="M662.81,194.15c0,.62.07,1.24.14,1.85,0,.21.06.42.1.62-.47-1.41-1-2.8-1.62-4.16,0,0-.07,0,0,0,.86,2.36,1.51,4.77,2.15,7.2.31,1.17.6,2.36.87,3.54.14.61.28,1.22.43,1.83l.48,2.06c-.34,0-1.5.22-1.9.31-.09,0-.07.1,0,.08.35,0,2.14-.21,2.13-.25-.16-.63-.23-1.42-.35-2.06s-.24-1.18-.37-1.76c-.27-1.26-.57-2.52-.89-3.77-.17-.69-.37-1.37-.58-2.05,0-.54-.07-1.1-.14-1.64s-.16-1.23-.26-1.84C663,194,662.81,194.07,662.81,194.15Z" style="fill:#263238"></path><path d="M638.53,187.48c3.07.92,8.7-3.53,11-7.27.16-.26-.08-3.07-.21-6.51-.08-2.08-.11-4.4,0-6.52,0-.44-13.49,2.45-13.49,2.45a34,34,0,0,1,.8,8.22,4.54,4.54,0,0,1-.14.86l0,.14C636.16,180.49,635.55,186.58,638.53,187.48Z" style="fill: rgb(119, 68, 66);"></path><path d="M648.56,167.18c-.83,3.55-3.57,12.09-10.68,11.83a9,9,0,0,1-1.35-.15.61.61,0,0,1,0-.15,5.49,5.49,0,0,0,.15-.86,33.88,33.88,0,0,0-.81-8.23S645.64,167.54,648.56,167.18Z" style="fill:#263238"></path><path d="M650.16,150.15c1.81,4.59.4,18.4-2.71,21.69-4.51,4.79-12.43,5.84-16.63.29-4.07-5.37-1.91-23.32,1.61-26.38C637.62,141.26,647.48,143.36,650.16,150.15Z" style="fill: rgb(119, 68, 66);"></path><path d="M639.47,159.5s.07.05.06.09c-.12.92-.1,2,.71,2.4,0,0,0,.06,0,0C639.22,161.79,639.21,160.36,639.47,159.5Z" style="fill:#263238"></path><path d="M640.4,158.61c1.5,0,1.33,3-.07,3S639.13,158.58,640.4,158.61Z" style="fill:#263238"></path><path d="M634.06,159.22s-.07,0-.08.08c0,.94-.21,2-1.07,2.26,0,0,0,.06,0,.06C634,161.53,634.19,160.11,634.06,159.22Z" style="fill:#263238"></path><path d="M633.28,158.2c-1.49-.2-1.78,2.8-.4,3S634.54,158.37,633.28,158.2Z" style="fill:#263238"></path><path d="M641.66,157.3c-.4-.13-.75-.31-1.14-.48a2,2,0,0,1-1.07-.71.62.62,0,0,1,.15-.76,1.55,1.55,0,0,1,1.6-.07,2.31,2.31,0,0,1,1.28,1.08A.68.68,0,0,1,641.66,157.3Z" style="fill:#263238"></path><path d="M632.21,156.62c.42-.05.8-.16,1.21-.24a2,2,0,0,0,1.19-.49.63.63,0,0,0,0-.78,1.56,1.56,0,0,0-1.55-.38,2.3,2.3,0,0,0-1.47.8A.68.68,0,0,0,632.21,156.62Z" style="fill:#263238"></path><path d="M639.41,168.26c-.24.2-.48.49-.82.5a2.46,2.46,0,0,1-1-.29,0,0,0,0,0,0,0,1.25,1.25,0,0,0,1.15.58,1,1,0,0,0,.78-.78A0,0,0,0,0,639.41,168.26Z" style="fill:#263238"></path><path d="M638.59,165.41a3.17,3.17,0,0,1-2.2,1.29,4,4,0,0,1-1.15,0,.83.83,0,0,1-.22,0l-.2-.05a.22.22,0,0,1-.17-.22h0a.34.34,0,0,1,0-.1h0v-.09c0-.72.15-1.8.15-1.8-.27.11-1.64.64-1.6.26a48,48,0,0,1,1.79-9.54c0-.1.19-.07.17,0-.23,3-1,5.92-1.27,8.92a5.42,5.42,0,0,1,1.52-.37c.1,0-.29,2.1-.28,2.42a.1.1,0,0,0,0,0,4.45,4.45,0,0,0,3.35-.83C638.58,165.27,638.65,165.34,638.59,165.41Z" style="fill:#263238"></path><path d="M635.68,166.4a3.8,3.8,0,0,0,1.49,1.19,1.71,1.71,0,0,0,1,.08c.75-.19.78-.87.65-1.46a3.92,3.92,0,0,0-.32-.9A4.91,4.91,0,0,1,635.68,166.4Z" style="fill:#263238"></path><path d="M637.17,167.59a1.71,1.71,0,0,0,1,.08c.75-.19.78-.87.65-1.46A1.75,1.75,0,0,0,637.17,167.59Z" style="fill:#ff99ba"></path><path d="M650.79,160.09c-.95-.48-2.71-3.63-3.49-4.92s-.65-7.53-.56-9.38a9.86,9.86,0,0,1,3.42,4.36C651,152.2,651.14,156.11,650.79,160.09Z" style="fill:#263238;opacity:0.2"></path><path d="M634.54,150.25a4.79,4.79,0,0,0,4.28,1.9,4.87,4.87,0,0,0,3.95-2.68c0-.05.09,0,.07,0a4.85,4.85,0,0,1-4,3,5,5,0,0,1-4.42-2.22A.06.06,0,0,1,634.54,150.25Z" style="fill:#263238"></path><path d="M640.25,138.72a7.55,7.55,0,0,1,6.13,3.89,5.37,5.37,0,0,1,.31,3.54s-.11,0-.11,0a5.9,5.9,0,0,0-2.45-5.51,7.64,7.64,0,0,0-6.69-1.24,4.85,4.85,0,0,0-2.72,1.92c-.06.1-.26,0-.21-.08C635.37,139.53,637.74,138.5,640.25,138.72Z" style="fill:#263238"></path><path d="M623.72,143.73a6.07,6.07,0,0,1,2.82-3.13c1.77-.95,3.69-.68,5.59-.36,0,0,0,.09,0,.08a8.45,8.45,0,0,0-4.83.24,6,6,0,0,0-3,2.76,5.8,5.8,0,0,0,6.65,8.22c.07,0,.11.08,0,.1a6.08,6.08,0,0,1-7.24-3.5A6.15,6.15,0,0,1,623.72,143.73Z" style="fill:#263238"></path><path d="M650.83,153s2.93-4.82.89-7.83c-1.15-1.71-5.32-1.74-5.32-1.74a7.52,7.52,0,0,0-4.59-3.45c-3.43-1-7.68.79-7.68.79s-3.19-2.08-6.39-.49c-4.45,2.21-4.3,8.81-.08,11.17,3,1.66,7.26-.8,7.26-.8.39.08,4.32,2.78,7.61-.68,0,0,2.38,2.37,4.72.94A3.63,3.63,0,0,0,650.83,153Z" style="fill:#263238"></path><path d="M648.13,161.46s2.82-4.58,4.88-3.6.13,7.5-2.17,8.51a2.38,2.38,0,0,1-3.27-1.09Z" style="fill: rgb(119, 68, 66);"></path><path d="M652.41,159.71a0,0,0,0,1,0,.07,6,6,0,0,0-2.9,3.95,1.32,1.32,0,0,1,2-.47.05.05,0,0,1,0,.09,1.47,1.47,0,0,0-1.59.61,6.61,6.61,0,0,0-.69,1.35c-.07.15-.34.09-.29-.08v0C648.71,163.09,650.17,160.06,652.41,159.71Z" style="fill:#263238"></path></g></svg>