<?xml version="1.0" encoding="utf-8"?>
<svg viewBox="0 0 500 500" xmlns="http://www.w3.org/2000/svg">
  <g id="freepik--Folder--inject-23" transform="matrix(1, 0, 0, 1, -12.705798, -1.526567)">
    <polygon points="279.63,274.19 52.79,274.19 77.62,431 304.47,431 " style="fill: rgb(203, 203, 203);" id="polygon2"/>
    <polygon points="279.63,274.19 194.88,274.19 196.91,257.95 277.06,257.95 " style="fill:#90caf9" id="polygon4"/>
    <g style="opacity:0.1" id="g10">
      <polygon points="279.6300048828125 274.19000244140625 304.4700012207031 431" id="polygon6" style="fill: rgb(176, 176, 176);"/>
      <polygon points="279.63,274.19 194.88,274.19 196.91,257.95 277.06,257.95 " id="polygon8"/>
    </g>
    <path d="m 84.26,164.16 a 14.79,14.79 0 0 1 -0.5,-4 15.16,15.16 0 0 1 0.5,-4 14.39,14.39 0 0 1 0.5,4 15.18,15.18 0 0 1 -0.5,4 z" style="fill:#263238" id="path12"/>
    <path d="m 76,166.53 a 16.78,16.78 0 0 1 -4,-7 16.78,16.78 0 0 1 4,7 z" style="fill:#263238" id="path14"/>
    <path d="m 70.09,172.7 a 14.91,14.91 0 0 1 -3.75,-1.59 14.73,14.73 0 0 1 -3.25,-2.46 14.55,14.55 0 0 1 3.75,1.59 14.73,14.73 0 0 1 3.25,2.46 z" style="fill:#263238" id="path16"/>
    <path d="m 68,181 a 16.37,16.37 0 0 1 -8,0 14.66,14.66 0 0 1 4,-0.49 15,15 0 0 1 4,0.49 z" style="fill:#263238" id="path18"/>
    <path d="m 70.4,189.24 a 16.5,16.5 0 0 1 -7,4 14.43,14.43 0 0 1 3.26,-2.45 14.91,14.91 0 0 1 3.74,-1.55 z" style="fill:#263238" id="path20"/>
    <path d="m 76.56,195.19 a 14.85,14.85 0 0 1 -1.56,3.75 14.4,14.4 0 0 1 -2.45,3.24 14.63,14.63 0 0 1 1.59,-3.74 15,15 0 0 1 2.42,-3.25 z" style="fill:#263238" id="path22"/>
    <path d="m 84.88,197.25 a 14.75,14.75 0 0 1 0.49,4 14.3,14.3 0 0 1 -0.5,4 14.3,14.3 0 0 1 -0.5,-4 14.73,14.73 0 0 1 0.51,-4 z" style="fill:#263238" id="path24"/>
    <path d="m 93.1,194.88 a 14.38,14.38 0 0 1 2.45,3.25 14.85,14.85 0 0 1 1.59,3.75 14.38,14.38 0 0 1 -2.45,-3.25 14.7,14.7 0 0 1 -1.59,-3.75 z" style="fill:#263238" id="path26"/>
    <path d="m 99.05,188.71 a 16.59,16.59 0 0 1 7,4 16.43,16.43 0 0 1 -7,-4 z" style="fill:#263238" id="path28"/>
    <path d="m 101.11,180.39 a 14.66,14.66 0 0 1 4,-0.49 14.39,14.39 0 0 1 4,0.5 16.41,16.41 0 0 1 -8.08,0 z" style="fill:#263238" id="path30"/>
    <path d="m 98.74,172.16 a 15,15 0 0 1 3.25,-2.45 14.53,14.53 0 0 1 3.75,-1.58 15,15 0 0 1 -3.25,2.45 15.2,15.2 0 0 1 -3.75,1.58 z" style="fill:#263238" id="path32"/>
    <path d="m 92.57,166.22 a 14.55,14.55 0 0 1 1.59,-3.75 14.73,14.73 0 0 1 2.46,-3.25 16.83,16.83 0 0 1 -4.05,7 z" style="fill:#263238" id="path34"/>
    <polygon points="243.56,157.22 84.57,179.89 99.85,286.21 258.84,263.54 " style="fill:#ebebeb" id="polygon36"/>
    <polygon points="237.9,164.78 92.11,185.57 105.5,278.65 251.3,257.86 " style="fill: rgb(198, 198, 198);" id="polygon38"/>
    <path d="m 109.77,208.86 a 14.72,14.72 0 1 0 12.49,-16.65 14.7,14.7 0 0 0 -12.49,16.65 z" style="opacity:0.1" id="path40"/>
    <polygon points="191.3,197.12 150.79,272.34 251.22,258.02 " style="opacity:0.2" id="polygon42"/>
    <polygon points="146.57,227.75 111.43,277.99 194.34,266.16 " style="fill: rgb(176, 176, 176);" id="polygon44"/>
    <polygon points="111.43000030517578 277.989990234375 194.33999633789062 266.1600036621094" style="opacity: 0.1; fill: rgb(141, 141, 141);" id="polygon46"/>
    <polygon points="329.74,219.75 171.81,181.03 146.03,286.69 303.96,325.41 " style="fill:#ebebeb" id="polygon48"/>
    <polygon points="321.57,224.72 176.76,189.22 154.2,281.72 299.02,317.22 " style="fill:#ffffff" id="polygon50"/>
    <path d="m 182.85,221.27 a 16.23,16.23 0 1 0 19.62,-11.89 16.22,16.22 0 0 0 -19.62,11.89 z" style="fill:#dbdbdb" id="path52"/>
    <polygon points="265.58,237.51 199.13,292.88 298.89,317.34 " style="fill:#dbdbdb" id="polygon54"/>
    <polygon points="211.99,249.4 160.02,283.33 242.38,303.52 " style="fill:#ebebeb" id="polygon56"/>
    <polygon points="215.86,241.18 69.56,241.48 69.87,339.33 216.17,339.02 " style="fill:#ebebeb" id="polygon58"/>
    <polygon points="209.8,247.28 75.64,247.56 75.93,333.22 210.08,332.94 " style="fill: rgb(119, 119, 119);" id="polygon60"/>
    <path d="m 87.89,274.24 a 14.6,14.6 0 1 0 14.57,-14.63 14.61,14.61 0 0 0 -14.57,14.63 z" style="fill: rgb(153, 153, 153);" id="path62"/>
    <polygon points="163.66,270.54 117.58,333.27 209.99,333.08 " style="fill: rgb(148, 148, 148);" id="polygon64"/>
    <polygon points="119.42,292.51 81.36,333.37 157.65,333.21 " style="fill: rgb(148, 148, 148);" id="polygon66"/>
    <polygon points="342.59,311.76 199.9,297.97 190.77,393.42 333.47,407.21 " style="fill:#ebebeb" id="polygon68"/>
    <polygon points="336.1,317.13 205.24,304.48 197.27,388.05 328.12,400.7 " style="fill:#ffffff" id="polygon70"/>
    <path d="m 214.62,331.68 a 14.3,14.3 0 1 0 15.61,-12.86 14.31,14.31 0 0 0 -15.61,12.86 z" style="fill:#dbdbdb" id="path72"/>
    <polygon points="288.86,335.38 237.89,392.11 328.02,400.82 " style="fill:#dbdbdb" id="polygon74"/>
    <polygon points="243.61,352.54 202.55,388.72 276.97,395.91 " style="fill:#ebebeb" id="polygon76"/>
    <polygon points="321.86 287.2 95.01 287.2 77.52 431 304.36 431" style="fill: rgb(172, 172, 172);" id="polygon78"/>
    <polygon points="321.86,287.2 237.1,287.2 243.52,272.31 323.67,272.31 " style="fill: rgb(203, 203, 203);" id="polygon80"/>
  </g>
  <g id="freepik--Character--inject-23" transform="matrix(1, 0, 0, 1, -12.705798, -1.526567)">
    <path d="m 408.29,413.84 c 3.46,-1.87 8.14,-2.75 11.79,-1 0.14,0.07 0.05,0.27 -0.08,0.27 a 54.08,54.08 0 0 0 -11.55,1.22 0.25773048,0.25773048 0 0 1 -0.16,-0.49 z" style="fill:#263238" id="path83"/>
    <path d="m 406.14,416.29 c 3.46,-1.86 8.15,-2.74 11.8,-1 0.14,0.06 0,0.26 -0.09,0.26 a 54.64,54.64 0 0 0 -11.54,1.22 0.25460754,0.25460754 0 0 1 -0.17,-0.48 z" style="fill:#263238" id="path85"/>
    <path d="m 404,418.75 c 3.46,-1.87 8.14,-2.75 11.8,-1 0.14,0.07 0,0.27 -0.09,0.27 a 54.08,54.08 0 0 0 -11.55,1.22 0.25773048,0.25773048 0 0 1 -0.16,-0.49 z" style="fill:#263238" id="path87"/>
    <path d="m 401.86,421.2 c 3.46,-1.87 8.14,-2.75 11.79,-1 0.14,0.07 0.05,0.27 -0.08,0.27 a 54.08,54.08 0 0 0 -11.57,1.19 0.25,0.25 0 0 1 -0.14,-0.46 z" style="fill:#263238" id="path89"/>
    <path d="m 402.09,412.22 c 3.25,1.19 6.9,0.93 10.31,1.08 0.35,0 0.5,-0.36 0.43,-0.64 a 0.11,0.11 0 0 0 0,-0.16 20.64,20.64 0 0 0 -8.37,-6.62 c -1.95,-0.8 -4.94,-0.83 -5.74,1.63 -0.8,2.46 1.47,4.02 3.37,4.71 z m -1.89,-2.66 c -1.94,-3.83 3.07,-3.1 4.49,-2.46 a 21.82,21.82 0 0 1 2.62,1.49 c 1.77,1.12 3.34,2.47 5,3.75 -1.67,-0.17 -3.33,-0.21 -5,-0.32 -2.01,-0.14 -6.04,-0.35 -7.11,-2.46 z" style="fill:#263238" id="path91"/>
    <path d="m 423.36,403 c -1.63,-2 -4.4,-0.93 -5.94,0.51 a 20.69,20.69 0 0 0 -5.49,9.16 c 0,0.08 0,0.12 0.1,0.13 0,0.29 0.31,0.59 0.63,0.45 3.13,-1.35 6.64,-2.4 9.26,-4.67 1.53,-1.37 2.98,-3.73 1.44,-5.58 z m -6.36,7.19 c -1.52,0.7 -3.06,1.32 -4.56,2.08 1.08,-1.79 2.07,-3.61 3.32,-5.28 a 22.61,22.61 0 0 1 1.93,-2.32 c 1.09,-1.1 5.52,-3.56 5.07,0.71 -0.28,2.35 -3.96,3.97 -5.76,4.81 z" style="fill:#263238" id="path93"/>
    <path d="m 447.07,408.58 c 0.23,1.33 0.44,2.64 0.65,3.9 1.32,8.14 2.1,14.41 1.49,15 -1.87,1.79 -58,13.05 -60.09,12.79 -2.09,-0.26 -1.49,-6.25 0.34,-8.42 1.11,-1.32 8.78,-7 14.62,-11.22 3.76,-2.71 6.76,-4.85 6.76,-4.85 l -11.26,-36.4 37.72,-7.42 c 0,0 9.41,34.46 9.77,36.62 z" style="fill: rgb(222, 222, 222);" id="path95"/>
    <path d="m 389.11,440.25 c 2.1,0.25 58.23,-11 60.1,-12.79 0.61,-0.58 -0.17,-6.85 -1.5,-15 -0.2,-1.26 -0.41,-2.57 -0.64,-3.91 -0.13,-0.75 -1.37,-5.46 -2.91,-11.26 l -36.72,7.37 3.42,11.05 c 0,0 -3,2.13 -6.76,4.85 v 0 c -5.84,4.24 -13.51,9.9 -14.62,11.22 -1.85,2.22 -2.48,8.22 -0.37,8.47 z" style="fill:#ebebeb" id="path97"/>
    <path d="m 388.65,440.61 c 1.39,0.17 25.73,-4.67 43.37,-8.63 4.08,-0.91 7.81,-1.79 10.8,-2.53 4.13,-1 6.88,-1.83 7.28,-2.21 0.68,-0.66 -3.62,-23.67 -4.37,-26.34 l -37.32,7.72 2.19,6.9 c 0,0 -19.77,14.24 -21.6,16.48 -1.83,2.24 -2.49,8.35 -0.35,8.61 z" style="fill: rgb(185, 185, 185);" id="path99"/>
    <path d="m 389.53,438 c 9.57,-2.21 48.4,-10.24 58,-11.7 0.08,0 0.09,0 0,0.06 -9.44,2.4 -48.33,10.11 -58,11.8 -0.17,0.08 -0.2,-0.07 0,-0.16 z" style="fill:#263238" id="path101"/>
    <path d="m 399.63,399.8 c -0.41,-0.2 -11.34,-47.14 -16.33,-66.29 -7.2,-27.63 -14.17,-72.65 -16.27,-82 a 138,138 0 0 1 -8.72,-33.65 c 0,0 45.38,0 45.38,0 0,0 11.9,22.77 5.76,38.86 -0.56,1.47 7.93,58.34 12.31,67.54 3.8,8 21.1,66.28 21.1,66.28 z" style="fill: rgb(131, 131, 131);" id="path103"/>
    <path d="m 399.87,390.17 c 1.11,-0.4 2.3,-0.6 3.44,-0.9 1.14,-0.3 2.42,-0.61 3.64,-0.89 2.43,-0.55 4.86,-1.07 7.3,-1.6 4.87,-1 9.76,-2 14.64,-3 1.34,-0.28 2.68,-0.54 4,-0.79 a 22.63,22.63 0 0 1 4.07,-0.62 0.08,0.08 0 0 1 0,0.14 21,21 0 0 1 -3.41,1 c -1.21,0.3 -2.42,0.58 -3.64,0.86 -2.39,0.54 -4.79,1.09 -7.18,1.61 -4.84,1 -9.66,2.13 -14.51,3.11 -1.38,0.27 -2.75,0.56 -4.13,0.78 -1.38,0.22 -2.76,0.59 -4.15,0.7 -0.14,-0.06 -0.27,-0.32 -0.07,-0.4 z" style="fill:#37474f" id="path105"/>
    <path d="m 378.91,249.39 c 0.87,4.73 1.6,9.48 2.38,14.22 0.4,2.42 0.93,4.81 1.33,7.23 0.4,2.42 0.78,4.74 1.16,7.12 q 2.3,14.31 4.57,28.64 l 2.28,14.22 a 131.06,131.06 0 0 0 2.87,13.86 c 1.25,4.56 2.72,9.06 4.11,13.58 1.39,4.52 2.85,9.26 4.27,13.9 2.83,9.21 2.43,10.78 5,20.07 0.31,1.16 0.63,2.31 1,3.47 0,0.13 -0.16,0.18 -0.21,0.05 -3.13,-9.13 -2.69,-10.7 -5.6,-19.9 -2.91,-9.2 -5.83,-18.31 -8.57,-27.52 a 118.07,118.07 0 0 1 -3.2,-13.65 c -0.81,-4.74 -1.51,-9.51 -2.27,-14.26 q -2.28,-14.31 -4.57,-28.64 c -0.75,-4.69 -1.58,-9.38 -2.16,-14.1 -0.6,-4.89 -1.44,-9.74 -2.17,-14.61 -0.18,-1.19 -0.35,-2.38 -0.51,-3.58 -0.13,-0.24 0.24,-0.35 0.29,-0.1 z" style="fill: rgb(201, 201, 201);" id="path107"/>
    <path d="m 339.89,417 c 3.86,-0.74 8.59,-0.18 11.56,2.56 0.11,0.1 0,0.26 -0.16,0.22 A 55.17,55.17 0 0 0 339.9,417.49 0.25,0.25 0 0 1 339.89,417 Z" style="fill:#263238" id="path109"/>
    <path d="m 337.11,418.67 c 3.86,-0.75 8.59,-0.18 11.56,2.55 0.11,0.11 0,0.27 -0.16,0.23 a 55,55 0 0 0 -11.39,-2.29 0.25,0.25 0 0 1 -0.01,-0.49 z" style="fill:#263238" id="path111"/>
    <path d="m 334.33,420.37 c 3.86,-0.75 8.59,-0.18 11.56,2.55 0.11,0.11 0,0.27 -0.16,0.23 a 53.76,53.76 0 0 0 -11.39,-2.29 0.25,0.25 0 0 1 -0.01,-0.49 z" style="fill:#263238" id="path113"/>
    <path d="m 331.55,422.07 c 3.86,-0.75 8.59,-0.18 11.56,2.55 0.11,0.11 0,0.27 -0.16,0.23 a 53.79,53.79 0 0 0 -11.38,-2.29 0.25,0.25 0 0 1 -0.02,-0.49 z" style="fill:#263238" id="path115"/>
    <path d="m 334.46,413.57 c 2.74,2.11 6.31,3 9.51,4.12 0.33,0.12 0.59,-0.19 0.6,-0.49 a 0.1,0.1 0 0 0 0.09,-0.14 20.6,20.6 0 0 0 -6,-8.82 c -1.62,-1.34 -4.45,-2.26 -6,-0.16 -1.55,2.1 0.19,4.26 1.8,5.49 z m -1,-3.1 c -0.7,-4.24 3.86,-2 5,-1 a 22.54,22.54 0 0 1 2.06,2.2 59.87,59.87 0 0 1 3.62,5.07 c -1.53,-0.67 -3.11,-1.2 -4.67,-1.81 -1.85,-0.72 -5.63,-2.13 -6.02,-4.46 z" style="fill:#263238" id="path117"/>
    <path d="m 357.53,411.09 c -0.95,-2.4 -3.92,-2.2 -5.83,-1.29 a 20.74,20.74 0 0 0 -8,7.1 0.1,0.1 0 0 0 0.06,0.15 0.47,0.47 0 0 0 0.46,0.62 c 3.39,-0.35 7.05,-0.3 10.23,-1.68 1.88,-0.8 3.98,-2.62 3.08,-4.9 z m -8.25,5 c -1.66,0.22 -3.32,0.35 -5,0.62 a 61,61 0 0 1 4.75,-4 21.08,21.08 0 0 1 2.54,-1.63 c 1.37,-0.73 6.33,-1.75 4.62,2.18 -0.93,2.14 -4.93,2.58 -6.91,2.83 z" style="fill:#263238" id="path119"/>
    <path d="m 378.6,412.52 c 0,2.29 -1,25.22 -1.7,25.66 -2.18,1.39 -59.43,1.56 -61.43,0.9 -2,-0.66 -0.25,-6.42 2,-8.2 1.35,-1.08 10,-5.15 16.52,-8.17 v 0 c 4.22,-1.94 7.57,-3.45 7.57,-3.45 l -0.18,-6.72 -0.52,-30.6 h 37.82 c 0,0 0.18,15.73 -0.08,30.58 z" style="fill: rgb(222, 222, 222);" id="path121"/>
    <path d="m 315.46,439.07 c 2,0.66 59.26,0.49 61.44,-0.89 0.71,-0.45 1.67,-23.38 1.7,-25.66 0,-1.52 0,-3 0.06,-4.56 h -37.38 l 0.08,4.56 0.19,6.71 c 0,0 -3.36,1.52 -7.57,3.46 v 0 c -6.55,3 -15.17,7.1 -16.52,8.18 -2.24,1.78 -3.99,7.54 -2,8.2 z" style="fill:#ebebeb" id="path123"/>
    <path d="m 314.11,439.54 c 1.33,0.44 26.15,0.44 44.22,0 4.18,-0.1 8,-0.23 11.09,-0.38 4.26,-0.21 7.11,-0.45 7.57,-0.74 0.8,-0.52 1.94,-23.93 1.72,-26.69 l -37.83,0.2 -0.13,7.21 c 0,0 -22.38,10.17 -24.65,12 -2.27,1.83 -4.03,7.72 -1.99,8.4 z" style="fill: rgb(188, 188, 188);" id="path125"/>
    <path d="m 315.48,437.19 c 9.82,-0.3 49.46,-0.59 59.19,-0.14 0.08,0 0.08,0.05 0,0.06 -9.73,0.51 -49.37,0.48 -59.19,0.25 -0.21,-0.01 -0.21,-0.16 0,-0.17 z" style="fill:#263238" id="path127"/>
    <path d="m 385.36,258.43 c 0,0 -6.47,63.44 -6.57,64.93 -0.05,0.59 2.77,78.11 2.77,78.11 H 338.8 c 0,0 1.52,-72.64 2.17,-81.6 0.08,-1 2.84,-65.53 15.29,-102 h 47.49 c 0,0 -0.41,21.45 -10.17,37 a 81.18,81.18 0 0 0 -8.22,3.56 z" style="fill: rgb(108, 108, 108);" id="path129"/>
    <path d="m 341.5,393.46 c 1.17,-0.17 2.37,-0.13 3.55,-0.19 1.18,-0.06 2.5,-0.12 3.74,-0.15 2.5,-0.05 5,-0.07 7.48,-0.1 5,-0.06 10,0 15,0 1.37,0 2.73,0 4.09,0 a 22.57,22.57 0 0 1 4.11,0.22 c 0.07,0 0.06,0.12 0,0.14 a 20.9,20.9 0 0 1 -3.53,0.26 c -1.25,0.05 -2.49,0.08 -3.74,0.11 -2.45,0 -4.91,0.1 -7.36,0.13 -5,0.07 -9.89,0.15 -14.84,0.14 -1.4,0 -2.8,0 -4.2,-0.06 -1.4,-0.06 -2.83,0 -4.21,-0.15 -0.22,-0.03 -0.3,-0.32 -0.09,-0.35 z" style="fill:#37474f" id="path131"/>
    <path d="m 351.19,326.91 c 1.12,-22.85 3.53,-45.6 6.55,-68.27 1.66,-12.41 3.6,-24.81 6.95,-36.89 a 0.04,0 -180 0 0 0.08,0 292.9,292.9 0 0 0 -5.9,33.53 c -1.42,11.16 -2.76,22.35 -3.9,33.54 -2.3,22.72 -3.33,45.53 -3.47,68.36 -0.08,12.85 0.27,18.9 0.62,31.74 0,0.12 -0.18,0.11 -0.19,0 -1.88,-22.83 -1.86,-39.13 -0.74,-62.01 z" style="fill: rgb(193, 193, 193);" id="path133"/>
    <path d="m 353.48,226.67 c 0,-0.08 0.15,-0.06 0.14,0 -0.18,2.7 -0.63,5.65 0.57,8.2 1.06,2.25 3.07,3.52 4.93,5 0.06,0 0,0.14 -0.08,0.12 -2.46,-0.75 -4.92,-2.12 -5.89,-4.65 -1.09,-2.77 -0.51,-5.86 0.33,-8.67 z" style="fill: rgb(209, 209, 209);" id="path135"/>
    <path d="m 374.08,257 a 45.27,45.27 0 0 1 5.93,0.2 40.09,40.09 0 0 0 5.8,-0.11 21.63,21.63 0 0 0 2.88,-0.48 c 1,-0.23 1.92,-0.59 2.89,-0.86 a 5.37,5.37 0 0 1 2.67,0.1 c 1,0.23 2.06,0.4 3.11,0.53 a 30.34,30.34 0 0 0 7.19,0.19 c 0.09,0 0.13,0.12 0,0.14 a 29.24,29.24 0 0 1 -6.12,0.64 24,24 0 0 1 -3.15,-0.29 10.15,10.15 0 0 0 -2.94,-0.38 26.84,26.84 0 0 0 -2.87,1 22.54,22.54 0 0 1 -2.92,0.59 30.33,30.33 0 0 1 -5.95,0.19 26.4,26.4 0 0 1 -6.62,-1 0.23537205,0.23537205 0 0 1 0.1,-0.46 z" style="fill: rgb(203, 203, 203);" id="path137"/>
    <path d="m 378.68,319.87 a 0.07,0.07 0 0 1 0.05,0 0.07,0.07 0 0 1 0.06,0 0.09,0.09 0 0 1 0,0.06 v 0.15 0 a 0.08,0.08 0 0 1 -0.06,0 v -0.15 a 0.07,0.07 0 0 1 -0.05,-0.06 z" style="fill:#37474f" id="path139"/>
    <path d="m 379.81,309 q 0.57,-6.18 1.21,-12.34 c 0.86,-8.22 1.68,-16.44 2.53,-24.67 0.48,-4.66 0.82,-9.36 1.59,-14 0,-0.12 0.2,-0.13 0.2,0 -0.07,4.12 -0.51,8.25 -0.86,12.35 -0.35,4.1 -0.71,8.23 -1.1,12.34 -0.77,8.23 -1.51,16.46 -2.47,24.67 q -0.41,3.49 -0.87,7 c -0.3,2.33 -0.71,4.65 -1,7 0,0.1 -0.16,0.1 -0.16,0 0.36,-4.17 0.55,-8.3 0.93,-12.35 z" style="fill:#37474f" id="path141"/>
    <polygon points="382.18,115.5 274.89,129.86 284.58,201.61 391.87,187.24 " style="fill:#ebebeb" id="polygon143"/>
    <polygon points="378.32,120.56 279.94,133.73 288.44,196.54 386.81,183.37 " style="fill: rgb(212, 212, 212);" id="polygon145"/>
    <path d="m 292.53,149.42 a 9.1,9.1 0 1 0 7.81,-10.22 9.09,9.09 0 0 0 -7.81,10.22 z" style="opacity:0.1" id="path147"/>
    <polygon points="346.73,142.08 319,192.55 386.76,183.47 " style="opacity:0.2" id="polygon149"/>
    <polygon points="316.4,162.47 292.43,196.13 348.38,188.64 " style="fill: rgb(165, 165, 165);" id="polygon151"/>
    <polygon points="292.42999267578125 196.1300048828125 348.3800048828125 188.63999938964844" style="opacity: 0.1; fill: rgb(178, 178, 178);" id="polygon153"/>
    <path d="m 367.24,129.65 c -0.95,0.18 -5.16,-0.05 -7.72,3.93 -2.42,3.77 -2.66,14.77 -3.08,17.19 -0.42,2.42 -3.52,3 -4.09,5.79 -0.48,2.42 1.31,3.19 1.59,4.93 0.23,1.35 -1,3.46 0.35,5.39 1.24,1.76 3.19,1.25 4.42,1.74 1.23,0.49 2.15,3.22 4.41,3.83 2.26,0.61 4.09,-1.53 5.26,-1.59 1.17,-0.06 2.79,3.45 6.6,2.9 3.81,-0.55 4.71,-3.87 6.25,-4.6 1.54,-0.73 5.58,0.11 7.27,-2 1.69,-2.11 1.84,-4.75 2.59,-5.77 0.75,-1.02 2.48,-1 3.35,-3.28 0.87,-2.28 -1.3,-3.61 -1.72,-5.54 -0.29,-1.35 0.84,-2.67 -0.14,-4.69 -1.34,-2.78 -4.79,-1.95 -6.3,-4.8 -1.19,-2.23 -4,-12.08 -10.16,-14.16 -4.27,-1.41 -8.88,0.73 -8.88,0.73 z" style="fill:#263238" id="path155"/>
    <path d="m 356.52,150.19 a 3.51,3.51 0 0 1 -0.94,1.35 l -1.18,1.15 a 10.46,10.46 0 0 0 -2.06,2.47 3.3,3.3 0 0 0 -0.19,2.93 5.32,5.32 0 0 0 0.88,1.28 5.87,5.87 0 0 1 1,1.39 2.85,2.85 0 0 1 0,1.81 c -0.15,0.55 -0.31,1.06 -0.43,1.58 a 3.89,3.89 0 0 0 0.29,3 2.18,2.18 0 0 0 1.11,1 4.17,4.17 0 0 0 1.55,0.24 c 0.54,0 1.08,0 1.64,-0.07 a 2.77,2.77 0 0 1 1.61,0.26 2.89,2.89 0 0 0 -1.6,-0.1 c -0.54,0.07 -1.08,0.17 -1.64,0.22 a 4.49,4.49 0 0 1 -1.7,-0.17 2.74,2.74 0 0 1 -1.38,-1.08 A 4.24,4.24 0 0 1 353,164 c 0.12,-0.55 0.28,-1.08 0.41,-1.6 a 2.32,2.32 0 0 0 0,-1.42 c -0.38,-0.86 -1.42,-1.58 -1.86,-2.69 a 3.71,3.71 0 0 1 0.29,-3.4 10.62,10.62 0 0 1 2.27,-2.45 l 1.27,-1.05 a 3.78,3.78 0 0 0 1.14,-1.2 z" style="fill:#263238" id="path157"/>
    <path d="m 382.05,134.23 a 47.31,47.31 0 0 1 2.85,5.17 c 0.46,0.86 0.9,1.74 1.42,2.55 a 7,7 0 0 0 0.86,1.11 0.85,0.85 0 0 0 0.24,0.2 0.94,0.94 0 0 0 0.28,0.16 c 0.21,0.09 0.43,0.18 0.66,0.26 0.9,0.34 1.86,0.63 2.77,1.08 a 5.06,5.06 0 0 1 2.29,2 3.09,3.09 0 0 1 0.41,1.52 4.23,4.23 0 0 1 -0.36,1.48 6.37,6.37 0 0 0 -0.75,2.81 6.06,6.06 0 0 1 0.46,-2.91 4,4 0 0 0 0.25,-1.38 2.81,2.81 0 0 0 -0.43,-1.28 4.82,4.82 0 0 0 -2.13,-1.75 26.78,26.78 0 0 0 -2.74,-1 c -0.23,-0.09 -0.47,-0.18 -0.7,-0.29 a 2.19,2.19 0 0 1 -0.68,-0.49 7.24,7.24 0 0 1 -0.92,-1.24 22,22 0 0 1 -1.37,-2.64 l -1.19,-2.7 a 26,26 0 0 0 -1.22,-2.66 z" style="fill:#263238" id="path159"/>
    <path d="m 392,160.69 a 5.28,5.28 0 0 0 -0.51,2 c -0.11,0.69 -0.21,1.39 -0.35,2.09 a 10.22,10.22 0 0 1 -0.61,2.07 4.64,4.64 0 0 1 -1.3,1.83 5.83,5.83 0 0 1 -4.26,0.77 c -0.71,-0.08 -1.41,-0.21 -2.1,-0.28 a 4.49,4.49 0 0 0 -2.06,0.14 4,4 0 0 1 2.08,-0.44 c 0.71,0 1.42,0.07 2.11,0.1 a 5.94,5.94 0 0 0 3.85,-0.79 4.17,4.17 0 0 0 1.14,-1.57 13.9,13.9 0 0 0 0.68,-1.94 c 0.2,-0.67 0.35,-1.36 0.52,-2 0.09,-0.34 0.19,-0.69 0.3,-1 a 2,2 0 0 1 0.51,-0.98 z" style="fill:#263238" id="path161"/>
    <path d="m 379.32,164.49 c -0.07,0.94 -3.43,7.52 -7.6,8 -1.36,0.15 -2.53,-7.22 -2.53,-7.22 l -0.21,-0.53 -3,-7.34 8,-7.21 1.17,-1 c 0,0 0.67,2.07 1.48,4.64 l 0.12,0.37 c 0.05,0.14 0.1,0.28 0.14,0.42 0.12,0.38 0.25,0.77 0.37,1.17 l 0.27,0.9 c 0.09,0.32 0.17,0.63 0.27,0.94 a 51.48,51.48 0 0 1 1.52,6.86 z" style="fill: rgb(225, 225, 225);" id="path163"/>
    <path d="M 376.71,153.86 A 15.85,15.85 0 0 1 369,164.74 l -3,-7.34 8,-7.21 1.17,-1 c 0,0 0.73,2.1 1.54,4.67 z" style="fill:#263238" id="path165"/>
    <path d="m 353.27,145.48 c -2.18,13.72 5.73,16.71 8.75,17 2.7,0.3 11.88,1.53 15.47,-11.89 3.59,-13.42 -2.09,-18.77 -8.19,-20.06 -6.1,-1.29 -13.84,1.23 -16.03,14.95 z" style="fill: rgb(218, 218, 218);" id="path167"/>
    <path d="m 354.42,143.62 c 0.33,0 0.63,-0.07 1,-0.11 a 1.6,1.6 0 0 0 0.95,-0.3 0.51,0.51 0 0 0 0.05,-0.61 1.25,1.25 0 0 0 -1.18,-0.39 1.8,1.8 0 0 0 -1.18,0.54 0.52,0.52 0 0 0 0.36,0.87 z" style="fill:#263238" id="path169"/>
    <path d="m 363.07,144.79 a 8.94,8.94 0 0 1 -0.92,-0.28 1.55,1.55 0 0 1 -0.88,-0.47 0.5,0.5 0 0 1 0.05,-0.6 1.26,1.26 0 0 1 1.23,-0.18 1.84,1.84 0 0 1 1.07,0.74 0.53,0.53 0 0 1 -0.55,0.79 z" style="fill:#263238" id="path171"/>
    <path d="m 360.73,148 c 0,0 0.06,0.06 0.06,0.09 -0.14,0.94 -0.13,2 0.68,2.44 0,0 0,0.06 0,0.06 -1.03,-0.26 -1.02,-1.71 -0.74,-2.59 z" style="fill:#263238" id="path173"/>
    <path d="m 361.68,147.13 c 1.52,0.05 1.3,3.1 -0.11,3 -1.41,-0.1 -1.17,-3.05 0.11,-3 z" style="fill:#263238" id="path175"/>
    <path d="m 362.26,147.33 c 0.25,0.19 0.49,0.51 0.81,0.57 0.32,0.06 0.67,-0.24 0.94,-0.52 0,0 0.05,0 0.05,0 0,0.59 -0.3,1.17 -0.94,1.21 -0.64,0.04 -0.94,-0.51 -1.05,-1.1 -0.02,-0.08 0.09,-0.24 0.19,-0.16 z" style="fill:#263238" id="path177"/>
    <path d="m 355.94,147.23 c 0,0 -0.07,0 -0.07,0.08 0,0.95 -0.23,2 -1.1,2.28 0,0 0,0.06 0,0.06 1.05,-0.08 1.3,-1.52 1.17,-2.42 z" style="fill:#263238" id="path179"/>
    <path d="m 355.17,146.19 c -1.52,-0.21 -1.83,2.83 -0.43,3 1.4,0.17 1.69,-2.82 0.43,-3 z" style="fill:#263238" id="path181"/>
    <path d="m 354.51,146.33 c -0.26,0.13 -0.52,0.4 -0.81,0.39 -0.29,-0.01 -0.55,-0.37 -0.73,-0.7 0,0 0,0 -0.05,0 -0.07,0.58 0.06,1.21 0.6,1.38 0.54,0.17 0.92,-0.31 1.12,-0.87 0.04,-0.09 -0.03,-0.26 -0.13,-0.2 z" style="fill:#263238" id="path183"/>
    <path d="m 360.49,155.36 c -0.21,0.23 -0.42,0.55 -0.76,0.61 a 2.82,2.82 0 0 1 -1,-0.17 1.31,1.31 0 0 0 1.24,0.43 1,1 0 0 0 0.68,-0.89 c 0,0 -0.13,-0.02 -0.16,0.02 z" style="fill:#263238" id="path185"/>
    <path d="m 356.56,151.56 c 0,0 -0.31,1.39 -0.37,2.05 0,0.07 0.15,0.11 0.38,0.14 v 0 a 3.15,3.15 0 0 0 3.17,-0.92 c 0.05,-0.06 0,-0.13 -0.09,-0.1 a 4.77,4.77 0 0 1 -2.95,0.59 c 0,-0.19 0.61,-2.37 0.51,-2.39 a 5.89,5.89 0 0 0 -1.54,0.22 c 0.57,-2.92 1.6,-5.72 2.12,-8.63 a 0.09013878,0.09013878 0 0 0 -0.17,-0.06 48.36,48.36 0 0 0 -2.68,9.2 c -0.06,0.34 1.35,-0.01 1.62,-0.1 z" style="fill:#263238" id="path187"/>
    <path d="m 357.05,153.52 a 3.31,3.31 0 0 0 1.16,1.19 1.57,1.57 0 0 0 0.89,0.17 c 0.66,-0.08 0.76,-0.66 0.71,-1.19 a 3.79,3.79 0 0 0 -0.18,-0.81 4.27,4.27 0 0 1 -2.58,0.64 z" style="fill:#263238" id="path189"/>
    <path d="m 358.21,154.71 a 1.57,1.57 0 0 0 0.89,0.17 c 0.66,-0.08 0.76,-0.66 0.71,-1.19 a 1.54,1.54 0 0 0 -1.6,1.02 z" style="fill: rgb(144, 144, 144);" id="path191"/>
    <path d="m 376.74,153 c -1.46,-0.43 -5.25,-6.17 -3.72,-13.35 0,0 -0.93,6.55 -0.67,7.6 0.26,1.05 -1.62,-2.79 -0.47,-8.6 a 23.86,23.86 0 0 1 -6.63,1.7 c -2.9,0.14 -4.56,-0.27 -4.71,-0.51 -0.15,-0.24 4.15,-0.58 5.52,-1.58 0,0 -8,1.69 -11.42,1.18 -0.39,-0.06 1,-8.12 6.92,-10.3 5.92,-2.18 13.29,3.35 15,6 0,0 2.49,1 4.42,5.43 1.93,4.43 -2.67,12.93 -4.24,12.43 z" style="fill:#263238" id="path193"/>
    <path d="m 371.89,148.36 c 0,0 3.19,-4.22 5.11,-3.07 1.92,1.15 -0.58,7.35 -2.92,8.13 A 2.35,2.35 0 0 1 371,152 Z" style="fill: rgb(210, 210, 210);" id="path195"/>
    <path d="m 376.24,147.05 a 0.03,0 -90 0 0 0,0.06 6,6 0 0 0 -3.2,3.6 1.3,1.3 0 0 1 1.95,-0.28 c 0,0 0,0.09 -0.05,0.08 a 1.44,1.44 0 0 0 -1.6,0.45 6.61,6.61 0 0 0 -0.81,1.26 c -0.08,0.14 -0.34,0.05 -0.28,-0.11 v 0 c 0.06,-2.11 1.75,-4.93 3.99,-5.06 z" style="fill: rgb(231, 231, 231);" id="path197"/>
    <path d="m 355.16,205.19 1.1,12.64 c 0,0 35.79,0.81 47.43,0 0,0 -5.56,-38.52 -18.34,-50.09 -6.84,-6.2 -11.47,-7.53 -16.16,-2.78 -1.18,1.2 -15.32,19.88 -16.8,27 -1.3,6.3 2.77,13.23 2.77,13.23 z" style="fill: rgb(75, 75, 75);" id="path199"/>
    <path d="m 371,168.77 a 1,1 0 1 1 -1,-1 1,1 0 0 1 1,1 z m 10,-1 a 1,1 0 1 0 1,1 1,1 0 0 0 -1,-0.96 z m -6.11,-5.72 a 0.94,0.94 0 0 0 0.61,0.23 1,1 0 0 0 0.54,-0.16 7.47,7.47 0 0 0 -1.16,-0.03 z M 359,183.16 a 1,1 0 1 0 0.95,1 1,1 0 0 0 -0.95,-1 z m 11,0 a 1,1 0 1 0 1,1 0.95,0.95 0 0 0 -1,-1 z m 11,0 a 1,1 0 1 0 1,1 0.94,0.94 0 0 0 -1,-1 z m 11,0 a 1,1 0 1 0 0.95,1 0.94,0.94 0 0 0 -0.95,-1 z m -27.49,-7.41 a 1,1 0 1 0 0.95,0.95 1,1 0 0 0 -0.96,-0.95 z m 11,0 a 1,1 0 1 0 1,0.95 1,1 0 0 0 -1.02,-0.95 z m 11,0 a 1,1 0 1 0 0.95,0.95 0.95,0.95 0 0 0 -0.97,-0.95 z M 359,198.5 a 1,1 0 1 0 0.95,0.95 1,1 0 0 0 -0.95,-0.95 z m 11,0 a 1,1 0 0 0 0,1.91 1,1 0 1 0 0,-1.91 z m 11,0 a 1,1 0 0 0 0,1.91 1,1 0 1 0 0,-1.91 z m 11,0 a 1,1 0 1 0 0.95,0.95 0.94,0.94 0 0 0 -0.95,-0.95 z m -38.49,-7.41 a 1,1 0 1 0 0.95,0.95 1,1 0 0 0 -0.96,-0.95 z m 11,0 a 1,1 0 1 0 0.95,0.95 1,1 0 0 0 -0.96,-0.95 z m 11,0 a 1,1 0 1 0 1,0.95 1,1 0 0 0 -1.02,-0.95 z m 11,0 a 1,1 0 1 0 0.95,0.95 0.95,0.95 0 0 0 -0.97,-0.95 z m 11.07,0 h -0.07 a 1,1 0 1 0 0,1.91 0.91,0.91 0 0 0 0.58,-0.2 v 0 c -0.18,-0.57 -0.35,-1.14 -0.53,-1.7 z M 359,213.84 a 1,1 0 1 0 0.95,0.95 1,1 0 0 0 -0.95,-0.95 z m 11,0 a 1,1 0 1 0 1,0.95 1,1 0 0 0 -1,-0.95 z m 11,0 a 1,1 0 0 0 0,1.91 1,1 0 1 0 0,-1.91 z m 11,0 a 1,1 0 1 0 0.95,0.95 0.95,0.95 0 0 0 -0.95,-0.95 z m 11,0 v 0 a 1,1 0 1 0 0,1.91 0.86,0.86 0 0 0 0.36,-0.08 c -0.1,-0.53 -0.21,-1.14 -0.36,-1.83 z m -38.53,-7.41 a 1,1 0 1 0 0.95,1 1,1 0 0 0 -0.92,-1 z m 11,0 a 1,1 0 1 0 1,1 1,1 0 0 0 -0.98,-1 z m 11,0 a 1,1 0 1 0 0.95,1 1,1 0 0 0 -0.93,-1 z m 11,0 a 1,1 0 1 0 0,1.91 1,1 0 0 0 0,-1.91 z" style="fill: rgb(162, 162, 162);" id="path201"/>
    <path d="m 374.24,174.63 c -2.9,8.63 -17.44,37.66 -26,39.28 -13.36,2.54 -33.54,-0.26 -42.12,-0.91 -4.67,-0.36 2.17,-29.3 7,-27.28 6.3,2.62 26.42,3.78 28.86,4 2.44,0.22 14.26,-13 23.31,-22.07 7.58,-7.55 12.62,-3.95 8.95,6.98 z" style="fill: rgb(228, 228, 228);" id="path203"/>
    <path d="m 282.23,182.75 a 3.93,3.93 0 0 0 0.53,4.46 5.89,5.89 0 0 0 -2.67,2.95 c -0.81,2.26 2.39,4.53 2.39,4.53 a 7.2,7.2 0 0 0 -2.32,3.55 c -0.55,2.25 2.35,5 2.35,5 a 6.33,6.33 0 0 0 -0.07,4.41 c 1.51,3.77 7.6,4.87 11.47,5.61 3.87,0.74 15.54,-0.79 17.8,-0.86 L 318,188.85 c 0,0 -9.1,-9 -22.42,-9.73 -3.94,-0.2 -11.81,0.97 -13.35,3.63 z" style="fill: rgb(229, 229, 229);" id="path205"/>
    <path d="m 283,186.85 c 4.23,-0.81 8.47,-0.32 12.74,-0.07 0.09,0 0.08,0.16 0,0.15 -4.24,-0.3 -8.48,0.25 -12.72,0.12 -0.11,0 -0.12,-0.18 -0.02,-0.2 z" style="fill:#263238" id="path207"/>
    <path d="m 282.63,194.38 a 11.08,11.08 0 0 1 2.93,0.11 c 1,0.12 2.07,0.25 3.1,0.39 2.07,0.3 4.12,0.64 6.17,1 0.09,0 0.08,0.16 0,0.14 -2.06,-0.28 -4.12,-0.54 -6.19,-0.74 -1,-0.11 -2.07,-0.2 -3.11,-0.28 a 13.57,13.57 0 0 1 -2.91,-0.38 0.14,0.14 0 0 1 0.01,-0.24 z" style="fill:#263238" id="path209"/>
    <path d="m 282.6,203.24 a 7.65,7.65 0 0 1 2.64,0.25 l 2.81,0.44 c 1.88,0.28 3.76,0.57 5.64,0.79 a 0.08,0.08 0 1 1 0,0.15 c -1.91,-0.22 -3.84,-0.4 -5.75,-0.64 l -2.82,-0.35 a 7.5,7.5 0 0 1 -2.53,-0.55 c 0,0 -0.03,-0.08 0.01,-0.09 z" style="fill:#263238" id="path211"/>
    <path d="m 334.61,188.43 -0.2,29.1 c 0,0 12.95,-0.46 16.69,-3.41 3.74,-2.95 18.68,-23.37 23.32,-38.09 4.64,-14.72 -2,-15.49 -9.62,-8.19 -7.62,7.3 -21.72,20.78 -22.42,21 -0.7,0.22 -7.77,-0.41 -7.77,-0.41 z" style="fill: rgb(97, 97, 97);" id="path213"/>
    <path d="m 371,168.77 a 1,1 0 1 1 -1,-1 1,1 0 0 1 1,1 z m -22.41,14.55 v 0 l -1.35,1.27 a 1,1 0 0 0 1.77,-0.48 1,1 0 0 0 -0.47,-0.79 z m 10.46,-0.16 a 1,1 0 1 0 0.95,1 1,1 0 0 0 -1,-1 z m 11,0 a 1,1 0 1 0 1,1 0.95,0.95 0 0 0 -1.05,-1 z m -5.49,-7.41 a 1,1 0 1 0 0.95,0.95 1,1 0 0 0 -1.01,-0.95 z M 337,198.5 a 1,1 0 1 0 0.95,0.95 0.94,0.94 0 0 0 -0.95,-0.95 z m 11,0 a 1,1 0 1 0 0.95,0.95 1,1 0 0 0 -0.95,-0.95 z m 11,0 a 1,1 0 1 0 0.95,0.95 1,1 0 0 0 -0.95,-0.95 z m -16.5,-7.41 a 1,1 0 1 0 0.95,0.95 0.95,0.95 0 0 0 -0.95,-0.95 z m 11,0 a 1,1 0 1 0 0.95,0.95 1,1 0 0 0 -0.95,-0.95 z m 11,0 a 1,1 0 1 0 0.95,0.95 1,1 0 0 0 -0.95,-0.95 z M 337,213.84 a 1,1 0 1 0 0.95,0.95 0.95,0.95 0 0 0 -0.95,-0.95 z m 11,0 a 1,1 0 0 0 -1,0.95 1,1 0 0 0 0.62,0.89 v 0 c 0.39,-0.11 0.76,-0.23 1.12,-0.35 0,0 0,0 0,0 a 1.06,1.06 0 0 0 0.15,-0.53 1,1 0 0 0 -0.89,-0.96 z m -5.5,-7.41 a 1,1 0 1 0 0.95,1 1,1 0 0 0 -0.95,-1 z m 11,0 a 1,1 0 1 0 0.95,1 1,1 0 0 0 -0.95,-1 z" style="fill: rgb(184, 184, 184);" id="path215"/>
    <path d="m 339.43,215 c -0.25,-8 -0.47,-16.12 0.06,-24.16 0,-0.07 0.12,-0.06 0.13,0 0.5,8 0.25,16.11 0,24.14 a 0.09552487,0.09552487 0 0 1 -0.19,0.02 z" style="fill:#263238" id="path217"/>
    <path d="m 354,211 c 2.49,-3.85 9.36,-12.26 18.93,-30.25 a 0.035,0 -180 0 0 0.07,0 56.22,56.22 0 0 1 -2.42,5.36 c 0.45,-0.6 0.9,-1.21 1.38,-1.78 0,-0.05 0.13,0 0.1,0 a 10.83,10.83 0 0 1 -1.19,1.73 c -0.24,0.29 -0.49,0.57 -0.74,0.86 -10,18.64 -14.8,22.61 -16,24.08 -0.06,0.13 -0.19,0.06 -0.13,0 z" style="fill:#263238" id="path219"/>
  </g>
</svg>