<svg xmlns="http://www.w3.org/2000/svg" viewBox="0 0 500 500"><g id="freepik--Character--inject-43"><path d="M340.31,129.43l-.4.1a.24.24,0,0,1,.07-.12h0Z" style="fill:#263238"></path><path d="M371.34,178h0" style="fill:none;stroke:#ff98b9;stroke-linecap:round;stroke-linejoin:round;stroke-width:0px"></path><rect x="351.63" y="160.83" width="0.01" height="7.04" style="fill:#dd6a57"></rect><path d="M351.64,160.83v8.92c0-.11,0-.23,0-.35v-8.57Z" style="fill:#dd6a57"></path><path d="M371.34,178h0" style="fill:none;stroke:#ff98b9;stroke-linecap:round;stroke-linejoin:round;stroke-width:0px"></path><path d="M351.82,418.33l-.18,0v-.13Z" style="fill:#dd6a57"></path><polygon points="333.08 345.13 330.71 359.36 314.63 446.18 312.04 446.18 323.73 359.36 325.46 345.13 333.08 345.13" style="fill:#dbdbdb"></polygon><polygon points="325.46 345.13 333.08 345.13 330.71 359.36 323.73 359.36 325.46 345.13" style="fill:#a6a6a6"></polygon><polygon points="383.56 446.18 380.97 446.18 364.9 359.36 362.52 345.13 370.15 345.13 371.87 359.36 383.56 446.18" style="fill:#dbdbdb"></polygon><polygon points="370.15 345.13 371.87 359.36 364.9 359.36 362.52 345.13 370.15 345.13" style="fill:#a6a6a6"></polygon><polygon points="431.79 446.18 429.19 446.18 413.12 359.36 410.74 345.13 418.37 345.13 420.1 359.36 431.79 446.18" style="fill:#dbdbdb"></polygon><polygon points="420.1 359.36 413.12 359.36 410.74 345.13 418.37 345.13 420.1 359.36" style="fill:#a6a6a6"></polygon><polygon points="427.68 351.82 309.87 351.82 309.87 339.4 353.97 339.4 368.79 253.18 423.18 253.18 427.68 351.82" style="fill:#dbdbdb"></polygon><polygon points="427.68 351.82 421.25 351.82 417.07 253.18 423.18 253.18 427.68 351.82" style="fill:#a6a6a6"></polygon><path d="M302.47,465.88c2.28.22,64.36-14.64,66.32-16.66.24-.22-1-5.86-2.79-13.56l0-.15c-1.12-4.88-19.25-44.32-19.25-44.32l-40.24,11.26,18.32,36.6s-7.57,5.47-14.05,10.67l0,0a87.11,87.11,0,0,0-8.19,7C300.63,459.16,300.19,465.68,302.47,465.88Z" style="fill:#f7a9a0"></path><path d="M302.47,465.88c2.28.21,64.36-14.64,66.32-16.65.24-.23-1-5.87-2.79-13.57l0-.14c-.41-1.82-3.2-8.45-6.53-16-6.62,1.79-30.36,8.23-39,10.9l4.34,8.68s-7.57,5.48-14.06,10.68h0a91.09,91.09,0,0,0-8.2,7C300.63,459.16,300.19,465.69,302.47,465.88Z" style="fill:#fff"></path><path d="M302.26,466.18c2.35.2,64.48-14.83,66.49-16.9.76-.78-.62-10.58-4-21l-40,9.73s-20.44,16.22-22.4,18.72S299.92,466,302.26,466.18Z" style="fill:#D8E3FF"></path><path d="M302.55,463.48c10.36-2.78,52.37-13,62.82-15,.08,0,.1,0,0,.07-10.21,3-52.31,12.84-62.79,15C302.37,463.69,302.34,463.53,302.55,463.48Z" style="fill:#263238"></path><path d="M305.73,453.56a8.63,8.63,0,0,1,6.85,1,8.36,8.36,0,0,1,3.67,5c0,.06-.1.09-.13,0a10,10,0,0,0-10.36-5.94C305.68,453.71,305.65,453.59,305.73,453.56Z" style="fill:#263238"></path><path d="M321.66,439.88c4.15-1.07,9.34-.77,12.75,2,.14.11,0,.29-.16.26a59.58,59.58,0,0,0-12.54-1.75A.27.27,0,0,1,321.66,439.88Z" style="fill:#263238"></path><path d="M318.74,441.91c4.16-1.06,9.34-.76,12.76,2,.13.11,0,.29-.16.26a59.58,59.58,0,0,0-12.55-1.75A.27.27,0,0,1,318.74,441.91Z" style="fill:#263238"></path><path d="M315.83,443.94c4.15-1.06,9.34-.76,12.76,2,.13.11,0,.3-.17.26a59.49,59.49,0,0,0-12.54-1.75A.27.27,0,0,1,315.83,443.94Z" style="fill:#263238"></path><path d="M312.91,446c4.16-1.07,9.35-.77,12.76,2,.13.1,0,.29-.16.26A58.94,58.94,0,0,0,313,446.51.27.27,0,0,1,312.91,446Z" style="fill:#263238"></path><path d="M360.32,439.28c4.68-1.12,6.43,6.16,1.74,7.28S355.64,440.4,360.32,439.28Z" style="fill:#263238"></path><path d="M316.27,435.87c3,2.36,6.82,3.36,10.29,4.7a.52.52,0,0,0,.66-.52.12.12,0,0,0,.11-.15,22.62,22.62,0,0,0-6.37-9.75c-1.74-1.5-4.81-2.57-6.5-.31S314.55,434.5,316.27,435.87Zm-1-3.4c-.68-4.64,4.26-2.14,5.49-1a24.44,24.44,0,0,1,2.21,2.45c1.43,1.77,2.59,3.71,3.84,5.61-1.66-.76-3.37-1.37-5.06-2.07C319.71,436.64,315.62,435,315.24,432.47Z" style="fill:#263238"></path><path d="M341.49,433.66c-1-2.64-4.24-2.48-6.33-1.53a22.5,22.5,0,0,0-8.84,7.57.11.11,0,0,0,.05.17c-.07.31.11.72.5.68,3.7-.3,7.69-.18,11.19-1.61C340.1,438.1,342.42,436.16,341.49,433.66Zm-9.11,5.28c-1.81.19-3.63.3-5.44.56,1.73-1.47,3.39-3,5.27-4.3a23.56,23.56,0,0,1,2.79-1.73c1.52-.76,6.95-1.77,5,2.49C338.92,438.3,334.55,438.7,332.38,438.94Z" style="fill:#263238"></path><path d="M321,435.7l43.11-12.93s-35.53-74-34.41-77.82c.75-2.51,54-2.69,69.64-16.71,16.16-14.51,3.58-43,3.58-43L358.1,285s.77,9.35-1,10.81c-1.12,1-62.37,6.35-74.09,28.87C272.41,345.11,321,435.7,321,435.7Z" style="fill:#455a64"></path><path d="M329.67,345c-.19.63.67,3.3,2.25,7.28l-32.2,39.55c-11.48-26.17-22.27-56.35-16.67-67.11,11.74-22.51,73-27.9,74.11-28.87,1.7-1.45.93-10.81.93-10.81l28.44.15-47.26,58C333.58,343.81,329.86,344.29,329.67,345Z" style="fill:#263238"></path><path d="M319.9,426.58a28.12,28.12,0,0,1,3.52-1.31c1.24-.42,2.49-.85,3.74-1.25,2.46-.79,4.93-1.55,7.41-2.25,5-1.41,10-2.8,15.07-4.08,2.62-.67,8.26-2.13,8.61-2.08.16,0,.2.31.05.36-4.87,1.75-9.82,3.24-14.77,4.75s-9.88,3-14.89,4.26c-1.39.35-2.79.66-4.18,1a30.09,30.09,0,0,1-4.43.95C319.89,426.94,319.75,426.66,319.9,426.58Z" style="fill:#263238"></path><path d="M400.48,293.76c-.14-1.5-.3-3-.47-4.48,0-.18-.29-.17-.27,0,.59,6.06,1.21,12.26.09,18.3a26.08,26.08,0,0,1-8,14.49c-8.89,8.29-21.31,10.73-32.89,12.7-6.63,1.13-13.3,2-20,2.65q-4.92.49-9.85.79c-3.26.21-6.52.24-9.78.42-1,.06-1.95.53-1.79,1.7a8.41,8.41,0,0,0,.78,2.06l1.05,2.38q2,4.43,3.95,8.86,4.08,9.12,8.29,18.19,8.36,18,17.33,35.73,1.11,2.2,2.23,4.39c.05.1.19,0,.14-.08q-8.57-17.94-16.93-36-4.14-9-8.27-17.92-2-4.48-4.07-9-1-2.25-2-4.5c-.34-.75-.67-1.5-1-2.26s-1.29-2.12-.59-2.7c.47-.39,1.44-.25,2-.27l2.6-.09c1.65-.05,3.29-.12,4.94-.2q5-.25,10-.68,9.76-.86,19.46-2.43c11.5-1.85,24-3.94,33.22-11.66a27.75,27.75,0,0,0,8.83-12.88C401.19,305.65,401,299.59,400.48,293.76Z" style="fill:#263238"></path><path d="M210.2,409.12c1.62,1.62,58.91,29.77,61.71,29.47.32,0,3-5.15,6.5-12.23l.07-.14c2.24-4.47,22.62-42.12,22.62-42.12l-35.64-18-20.95,36.63s-9.32-.61-17.64-.74h0a90.4,90.4,0,0,0-10.77.15C213.07,402.77,208.57,407.52,210.2,409.12Z" style="fill:#f7a9a0"></path><path d="M210.2,409.12c1.62,1.62,58.91,29.77,61.71,29.46.32,0,3-5.14,6.5-12.21l.07-.14c.15-.31.31-.63.48-1s.23-.45.36-.68l.53-1c1.55-2.94,4.1-7.7,6.91-12.92l-36.35-18.32-5.9,10.34s-9.32-.61-17.64-.74h0a89.57,89.57,0,0,0-10.77.16C213.07,402.77,208.57,407.51,210.2,409.12Z" style="fill:#fff"></path><path d="M209.85,409.22c1.68,1.65,59.12,29.7,62,29.38,1.08-.11,6.27-8.55,10.27-18.72l-37.06-18s-26.08-.55-29.19.14S208.18,407.57,209.85,409.22Z" style="fill:#D8E3FF"></path><path d="M211.8,407.32c9.74,4.47,48.62,23.4,57.91,28.55.08,0,.05.1,0,.06-9.75-4.21-48.47-23.46-58-28.45C211.52,407.38,211.59,407.23,211.8,407.32Z" style="fill:#263238"></path><path d="M220.57,401.71a8.62,8.62,0,0,1,4.61,5.17,8.34,8.34,0,0,1-.36,6.19c0,.05-.14,0-.12-.06a10,10,0,0,0-4.19-11.18C220.43,401.79,220.49,401.68,220.57,401.71Z" style="fill:#263238"></path><path d="M241.56,401.33c3.88,1.83,7.69,5.37,8.54,9.69,0,.17-.2.21-.29.1a59.18,59.18,0,0,0-8.55-9.35A.27.27,0,0,1,241.56,401.33Z" style="fill:#263238"></path><path d="M238,401c3.88,1.82,7.68,5.37,8.54,9.69,0,.17-.2.21-.29.09a59.6,59.6,0,0,0-8.55-9.34A.27.27,0,0,1,238,401Z" style="fill:#263238"></path><path d="M234.48,400.74c3.88,1.83,7.68,5.37,8.54,9.69,0,.17-.21.22-.29.1a59.16,59.16,0,0,0-8.55-9.34A.27.27,0,0,1,234.48,400.74Z" style="fill:#263238"></path><path d="M230.94,400.45c3.88,1.83,7.68,5.37,8.54,9.69,0,.17-.21.21-.29.1a59.67,59.67,0,0,0-8.55-9.35A.27.27,0,0,1,230.94,400.45Z" style="fill:#263238"></path><path d="M271.73,425.53c4.31,2.12,1,8.84-3.3,6.71S267.4,423.4,271.73,425.53Z" style="fill:#263238"></path><path d="M240,394.81c.77,3.7,3.11,6.94,4.93,10.17a.51.51,0,0,0,.84,0,.12.12,0,0,0,.18-.05,22.59,22.59,0,0,0,1.31-11.57c-.38-2.26-2.07-5-4.81-4.38C239.83,389.64,239.52,392.65,240,394.81Zm1.38-3.28c2.43-4,4.64,1.06,4.86,2.75a25.63,25.63,0,0,1,.13,3.28,66.5,66.5,0,0,1-.61,6.77c-.8-1.64-1.73-3.2-2.58-4.82C242.13,397.59,240,393.74,241.35,391.53Z" style="fill:#263238"></path><path d="M260.8,409.18c.93-2.66-1.68-4.61-3.89-5.21a22.52,22.52,0,0,0-11.64.19.11.11,0,0,0-.07.17.52.52,0,0,0,0,.84c3,2.12,6,4.77,9.64,5.89C256.9,411.72,259.93,411.7,260.8,409.18Zm-10.38-1.74c-1.52-1-3-2.08-4.55-3a67.06,67.06,0,0,1,6.8,0,25.32,25.32,0,0,1,3.26.46c1.65.37,6.48,3.06,2.26,5.1C255.86,411.13,252.24,408.64,250.42,407.44Z" style="fill:#263238"></path><path d="M243,396.76l43,21.48s33.55-68.21,37.23-72.6c4.91-5.86,68.82,2.41,83.89-16.51,15.59-19.57,2.24-43.87,2.24-43.87l-48.65,0a40.38,40.38,0,0,0,2.66,13.28s-55.63-3.31-71.37,12C279.87,322.25,243,396.76,243,396.76Z" style="fill:#455a64"></path><path d="M372.18,303.42a85.87,85.87,0,0,0-7.73-4.73,32.83,32.83,0,0,0-5.87-2.36c-1.41-.35-2-.45-.71.18l3.58,1.7-.75,0c-1-.05-1.91-.08-2.87-.11-1.87-.05-3.74,0-5.61-.05-3.8,0-7.56.34-11.35.53a.08.08,0,0,0,0,.16c3.78-.13,7.57.07,11.35.06,1.88,0,3.75.05,5.62.08l2.74,0a22.44,22.44,0,0,0,2.32,0l1,.5c2.75,1.29,5.49,2.65,8.14,4.14A.07.07,0,0,0,372.18,303.42Z" style="fill:#263238"></path><path d="M359.51,283.41c.49,2.29.92,4.6,1.49,6.88.27,1,.52,2.11.88,3.13.3.85.77,1.84,1.75,2.06s1.47-.7,1.41-1.64a30.72,30.72,0,0,0-.47-3.13c-.19-1.19-.39-2.38-.57-3.57-.09-.6-.18-1.19-.26-1.79,0-.15-.09-1.29-.16-1.62a.07.07,0,0,1-.07,0h0a.06.06,0,0,1-.06-.06c0-.09,0-.11.06-.17a.09.09,0,0,1,.1,0c.22.12.22.42.28.64.17.58.34,1.16.48,1.75.28,1.1.55,2.2.79,3.3s.47,2.22.71,3.32a5.21,5.21,0,0,1,.13,2.54,1.92,1.92,0,0,1-1.83,1.39c0,.08.08.15.11.23.09.23.16.47.23.7s.15.48.21.72a1.48,1.48,0,0,1,.05.35c0,.14,0,.27,0,.4s-.27.32-.36.11-.14-.21-.2-.32a1.85,1.85,0,0,1-.15-.39q-.11-.34-.18-.69c0-.24-.11-.47-.15-.7s0-.28,0-.43a2.54,2.54,0,0,1-1.29-.54,4.32,4.32,0,0,1-1.29-2.12c-.31-1-.55-1.95-.78-2.93a43,43,0,0,1-1.21-7.39A.21.21,0,0,1,359.51,283.41Z" style="fill:#263238"></path><path d="M383,289.94c.17,1.14.26,2.29.49,3.41s.48,2.21.8,3.29a11.6,11.6,0,0,0,1.29,3,11.23,11.23,0,0,0,2.13,2.33,19,19,0,0,0,5.25,3.15,25.28,25.28,0,0,0,2.94,1,14.3,14.3,0,0,0,1.58.33,3.68,3.68,0,0,1,1.27.34.26.26,0,0,1,0,.44,4.54,4.54,0,0,1-2.37,0,17.77,17.77,0,0,1-2.51-.53,18.3,18.3,0,0,1-4.71-2.17,15,15,0,0,1-3.88-3.4,11.39,11.39,0,0,1-2-4.75,23.19,23.19,0,0,1-.49-6.38C382.76,289.83,383,289.82,383,289.94Z" style="fill:#263238"></path><path d="M251.69,388.94a27,27,0,0,1,3.46,1.47c1.19.54,2.39,1.09,3.57,1.65,2.33,1.11,4.65,2.26,6.94,3.46,4.61,2.4,9.21,4.84,13.76,7.37,2.37,1.32,7.46,4.12,7.68,4.4s-.06.37-.21.3c-4.74-2.07-9.36-4.39-14-6.69s-9.25-4.61-13.76-7.13c-1.25-.69-2.47-1.43-3.71-2.14a31.29,31.29,0,0,1-3.88-2.35C251.44,389.19,251.52,388.89,251.69,388.94Z" style="fill:#263238"></path><path d="M409.27,296.57a.16.16,0,0,0-.32,0c.09,10.56-1.54,22.37-9.67,29.95-8.92,8.31-21.78,9.3-33.35,9.2-6.64-.06-13.28-.23-19.92,0s-13.41.54-20,1.38a10.93,10.93,0,0,0-6.81,3.26,35.58,35.58,0,0,0-4.51,6.48q-5,8.31-9.71,16.79-9.33,16.88-17.28,34.45-1,2.19-2,4.38c0,.09.1.18.14.08q8.07-17.64,17.38-34.67,4.62-8.52,9.58-16.87c1.55-2.61,3.05-5.29,4.78-7.79,1.53-2.21,3.44-4.29,6.08-5.09a24.33,24.33,0,0,1,4.95-.72q2.55-.24,5.1-.42c3.31-.24,6.63-.42,9.94-.55,6.7-.24,13.39-.16,20.09,0,11.63.21,24.33-.19,34-7.59a27.43,27.43,0,0,0,9-12.52,49.39,49.39,0,0,0,2.59-15.72C409.31,299.23,409.3,297.9,409.27,296.57Z" style="fill:#263238"></path><path d="M339.65,342.84c-2.37,0-4.74.14-7.12.22a27.61,27.61,0,0,0-5.88.52c-1.8.45-3.22.67-4.69,2.67-1.84,2.51-11.82,21.8-16,30.35q-1.74,3.54-3.44,7.13c-1.16,2.46-2.19,5-3.35,7.45,0,.09.09.17.14.08,1-2.07,2.17-4.07,3.23-6.12s2.09-4.11,3.12-6.17q3.12-6.24,6.26-12.49c2.07-4.12,4.59-8.14,6.7-12.24,1.77-3.46,4.18-8.17,5.87-8.86a27.46,27.46,0,0,1,7.34-1.79c2.62-.18,5.23-.34,7.85-.57C339.77,343,339.77,342.83,339.65,342.84Z" style="fill:#263238"></path><path d="M353.62,201.51c-8.52,8.52-5.11,19.74-8.45,26.22-2,4-9.32,8.54-10.5,13-1.93,7.35,4.34,9.46,3.28,13.46-1.5,5.66-8.92,5.8-9.56,14.93s10,18,33.79,18.76,36.05-8.82,36.31-16.54-7.78-9.67-8.75-15.35c-.62-3.62,4-6.54,3.76-13.28s-7-8.43-8.36-14.07.58-19.75-8.35-26.19S357.83,197.31,353.62,201.51Z" style="fill:#263238"></path><path d="M354.7,201.64a19.59,19.59,0,0,0-5.53,7.45,43,43,0,0,0-2.66,9.52,25.87,25.87,0,0,1-1.4,5.69,14.1,14.1,0,0,1-2.87,4.14c-2.37,2.51-5.28,4.49-7.37,7.26s-3.42,6-2.3,9.31c.61,1.78,1.93,3.17,2.8,4.81s1.27,3.53,0,5c-1.09,1.23-2.76,1.89-4,2.93a14.73,14.73,0,0,0-3.18,3.59,11.57,11.57,0,0,0-1.48,9.23c1.95,7.23,9.15,10.87,15.7,13l2.75.88c.14,0,.24-.17.09-.22-6.59-2.36-14.24-5.15-17.23-12.08a10.8,10.8,0,0,1,.37-9.55,13.69,13.69,0,0,1,3.1-3.8c1.21-1,2.64-1.74,3.88-2.74a4.34,4.34,0,0,0,1.71-4,10.69,10.69,0,0,0-2.12-4.55,8.85,8.85,0,0,1-1.88-4.82,9.6,9.6,0,0,1,1.53-4.86c1.77-3,4.56-5,7-7.35a16,16,0,0,0,5.13-8.38c.36-1.71.53-3.47.83-5.2a43,43,0,0,1,1.05-4.76,22.31,22.31,0,0,1,4.35-8.6,13,13,0,0,1,1.82-1.74C354.86,201.7,354.77,201.58,354.7,201.64Z" style="fill:#263238"></path><path d="M399.11,265.66a8.84,8.84,0,0,0-1.9-3.31c-.89-1-1.95-1.78-2.93-2.67a6.63,6.63,0,0,1-2.17-3,6.38,6.38,0,0,1,.71-4.33,31.19,31.19,0,0,0,1.79-4.26,15,15,0,0,0,.57-4.47,15.19,15.19,0,0,0-3.05-8.58c-.9-1.25-1.9-2.44-2.81-3.68a18.9,18.9,0,0,1-2.44-4.42c-1.34-3.47-1.85-7.19-3-10.72a56,56,0,0,0-4.65-10.4c0-.08-.16,0-.12.09a49.35,49.35,0,0,1,4.09,9.4c1,3.09,1.52,6.28,2.32,9.43a23.94,23.94,0,0,0,1.55,4.5,24.58,24.58,0,0,0,2.35,3.78c1.79,2.48,3.63,4.91,4.3,8a14.44,14.44,0,0,1-.84,8.94c-1.06,2.43-2.6,5.15-1.31,7.81,1.1,2.25,3.42,3.48,5,5.29a9.35,9.35,0,0,1,2.16,7.33c-.76,6.69-7.13,10.47-13.29,11.27a.15.15,0,1,0,0,.3c5.38-.47,11.05-3.29,13.19-8.52A11.42,11.42,0,0,0,399.11,265.66Z" style="fill:#263238"></path><path d="M319.11,212.06l10.46,28.47c.41.83.05,1.57-.79,1.66l-15.1,1.6a2.45,2.45,0,0,1-2.26-1.34L301,214a1.06,1.06,0,0,1,.8-1.66l15.1-1.6A2.46,2.46,0,0,1,319.11,212.06Z" style="fill:#37474f"></path><path d="M317.31,212.23l10.47,28.47c.4.83.05,1.57-.8,1.66L311.89,244a2.45,2.45,0,0,1-2.26-1.33l-10.47-28.48c-.4-.83-.05-1.57.8-1.66l15.09-1.59A2.44,2.44,0,0,1,317.31,212.23Z" style="fill:#455a64"></path><path d="M313.32,214a1.29,1.29,0,1,0,1.11-1.44A1.29,1.29,0,0,0,313.32,214Z" style="fill:#263238"></path><path d="M372.46,251.2c-6.45,19.16-22.91,45-30.82,46-3.77.48-10.4,2.15-15.85-1.61-11.88-8.22-23-25.27-26-35.42-1.08-3.61,15.93-13.64,18.92-10.95,7,6.32,15.78,19.27,16.87,19.06,4-.77,18.13-16,28.38-26.38C375.43,230.29,375,243.57,372.46,251.2Z" style="fill:#f7a9a0"></path><path d="M297.18,241.46c1-7.69,2.49-9.51-.08-16.47-1.69-4.57.5-7.6,4.26-4.22,6.16,5.55,6.91,15.76,6.14,19.37Z" style="fill:#f7a9a0"></path><path d="M301,263.26s-4.54-10-4.24-18.35c.2-5.74,2-18.2,17.12-26.39,3.58-1.94,10.05-2.17,5.36,3.12-3.33,3.76-6.58,5.14-8.12,7.68,0,0,8.27.69,10.08,4.35a74,74,0,0,1,4,9.9,16.74,16.74,0,0,1-1.79.92s1.37,3.58-.72,9Z" style="fill:#f7a9a0"></path><path d="M297.85,239.46c2.06-2.2,6.5-6.79,11.45-9.27,5.49-2.77,16.81-6.61,18.8-2.53,1.47,3-2.72,4.83-2.72,4.83s5-.6,5.74,2.39c.67,2.72-2.66,4-2.66,4s3.1.16,3.24,2.91c.17,3.3-6.36,2.43-9.09,5.92C322,248.44,297.85,239.46,297.85,239.46Z" style="fill:#f7a9a0"></path><path d="M311.25,236.47a24.47,24.47,0,0,1,14-4.05c.13,0,.19.1.07.12a59.74,59.74,0,0,0-14.07,4S311.22,236.49,311.25,236.47Z" style="fill:#263238"></path><path d="M314.2,241.93c2.12-1.3,8.62-3.75,14.24-3.21.12,0,.18.12.06.13A64.9,64.9,0,0,0,314.22,242S314.17,242,314.2,241.93Z" style="fill:#263238"></path><path d="M324.38,254.21l-19.79,22S321,296.39,330.64,298s12.31.08,14.74-.89S364,277.51,372.31,252c7.88-24.11-4.85-14.92-13.8-5.38-5.1,5.44-21.88,20.23-22.66,20.12S324.38,254.21,324.38,254.21Z" style="fill:#D8E3FF"></path><path d="M327.12,259.12C324,262.46,321,265.9,318,269.35c-1.46,1.7-7,8.66-8.61,10.63-.06.08.15.25.22.18,1.62-1.71,7.55-8.61,9-10.33,2.91-3.5,5.81-7,8.59-10.63C327.27,259.14,327.18,259.06,327.12,259.12Z" style="fill:#263238"></path><path d="M357.07,295.83s19.6,3.6,56.12-1.46c0,0-16.7-45.05-28.89-56.8-5.54-5.35-10.64-4.23-14.81-.39-1,1-13.63,18.75-14.46,24.77-.74,5.31,3.84,10.94,3.84,10.94Z" style="fill:#D8E3FF"></path><path d="M357.27,257.25c.81-1.81,1.68-3.59,2.63-5.32,1.08-2,2.28-3.85,3.52-5.72,0,0,0-.08-.07-.05a49.34,49.34,0,0,0-3.6,5.07c.39-.91.77-1.82,1.14-2.74,0-.05-.07-.08-.09,0a28.72,28.72,0,0,0-1.81,4.09c-.79,1.36-1.53,2.75-2.19,4.18a20.08,20.08,0,0,0-2,5.72,11,11,0,0,0,.79,5.46,17.81,17.81,0,0,0,1.46,2.85,11.12,11.12,0,0,0,1.81,2.3h0c-.19.67-.75,7-.8,8.4a.08.08,0,0,0,.16,0c.26-1.39,1.05-8.33,1-8.36h0c0-.06-.87-1.5-1.28-2.16a22.48,22.48,0,0,1-1.36-2.45,11.13,11.13,0,0,1-1.16-5.52A17.53,17.53,0,0,1,357.27,257.25Z" style="fill:#263238"></path><path d="M380.91,245.77c14.88,7.57,36.93,14.64,42.84,10.44,1.56-1.12,5.63-4.6,6.11-8.47,1.79-14.22-4.55-41-4.85-45.34-.26-3.87-27.5,0-27,4.08.48,3.89,8.07,28.8,7.43,28.86-2.31.21-12.58-.31-22-1.16C371.65,233.11,366.9,238.64,380.91,245.77Z" style="fill:#f7a9a0"></path><path d="M413,169.53a4.13,4.13,0,0,0-3.9,2.64,6.1,6.1,0,0,0-4-1.06c-2.5.34-3.06,4.41-3.06,4.41a7.51,7.51,0,0,0-4.43-.45c-2.36.56-3.51,4.59-3.51,4.59a6.59,6.59,0,0,0-4.14,2.06c-2.78,3.21-.87,9.42.31,13.38s8.22,14.08,9.37,16.14L425,203.91s-.23-19.25-2.27-23.71C421.05,176.45,416.18,169.69,413,169.53Z" style="fill:#f7a9a0"></path><path d="M409.52,172.23c2.79,3.55,4.38,7.74,6.2,11.82a.08.08,0,1,1-.14.06c-1.77-4.08-4.32-7.76-6.24-11.77A.11.11,0,0,1,409.52,172.23Z" style="fill:#263238"></path><path d="M402.33,175.5a11.67,11.67,0,0,1,1.31,2.79c.39,1,.77,2,1.13,3.07q1.08,3.09,2,6.24c0,.09-.11.16-.15.06-.72-2-1.47-4.1-2.28-6.12-.4-1-.82-2-1.24-3a13.79,13.79,0,0,1-1.05-2.9A.15.15,0,0,1,402.33,175.5Z" style="fill:#263238"></path><path d="M394.07,179.74a8.09,8.09,0,0,1,1,2.58c.31.94.63,1.89.95,2.83.63,1.89,1.27,3.77,2,5.63,0,.1-.11.16-.14.06-.73-1.88-1.48-3.76-2.19-5.66-.35-.93-.69-1.86-1-2.79a7.84,7.84,0,0,1-.7-2.62A.05.05,0,0,1,394.07,179.74Z" style="fill:#263238"></path><path d="M405.29,235.14l-8.67-20.9,29.21-8.4s6.94,37,4.21,43.14-5.75,7.86-7.6,8.6c-7.13,2.85-37.14-7.31-46.49-14.09s-1.05-10.06,5.89-9.66Z" style="fill:#D8E3FF"></path><path d="M394.63,252.3a40.54,40.54,0,0,0-5.43-1.88c-1.91-.55-3.86-.88-5.79-1.31a.08.08,0,0,0,0,.16c1.22.26,2.43.62,3.63,1h-.08a5.93,5.93,0,0,0-.94-.05c-.34,0-.67.09-1,.12-.05,0-.05.09,0,.09.33,0,.66,0,1,.07l.94,0a14.15,14.15,0,0,1,1.46.14l.63.19c1.86.52,3.71,1.15,5.58,1.63C394.66,252.48,394.72,252.34,394.63,252.3Z" style="fill:#263238"></path><path d="M426.47,211.84c-4.45,1-8.87,2.14-13.28,3.31-2.16.57-10.67,3.18-13.1,3.9-.1,0,0,.29.08.27,2.3-.5,11.09-2.83,13.24-3.44,4.39-1.24,8.76-2.51,13.1-3.92C426.59,211.94,426.55,211.83,426.47,211.84Z" style="fill:#263238"></path><path d="M377.3,236.71c-.14,1-4.31,7.8-8.83,8-1.47.06-2.12-8-2.12-8l-.18-.58L363.61,228l9.22-7.07,1.34-1s.56,2.27,1.22,5.11l.09.41c0,.16.08.31.11.46.11.42.21.85.31,1.28s.14.65.21,1l.21,1A53.19,53.19,0,0,1,377.3,236.71Z" style="fill:#f7a9a0"></path><path d="M375.39,225.06a17.16,17.16,0,0,1-9.22,11.06L363.61,228l9.22-7.07,1.34-1S374.73,222.22,375.39,225.06Z" style="fill:#263238"></path><path d="M350.51,215.52c-1.91,14.85,6.77,17.68,10,18.09,2.91.37,12.86,1.26,16.3-13.32s-2.87-20.16-9.48-21.36S352.43,200.66,350.51,215.52Z" style="fill:#f7a9a0"></path><path d="M352.94,213.22a9,9,0,0,0,1-.1,1.71,1.71,0,0,0,1-.31.54.54,0,0,0,.07-.65,1.33,1.33,0,0,0-1.27-.44,2,2,0,0,0-1.28.55A.57.57,0,0,0,352.94,213.22Z" style="fill:#263238"></path><path d="M363.16,214.28c-.35-.08-.65-.21-1-.32a1.73,1.73,0,0,1-.94-.52.54.54,0,0,1,.07-.65,1.34,1.34,0,0,1,1.33-.17,1.94,1.94,0,0,1,1.14.82A.57.57,0,0,1,363.16,214.28Z" style="fill:#263238"></path><path d="M360.41,217.68s.07.06.07.1c-.17,1-.19,2.19.69,2.64,0,0,0,.07,0,.06C360.05,220.18,360.09,218.61,360.41,217.68Z" style="fill:#263238"></path><path d="M361.45,216.74c1.64.09,1.35,3.37-.18,3.29S360.07,216.67,361.45,216.74Z" style="fill:#263238"></path><path d="M362.08,217c.27.22.52.57.86.63s.73-.24,1-.54c0,0,.06,0,.05,0,0,.63-.34,1.25-1,1.29s-1-.57-1.11-1.22C361.85,217.05,362,216.89,362.08,217Z" style="fill:#263238"></path><path d="M354.78,217s-.08,0-.08.08c-.06,1-.29,2.18-1.23,2.44,0,0,0,.06,0,.06C354.61,219.47,354.9,217.93,354.78,217Z" style="fill:#263238"></path><path d="M354,215.82c-1.62-.26-2,3-.52,3.25S355.32,216,354,215.82Z" style="fill:#263238"></path><path d="M353.25,216c-.27.14-.57.43-.88.41s-.58-.41-.77-.77c0,0-.05,0-.05,0-.1.62,0,1.29.62,1.49s1-.31,1.22-.92C353.43,216.08,353.37,215.89,353.25,216Z" style="fill:#263238"></path><path d="M359.77,226c-.25.23-.51.55-.88.56a2.63,2.63,0,0,1-1.09-.31,0,0,0,0,0,0,.05A1.35,1.35,0,0,0,359,227a1.09,1.09,0,0,0,.85-.87C359.89,226,359.81,226,359.77,226Z" style="fill:#263238"></path><path d="M356,224a4.19,4.19,0,0,0,1.44,1.55,1.87,1.87,0,0,0,1.11.25c.84-.07,1-.82.94-1.48a4.28,4.28,0,0,0-.2-1A5.39,5.39,0,0,1,356,224Z" style="fill:#263238"></path><path d="M357.45,225.52a1.87,1.87,0,0,0,1.11.25c.84-.07,1-.82.94-1.48A1.94,1.94,0,0,0,357.45,225.52Z" style="fill:#ff9cbd"></path><path d="M355.9,221.93s-.36,1.49-.43,2.21c0,.06.16.11.4.15h0a3.43,3.43,0,0,0,3.43-.93c.06-.07,0-.15-.1-.11a5.21,5.21,0,0,1-3.19.57c0-.21.71-2.54.6-2.56a6.26,6.26,0,0,0-1.66.2c.66-3.13,1.83-6.14,2.45-9.27a.1.1,0,0,0-.18-.06,51.24,51.24,0,0,0-3.07,9.87C354.08,222.41,355.61,222,355.9,221.93Z" style="fill:#263238"></path><path d="M351.24,210.66c1.76.66,8.24-3,11-8.53a14.22,14.22,0,0,0,4.08,8.75c3.95,4,7.84,4.45,7.84,4.45s.93,6.86,2.05,7.06,9.21-22.79-10.58-23.92c0,0-5.77-.84-9.54,2.38S351.24,210.66,351.24,210.66Z" style="fill:#263238"></path><path d="M376.11,225.77a2.75,2.75,0,0,1-.7.15,2.1,2.1,0,0,1-.71,0,2,2,0,0,1-.85-.31,2.53,2.53,0,0,1-.55-.46,2.86,2.86,0,0,1-.53-.87l1-4s3.47-4.53,5.54-3.28S378.64,225,376.11,225.77Z" style="fill:#f7a9a0"></path><path d="M378.47,218.92s0,.05,0,.07c-1.78.63-2.76,2.21-3.48,3.86a1.4,1.4,0,0,1,2.11-.29c.05,0,0,.1-.05.09a1.56,1.56,0,0,0-1.74.47,7.59,7.59,0,0,0-.87,1.35c-.09.15-.37.06-.3-.12v0C374.21,222.08,376.07,219,378.47,218.92Z" style="fill:#263238"></path><path d="M375.93,225.14a.7.7,0,0,1-1.35-.34.68.68,0,0,1,.84-.5A.69.69,0,0,1,375.93,225.14Z" style="fill:#fff"></path><path d="M377.4,224.15a.49.49,0,1,1-.36-.6A.51.51,0,0,1,377.4,224.15Z" style="fill:#fff"></path></g></svg>