<svg xmlns="http://www.w3.org/2000/svg" viewBox="0 0 500 500"><g id="freepik--Device--inject-14"><path d="M337.28,56.16H162.7a17.83,17.83,0,0,0-17.66,18V433.56a17.84,17.84,0,0,0,17.66,18H337.28a17.85,17.85,0,0,0,17.68-18V74.15A17.84,17.84,0,0,0,337.28,56.16Zm6.64,366.29c0,9.46-7.08,17.11-15.82,17.11H171.91c-8.76,0-15.84-7.65-15.84-17.11V87.77c0-19.27,7.08-20.21,15.84-20.21h31.28c1.82,0,3.31,2.07,3.31,4.63V73.3c0,6,3.28,6,7.32,6h72.35c4.07,0,7.32,0,7.32-6V72.19c0-2.56,1.47-4.63,3.32-4.63H328.1c8.74,0,15.82,2.57,15.82,20.21Z" style="fill:#263238"></path><path d="M259.86,71.82H240.13a1.21,1.21,0,0,1-1.22-1.22h0a1.22,1.22,0,0,1,1.22-1.22h19.73a1.22,1.22,0,0,1,1.22,1.22h0A1.21,1.21,0,0,1,259.86,71.82Z" style="fill:#fff"></path><path d="M343.93,87.77V422.45c0,9.46-7.09,17.11-15.83,17.11H171.91c-8.76,0-15.84-7.65-15.84-17.11V87.77c0-19.27,7.08-20.21,15.84-20.21h31.28c1.82,0,3.31,2.07,3.31,4.63V73.3c0,6,3.28,6,7.32,6h72.35c4.07,0,7.33,0,7.33-6V72.19c0-2.56,1.46-4.63,3.31-4.63H328.1C336.84,67.56,343.93,70.13,343.93,87.77Z" style="fill:#fff"></path><path d="M343.92,87.77v51.58H156.06V87.77c0-19.27,7.09-20.21,15.85-20.21H203.2c1.82,0,3.3,2.07,3.3,4.63V73.3c0,6,3.29,6,7.32,6h72.35c4.07,0,7.33,0,7.33-6V72.19c0-2.56,1.47-4.63,3.32-4.63H328.1C336.84,67.56,343.92,70.13,343.92,87.77Z" style="fill:#6582E4"></path><g id="freepik--u5Zjqx--inject-14"><path d="M197.8,75.08l-.31.3a1.37,1.37,0,0,1-.17.17,4.13,4.13,0,0,0-2.91-1.21,4.05,4.05,0,0,0-2.92,1.22,1.29,1.29,0,0,0-.16-.17l-.3-.3h0c.12-.12.25-.23.38-.34a4.57,4.57,0,0,1,.88-.57,4.36,4.36,0,0,1,1.17-.39c.2,0,.39-.05.59-.08h.51l.4,0a4.48,4.48,0,0,1,1.08.26,4.74,4.74,0,0,1,.72.34,4.19,4.19,0,0,1,.7.49l.32.28Z" style="fill:#fff"></path><path d="M192.45,76.5,192,76a3.43,3.43,0,0,1,4.86,0l-.48.48a2.74,2.74,0,0,0-2-.81A2.78,2.78,0,0,0,192.45,76.5Z" style="fill:#fff"></path><path d="M195.89,77l-.48.47a1.43,1.43,0,0,0-1-.41,1.38,1.38,0,0,0-1,.42l-.48-.48A2.09,2.09,0,0,1,195.89,77Z" style="fill:#fff"></path><path d="M194.84,77.89a.43.43,0,0,1-.86,0,.43.43,0,0,1,.86,0Z" style="fill:#fff"></path></g><circle cx="169.56" cy="75.99" r="1.24" style="fill:#fff"></circle><path d="M172.24,76a1.25,1.25,0,1,1,1.24,1.25A1.25,1.25,0,0,1,172.24,76Z" style="fill:#fff"></path><circle cx="177.41" cy="75.99" r="1.24" style="fill:#fff"></circle><path d="M180.08,76a1.25,1.25,0,1,1,1.25,1.25A1.25,1.25,0,0,1,180.08,76Z" style="fill:#fff"></path><path d="M184,76a1.25,1.25,0,1,1,1.25,1.25A1.25,1.25,0,0,1,184,76Z" style="fill:#fff"></path><path d="M329.82,78.7H319.7V74h10.12Zm-9.62-.5h9.12V74.53H320.2Z" style="fill:#fff"></path><rect x="320.54" y="74.81" width="6.53" height="3.1" style="fill:#fff"></rect><rect x="329.84" y="75.11" width="0.9" height="2.51" style="fill:#fff"></rect><rect x="208.56" y="277.81" width="67.33" height="9.64" style="fill:#6582E4"></rect><rect x="281.55" y="277.81" width="9.64" height="9.64" style="fill:#dbdbdb"></rect><path d="M284.43,282.63a.6.6,0,1,1-.6-.6A.6.6,0,0,1,284.43,282.63Z" style="fill:#263238"></path><path d="M287,282.63a.6.6,0,1,1-.6-.6A.6.6,0,0,1,287,282.63Z" style="fill:#263238"></path><path d="M289.5,282.63a.6.6,0,1,1-.6-.6A.6.6,0,0,1,289.5,282.63Z" style="fill:#263238"></path><polygon points="169.94 105.08 165.55 100.96 169.94 96.85 170.63 97.57 167 100.96 170.63 104.36 169.94 105.08" style="fill:#fff"></polygon><circle cx="333.33" cy="98.4" r="0.86" style="fill:#fff"></circle><circle cx="333.33" cy="101.47" r="0.86" style="fill:#fff"></circle><path d="M334.2,104.55a.87.87,0,1,1-1.73,0,.87.87,0,0,1,1.73,0Z" style="fill:#fff"></path><path d="M181.42,312a6,6,0,1,1,2.67-6.5A6,6,0,0,1,181.42,312Z" style="fill:#dbdbdb"></path><path d="M180.1,306.25a1.82,1.82,0,1,1-1.82-1.82A1.82,1.82,0,0,1,180.1,306.25Z" style="fill:#fff"></path><path d="M181.42,311.27V312a6,6,0,0,1-6.29,0v-.75a3.15,3.15,0,0,1,6.29,0Z" style="fill:#fff"></path><path d="M325,303a.41.41,0,0,1,.4.4.4.4,0,0,1-.4.4.39.39,0,0,1-.39-.4A.4.4,0,0,1,325,303Z"></path><path d="M326.19,303a.41.41,0,0,1,.4.4.4.4,0,0,1-.4.4.39.39,0,0,1-.39-.4A.4.4,0,0,1,326.19,303Z"></path><path d="M327.41,303a.41.41,0,0,1,.4.4.4.4,0,1,1-.79,0A.41.41,0,0,1,327.41,303Z"></path><polygon points="173.01 319.54 192.43 319.36 208.49 319.25 240.61 319.17 255.91 319.25 271.96 319.36 288.02 319.54 271.96 319.72 255.91 319.82 240.61 319.91 208.49 319.82 192.43 319.72 173.01 319.54" style="fill:#263238"></polygon><path d="M173,322.94c9.06-.15,22-.22,31.11-.28l27.19-.09,27.2.09,7.62.28-7.62.29-27.2.08-27.19-.08C195.05,323.17,182.07,323.1,173,322.94Z" style="fill:#263238"></path><path d="M173,326.87c9.88-.15,24-.22,33.9-.28l29.64-.09,29.63.09,8.31.28-8.31.29-29.63.09-29.64-.09C197,327.1,182.89,327,173,326.87Z" style="fill:#263238"></path><rect x="189.26" y="302.36" width="36.01" height="3.89" style="fill:#455a64"></rect><rect x="189.26" y="308.19" width="28.73" height="2.35" style="fill:#dbdbdb"></rect><polygon points="172.29 335 191.7 334.87 211.1 334.83 249.9 334.75 288.7 334.83 308.11 334.87 327.51 335 308.11 335.12 288.7 335.16 249.9 335.25 211.1 335.16 191.7 335.12 172.29 335" style="fill:#dbdbdb"></polygon><path d="M181.42,354.25a6,6,0,1,1,2.67-6.51A6,6,0,0,1,181.42,354.25Z" style="fill:#dbdbdb"></path><path d="M180.1,348.48a1.82,1.82,0,1,1-1.82-1.82A1.83,1.83,0,0,1,180.1,348.48Z" style="fill:#fff"></path><path d="M181.42,353.5v.75a6,6,0,0,1-6.29,0v-.75a3.15,3.15,0,1,1,6.29,0Z" style="fill:#fff"></path><path d="M325,345.24a.4.4,0,0,1,.4.4.39.39,0,0,1-.4.39.38.38,0,0,1-.39-.39A.39.39,0,0,1,325,345.24Z"></path><path d="M326.19,345.24a.4.4,0,0,1,.4.4.39.39,0,0,1-.4.39.38.38,0,0,1-.39-.39A.39.39,0,0,1,326.19,345.24Z"></path><path d="M327.41,345.24a.4.4,0,0,1,.4.4.4.4,0,0,1-.79,0A.4.4,0,0,1,327.41,345.24Z"></path><polygon points="173.01 361.76 192.43 361.58 208.49 361.48 240.61 361.39 255.91 361.48 271.96 361.58 288.02 361.76 271.96 361.95 255.91 362.05 240.61 362.14 208.49 362.05 192.43 361.94 173.01 361.76" style="fill:#263238"></polygon><path d="M173,365.17c9.06-.15,22-.23,31.11-.29l27.19-.08,27.2.08,7.62.29-7.62.29-27.2.08-27.19-.09C195.05,365.39,182.07,365.32,173,365.17Z" style="fill:#263238"></path><rect x="189.26" y="344.59" width="36.01" height="3.89" style="fill:#455a64"></rect><rect x="189.26" y="350.42" width="28.73" height="2.35" style="fill:#dbdbdb"></rect><polygon points="172.29 375.22 191.7 375.1 211.1 375.06 249.9 374.97 288.7 375.06 308.11 375.1 327.51 375.22 308.11 375.35 288.7 375.39 249.9 375.47 211.1 375.39 191.7 375.34 172.29 375.22" style="fill:#dbdbdb"></polygon><path d="M181.42,395.87a6,6,0,1,1,2.67-6.5A6,6,0,0,1,181.42,395.87Z" style="fill:#dbdbdb"></path><path d="M180.1,390.1a1.82,1.82,0,1,1-1.82-1.82A1.82,1.82,0,0,1,180.1,390.1Z" style="fill:#fff"></path><path d="M181.42,395.12v.75a5.92,5.92,0,0,1-6.29,0v-.75a3.15,3.15,0,0,1,6.29,0Z" style="fill:#fff"></path><path d="M325,386.87a.4.4,0,1,1,0,.79.4.4,0,0,1,0-.79Z"></path><path d="M326.19,386.87a.4.4,0,1,1,0,.79.4.4,0,0,1,0-.79Z"></path><path d="M327.41,386.87a.4.4,0,1,1,0,.79.4.4,0,0,1,0-.79Z"></path><polygon points="208.36 403.39 221.81 403.21 232.94 403.11 255.18 403.02 265.78 403.1 276.9 403.21 288.02 403.39 276.9 403.57 265.78 403.68 255.18 403.76 232.94 403.68 221.81 403.57 208.36 403.39" style="fill:#263238"></polygon><path d="M208.36,406.79c6.28-.15,15.27-.22,21.55-.28l18.83-.09,18.84.09,5.28.28-5.28.29-18.84.09-18.83-.09C223.63,407,214.64,407,208.36,406.79Z" style="fill:#263238"></path><rect x="189.26" y="386.21" width="36.01" height="3.89" style="fill:#455a64"></rect><rect x="189.26" y="392.05" width="28.73" height="2.35" style="fill:#dbdbdb"></rect><rect x="172.3" y="403.02" width="31.19" height="23.96" transform="translate(375.78 830) rotate(180)" style="fill:#6582E4"></rect><path d="M175.65,408.64a2.78,2.78,0,1,0,2.18-2.19A2.78,2.78,0,0,0,175.65,408.64Z" style="opacity:0.2"></path><polygon points="180.94 421.92 203.48 421.92 192.21 409.29 180.94 421.92" style="opacity:0.2"></polygon><polygon points="172.29 421.93 190.9 421.93 181.6 413.7 172.29 421.93" style="fill:#6582E4"></polygon><polygon points="172.29 421.93 190.9 421.93 181.6 413.7 172.29 421.93" style="opacity:0.30000000000000004"></polygon><rect x="172.3" y="421.92" width="31.19" height="5.06" style="fill:#6582E4"></rect><rect x="172.3" y="421.92" width="31.19" height="5.06" style="opacity:0.30000000000000004"></rect></g><g id="freepik--Character--inject-14"><path d="M281.91,240.13a60.76,60.76,0,0,1-63.85,0,60.71,60.71,0,1,1,63.85,0Z" style="fill:#a6a6a6"></path><path d="M247.53,174.47c22.52,13.25,52,21.85,59.32,17.22s19-42.06,18.08-50.95c-.38-3.84-26.47-5.89-29.07-2.7s-5.38,25.89-6.79,28c-1,1.52-24.05-2.15-38.47-3.6C241.4,161.5,235.65,167.48,247.53,174.47Z" style="fill:#ad6359"></path><path d="M324.64,145.81c.89-3.84,4-23.7,3.56-28.85s-2.69-19.88-6.66-20-3.66,4.28-3.66,4.28-1.94-6.07-5.95-5.78-3.29,7-3.29,7-2.45-6.08-6.43-5.52-2.11,7.26-2.11,7.26-2-5.67-5.06-3.82c-3.71,2.22,1.12,12.26,1.16,18,0,1.3-1.73,26.33-1.73,26.33Z" style="fill:#ad6359"></path><path d="M300,103.72c3.54,7.39,3.81,11.23,2.87,19.24,0,.16.21.22.24.06,1.64-7.76,2-12.63-2.76-19.49C300.07,103.19,299.78,103.36,300,103.72Z" style="fill:#263238"></path><path d="M308.35,102c3,8,3.33,12.17,3,20.63a.11.11,0,0,0,.22,0c1.05-8.27,1.3-13.14-2.75-20.74C308.59,101.54,308.21,101.61,308.35,102Z" style="fill:#263238"></path><path d="M317.85,101.71c2.35,8,2.91,12.51,1.49,20.68a.15.15,0,0,0,.3.07c2.25-8.19,1.6-13.88-1.54-20.79C317.89,101.19,317.7,101.21,317.85,101.71Z" style="fill:#263238"></path><path d="M293.78,149.89s-6.07-8.28-7.93-12.51-3-22.53.93-23c5.09-.61,7.83,9.82,8.5,15.11,0,0,11.77-1.42,15.36,5.65S293.78,149.89,293.78,149.89Z" style="fill:#ad6359"></path><path d="M288.23,114.67c5,2.79,5.48,9.79,6.52,14.87a.48.48,0,0,0,.7.34c5-.27,12.06.8,15.29,5a.12.12,0,0,0,.2-.13c-2.86-4.92-9.74-6.54-15.16-5.9-1-5.23-1.74-12.23-7.52-14.18C288.22,114.61,288.2,114.65,288.23,114.67Z" style="fill:#263238"></path><path d="M282.4,194.45l6.15-30s-23.42-3.87-37.79-3.64-19.12,5.77-1.08,16.55A303.77,303.77,0,0,0,282.4,194.45Z" style="fill:#455a64"></path><path d="M282.74,164.91q-1.82,6.19-3.32,12.48c-.49,2.06-1,4.12-1.47,6.2s-.79,4.32-1.27,6.46c0,.15.2.22.24.07.53-2.05,1.2-4.07,1.75-6.12s1-4.25,1.55-6.37q1.51-6.3,2.71-12.67A.1.1,0,0,0,282.74,164.91Z" style="fill:#263238"></path><path d="M277.18,242.7a59.08,59.08,0,0,1-12.05,4.53l-.86.22c-.54.14-1.1.26-1.64.38a60.43,60.43,0,0,1-25.65,0c-.82-.18-1.64-.38-2.45-.6a59.75,59.75,0,0,1-13.94-5.58c-.35-.18-.69-.37-1-.58-.54-.31-1.08-.64-1.63-1a60.33,60.33,0,0,1-6.44-4.6c-.25-.18-.49-.38-.73-.59a60.84,60.84,0,0,1-5.79-5.57l-.54-.59q-1.53-1.73-2.93-3.57c.16-.66.33-1.32.49-2,.06-.19.1-.39.15-.58.47-1.82,1-3.67,1.5-5.58.05-.2.12-.39.17-.6h0c.52-1.81,1.07-3.68,1.68-5.55q.07-.3.18-.6c.59-1.83,1.21-3.7,1.87-5.58.06-.18.14-.38.21-.58.66-1.84,1.34-3.7,2.07-5.57h0c.07-.18.14-.37.22-.56,0,0,0,0,0,0,.73-1.86,1.51-3.7,2.32-5.56.08-.21.17-.4.26-.6.83-1.87,1.7-3.72,2.61-5.57,0,0,0,0,0,0,.08-.18.17-.37.26-.54h0q1.4-2.82,2.93-5.57a2.15,2.15,0,0,1,.14-.26l.2-.35c1.06-1.88,2.17-3.74,3.34-5.55.12-.2.25-.4.38-.6,1.23-1.9,2.53-3.76,3.88-5.56a4.73,4.73,0,0,1,.31-.43l.13-.16c1.19-1.58,2.44-3.13,3.73-4.61a10.23,10.23,0,0,1,1-1l.15-.12c.18-.14.35-.27.55-.4a.41.41,0,0,1,.11-.07h0c6.12-4.08,17.78-2.44,19.27-.27a2.11,2.11,0,0,1,.18.27l.2.29a57.8,57.8,0,0,1,3.36,5.88c1,1.9,1.9,4,2.82,6.15,0,0,0,0,0,0,.83,1.95,1.63,4,2.42,6.13,0,.11.08.21.11.31a1.54,1.54,0,0,1,.11.3c.74,2,1.46,4,2.17,6.14h0c.6,1.83,1.21,3.69,1.78,5.57.06.21.13.39.19.6.6,1.93,1.19,3.89,1.75,5.85a2.63,2.63,0,0,0,.08.3c.55,1.86,1.06,3.72,1.57,5.57,0,.17.07.32.12.48.52,1.91,1,3.81,1.49,5.68l.16.6c.48,1.87.94,3.73,1.38,5.55,0,.06,0,.11,0,.16s.07.29.1.44q.69,2.85,1.32,5.58c.48,2.12.94,4.18,1.36,6.15.05.21.09.4.13.59.43,2,.84,3.92,1.21,5.74,0,.14,0,.28.08.42.43,2.13.81,4.1,1.14,5.87,0,.1,0,.19.05.28Z" style="fill:#6582E4"></path><path d="M234.53,247.23c.81.22,1.63.42,2.45.6h25.65c.54-.12,1.1-.24,1.64-.38l.86-.22ZM277,241.37c0-.1-.05-.2-.07-.3H219.55c.35.21.69.4,1,.58H277C277,241.56,277,241.47,277,241.37Zm-1.22-6.29a1.54,1.54,0,0,1-.05-.17H210.75c.24.21.48.41.73.59h64.33C275.78,235.36,275.75,235.22,275.73,235.08Zm-1.34-6.33h-70l.54.59h69.56C274.48,229.15,274.44,229,274.39,228.75Zm-73.75,0a1.45,1.45,0,0,1-.06.3c0-.1,0-.2.07-.3ZM273,222.6H202.12c0,.19-.09.39-.14.58h71.17Zm-1.42-6c0-.05,0-.1,0-.16H203.8c-.05.21-.12.4-.17.6h68.09C271.68,216.88,271.65,216.74,271.61,216.58ZM270,210.27H205.67a5.16,5.16,0,0,0-.19.6h64.71Zm-1.49-5.68c-.05-.16-.08-.31-.12-.48H207.75c-.07.2-.15.4-.22.58h61A.36.36,0,0,1,268.54,204.59Zm-1.77-6.35-.09-.29H210.06s0,0,0,0c-.08.19-.15.38-.23.56h57A2.63,2.63,0,0,1,266.77,198.24Zm-1.94-6.45H212.64c-.09.2-.18.39-.26.6H265C265,192.18,264.89,192,264.83,191.79Zm-2-6.15H215.53c-.09.17-.18.36-.26.54,0,0,0,0,0,0h47.8A5,5,0,0,1,262.84,185.64Zm-2.07-5.87c0-.1-.07-.2-.11-.31H218.8l-.19.35a2.15,2.15,0,0,0-.14.26h42.41A1.54,1.54,0,0,0,260.77,179.77Zm-2.53-6.44s0,0,0,0H222.51c-.12.2-.25.4-.36.6h36.32C258.4,173.72,258.31,173.52,258.24,173.33Zm-2.83-6.17H226.85l-.13.16a4.73,4.73,0,0,0-.31.43h29.28C255.59,167.55,255.5,167.35,255.41,167.16Zm-3.36-5.88-.2-.29H232.39a.41.41,0,0,0-.11.07c-.2.13-.37.26-.55.4l-.15.12h20.66A2.2,2.2,0,0,1,252.05,161.28Z" style="opacity:0.1"></path><path d="M250.51,176.77c-4.72.85-12.34-6.7-15.2-12.64-.19-.4.64-4.54,1.4-9.62.46-3.08.89-6.53,1.06-9.7l19.63,5.89a50.54,50.54,0,0,0-2.57,12.07,8,8,0,0,0,.07,1.31,1.25,1.25,0,0,1,0,.21C255.19,166.79,255.07,175.94,250.51,176.77Z" style="fill:#ad6359"></path><path d="M254.93,164.29c0,.14,0,.29,0,.46-11.93-2.52-15.61-8.56-17.72-14.12.24-1.95.44-3.93.53-5.82l19.63,5.88a50.36,50.36,0,0,0-2.56,12.08,6.25,6.25,0,0,0,.07,1.31A.86.86,0,0,0,254.93,164.29Z" style="fill:#263238"></path><path d="M233.27,122.1c-2.19,7.05,1.45,27.47,6.46,32,7.25,6.62,19.17,7.3,24.81-1.42,5.47-8.46.25-35-5.34-39.14C251,107.45,236.5,111.68,233.27,122.1Z" style="fill:#ad6359"></path><path d="M250,135s-.1.09-.09.14c.28,1.37.38,3-.79,3.66,0,0,0,.09,0,.07C250.67,138.35,250.52,136.2,250,135Z" style="fill:#263238"></path><path d="M248.56,133.73c-2.25.21-1.65,4.68.43,4.48S250.44,133.55,248.56,133.73Z" style="fill:#263238"></path><path d="M258.6,133.68c0-.06.12,0,.13.1.14,1.39.53,3,1.85,3.26,0,0,0,.08,0,.07C259,137.1,258.51,135,258.6,133.68Z" style="fill:#263238"></path><path d="M259.65,132.07c2.2-.47,3,4,.93,4.4S257.8,132.46,259.65,132.07Z" style="fill:#263238"></path><path d="M246.52,131.92a17,17,0,0,0,1.65-.84,3,3,0,0,0,1.52-1.18,1,1,0,0,0-.3-1.12,2.35,2.35,0,0,0-2.4.07,3.49,3.49,0,0,0-1.78,1.75A1,1,0,0,0,246.52,131.92Z" style="fill:#263238"></path><path d="M261.08,129.58a15.94,15.94,0,0,1-1.84-.22,2.89,2.89,0,0,1-1.83-.59,1,1,0,0,1-.1-1.16,2.35,2.35,0,0,1,2.27-.75,3.48,3.48,0,0,1,2.28,1A1,1,0,0,1,261.08,129.58Z" style="fill:#263238"></path><path d="M251.55,147.79c.38.27.77.68,1.27.65a3.65,3.65,0,0,0,1.45-.54,0,0,0,0,1,.07.06,1.87,1.87,0,0,1-1.66,1,1.47,1.47,0,0,1-1.25-1.07C251.39,147.79,251.5,147.74,251.55,147.79Z" style="fill:#263238"></path><path d="M252.36,143.28a4.76,4.76,0,0,0,3.42,1.68,5.8,5.8,0,0,0,1.71-.15,1.67,1.67,0,0,0,.32-.08l.29-.09a.35.35,0,0,0,.24-.34h0a.49.49,0,0,0,0-.14v0l0-.12c-.12-1.07-.44-2.67-.44-2.67.42.14,2.52.77,2.42.22-.89-4.58-1.88-9.66-3.73-14a.13.13,0,0,0-.25.07c.68,4.43,2.14,8.71,2.89,13.15a8.37,8.37,0,0,0-2.31-.38c-.15.06.67,3.1.68,3.58a.07.07,0,0,1,0,.05c-1.76.47-3.18.11-5.08-.86C252.35,143.07,252.26,143.18,252.36,143.28Z" style="fill:#263238"></path><path d="M256.65,144.41a5.21,5.21,0,0,1-1.87,1.86,2.31,2.31,0,0,1-1.4.25c-1.06-.14-1.2-1.07-1.11-1.9a6.2,6.2,0,0,1,.31-1.28A6.69,6.69,0,0,0,256.65,144.41Z" style="fill:#263238"></path><path d="M254.78,146.27a2.31,2.31,0,0,1-1.4.25c-1.06-.14-1.2-1.07-1.11-1.9A2.43,2.43,0,0,1,254.78,146.27Z" style="fill:#ff9cbd"></path><path d="M233.31,136.1c1.28-.76,3.45-5.32,4.41-7.19s.21-10.56-.09-13.13a13.74,13.74,0,0,0-4.36,6.4C232.33,125.11,232.46,130.58,233.31,136.1Z" style="fill:#263238;opacity:0.2"></path><path d="M255.07,120.86a6.73,6.73,0,0,1-5.8,3.06,6.87,6.87,0,0,1-5.76-3.38c0-.06-.13,0-.1,0a6.8,6.8,0,0,0,5.84,3.87,6.93,6.93,0,0,0,6-3.51C255.26,120.86,255.13,120.77,255.07,120.86Z" style="fill:#263238"></path><path d="M246,105.3c-3.86.59-7.13,3.19-8.2,6a7.54,7.54,0,0,0-.09,5c0,.07.16,0,.14,0a8.27,8.27,0,0,1,2.91-7.92A10.67,10.67,0,0,1,250,106a6.79,6.79,0,0,1,4,2.42c.09.13.37,0,.29-.13C252.91,106,249.51,104.77,246,105.3Z" style="fill:#263238"></path><path d="M269.56,110.76a8.63,8.63,0,0,0-4.23-4.11c-2.56-1.16-5.21-.59-7.84,0a.06.06,0,0,0,0,.11c2.23-.51,4.53-.91,6.75-.11a8.44,8.44,0,0,1,4.41,3.57,8.23,8.23,0,0,1-2.07,10.58,8.35,8.35,0,0,1-6.45,1.52c-.09,0-.13.11,0,.13a8.5,8.5,0,0,0,9.77-5.55A8.61,8.61,0,0,0,269.56,110.76Z" style="fill:#263238"></path><path d="M232.6,126.23s-4.54-6.46-2-10.85c1.46-2.48,7.27-2.91,7.27-2.91a10.5,10.5,0,0,1,6.08-5.25c4.7-1.71,10.79.39,10.79.39s4.26-3.2,8.86-1.28c6.42,2.67,6.82,11.89,1.16,15.58-4,2.59-10.2-.43-10.2-.43-.54.14-5.78,4.26-10.69-.25,0,0-3.09,3.53-6.49,1.75A5.08,5.08,0,0,1,232.6,126.23Z" style="fill:#263238"></path><path d="M237.56,138.74s-4.72-6.52-7.69-4.83.66,11.2,4.19,12.45a3.57,3.57,0,0,0,4.76-2Z" style="fill:#ad6359"></path><path d="M231,136.61a.05.05,0,0,0,0,.1c2.48,1,3.82,3.22,4.76,5.57a2,2,0,0,0-3-.49.08.08,0,0,0,.07.13,2.19,2.19,0,0,1,2.43.73,11,11,0,0,1,1.19,1.94c.12.22.51.09.43-.16a.14.14,0,0,1,0-.06C236.87,141.23,234.36,136.87,231,136.61Z" style="fill:#263238"></path><path d="M222.46,166.46c-21.37,19.87-49,62.41-44.58,71.47,4.92,10.09,34.68-17.78,34.64-19.48,0-1.29,11.15-24.75,19.58-43.71S227.74,161.55,222.46,166.46Z" style="fill:#ad6359"></path><path d="M177.88,237.93c4.32,6.79,16.81,8.59,47.83,16.06,4.29,1,19.75-27.29,15.22-28.63-5.7-1.69-28.2-7-29.89-7.19C196.75,216.64,174.94,233.32,177.88,237.93Z" style="fill:#ad6359"></path><path d="M230.63,224.24s12.59-.15,19.23,1.83c8.89,2.64,15.48,8.58,18.09,11.23,5.45,5.55,14.8,22.72,10.32,26.27-4,3.22-12.71-14.82-12.71-14.82s11.86,16.94,6.27,19.91-14.46-18.53-14.46-18.53,11.81,17.67,5.56,19.83c-4.73,1.63-13.86-17.4-13.86-17.4s10.05,15.26,5.26,17.14c-5.29,2.09-14.82-14.95-14.82-14.95-13,2.75-20.27-1.25-25.13-4.71C213.21,249.2,230.63,224.24,230.63,224.24Z" style="fill:#ad6359"></path><path d="M261.83,242.64c1.46,1.93,3,3.89,4.25,6s2.5,4.17,3.6,6.34a42.54,42.54,0,0,1,3.44,8.86c-1.83-5.35-6.33-12.8-7.62-14.87s-2.47-4.18-3.75-6.24C261.71,242.63,261.79,242.59,261.83,242.64Z" style="fill:#263238"></path><path d="M254.29,247.15c1.77,2.56,3.62,5,5.27,7.67s3,5.25,4.43,8c.12.21,0,.2-.16,0-1.56-2.67-3.22-5-4.82-7.67s-3.09-5.36-4.78-7.94C254.2,247.15,254.27,247.12,254.29,247.15Z" style="fill:#263238"></path><path d="M247.13,249.87a69.59,69.59,0,0,1,7.16,12.34c.1.21-.09.18-.21,0C251.78,258,250,254.76,247,250,247,249.9,247.07,249.79,247.13,249.87Z" style="fill:#263238"></path><path d="M193.4,222.47a27.35,27.35,0,0,1,19-4.18c.08,0,.08.15,0,.14-6.87-.49-16.3,2.71-19,4.16C193.38,222.63,193.33,222.52,193.4,222.47Z" style="fill:#263238"></path><path d="M191.79,194.37l26.56,15.18s11-21.05,15.23-34.78.47-20-15.39-6.17A303.4,303.4,0,0,0,191.79,194.37Z" style="fill:#455a64"></path><path d="M219.76,203.91q-5.32-3.66-10.82-7c-1.81-1.11-3.61-2.25-5.44-3.33s-3.85-2.1-5.74-3.21c-.13-.08-.27.11-.14.2,1.78,1.14,3.49,2.41,5.27,3.56s3.71,2.31,5.57,3.46q5.52,3.41,11.19,6.53C219.76,204.13,219.87,204,219.76,203.91Z" style="fill:#263238"></path><path d="M217.23,208.91c.4.18.79.35,1.18.54l-.17.05c.75-1.94,1.6-3.82,2.42-5.72s1.74-3.74,2.66-5.59,1.85-3.69,2.86-5.5,2-3.62,3.11-5.38c-.71,1.95-1.52,3.85-2.36,5.74s-1.71,3.76-2.61,5.63-1.84,3.69-2.81,5.52-2,3.64-3,5.41l-.07.11-.1-.06C217.93,209.42,217.58,209.16,217.23,208.91Z" style="fill:#263238"></path><path d="M229.81,191a13.19,13.19,0,0,1-4.47,4.4,11.93,11.93,0,0,1,2-2.47A12.18,12.18,0,0,1,229.81,191Z" style="fill:#263238"></path></g></svg>