<svg xmlns="http://www.w3.org/2000/svg" viewBox="0 0 750 500"><g id="freepik--Folder--inject-80"><polygon points="576.32 432.05 271.64 432.05 315.69 182.2 620.37 182.2 576.32 432.05" style="fill:#D8E3FF"></polygon><polygon points="419.97 156.32 320.26 156.32 315.69 182.2 422.4 182.2 419.97 156.32" style="fill:#D8E3FF"></polygon><g style="opacity:0.1"><polygon points="576.32 432.05 271.64 432.05 315.69 182.2 620.37 182.2 576.32 432.05"></polygon><polygon points="419.97 156.32 320.26 156.32 315.69 182.2 422.4 182.2 419.97 156.32"></polygon></g><path d="M309.5,166.88a19.17,19.17,0,0,1,0-8.7,19.17,19.17,0,0,1,0,8.7Z" style="fill:#263238"></path><path d="M300.64,169.44a17,17,0,0,1-2.61-3.52,17.35,17.35,0,0,1-1.75-4,16.58,16.58,0,0,1,2.61,3.51A17.61,17.61,0,0,1,300.64,169.44Z" style="fill:#263238"></path><path d="M294.24,176.09a19.18,19.18,0,0,1-7.53-4.35,17.16,17.16,0,0,1,4,1.74A17.58,17.58,0,0,1,294.24,176.09Z" style="fill:#263238"></path><path d="M292,185.05a19.17,19.17,0,0,1-8.7,0,19.17,19.17,0,0,1,8.7,0Z" style="fill:#263238"></path><path d="M294.6,193.91a17.64,17.64,0,0,1-3.52,2.61,17.16,17.16,0,0,1-4,1.74,17,17,0,0,1,3.52-2.61A16.8,16.8,0,0,1,294.6,193.91Z" style="fill:#263238"></path><path d="M301.24,200.3a19.13,19.13,0,0,1-4.35,7.54,16.83,16.83,0,0,1,1.75-4A17.31,17.31,0,0,1,301.24,200.3Z" style="fill:#263238"></path><path d="M310.2,202.51a17.45,17.45,0,0,1,.5,4.35,17,17,0,0,1-.5,4.35,16.57,16.57,0,0,1-.5-4.35A17.45,17.45,0,0,1,310.2,202.51Z" style="fill:#263238"></path><path d="M319.06,200a17,17,0,0,1,2.61,3.52,16.8,16.8,0,0,1,1.74,4,19.13,19.13,0,0,1-4.35-7.54Z" style="fill:#263238"></path><path d="M325.45,193.3a16.8,16.8,0,0,1,4,1.74,17,17,0,0,1,3.52,2.61,16.8,16.8,0,0,1-4-1.74A17,17,0,0,1,325.45,193.3Z" style="fill:#263238"></path><path d="M327.66,184.34a19.22,19.22,0,0,1,8.71,0,19.22,19.22,0,0,1-8.71,0Z" style="fill:#263238"></path><path d="M325.1,175.48a17.31,17.31,0,0,1,3.52-2.6,16.44,16.44,0,0,1,4-1.75,19.13,19.13,0,0,1-7.54,4.35Z" style="fill:#263238"></path><path d="M318.45,169.09a17.58,17.58,0,0,1,1.74-4,17,17,0,0,1,2.61-3.52,16.8,16.8,0,0,1-1.74,4A17,17,0,0,1,318.45,169.09Z" style="fill:#263238"></path><polygon points="575.87 432.05 270.54 432.05 227.18 191.27 532.52 191.27 575.87 432.05" style="fill:#D8E3FF"></polygon><circle cx="332.99" cy="325.77" r="12.69" style="fill:#263238"></circle><circle cx="433.31" cy="325.77" r="12.69" style="fill:#263238"></circle><path d="M401.38,340.49l-.7-1.33c-.06-.12-6.62-12.24-19.81-12.24-12,0-15,11.41-15.08,11.9l-.36,1.45-2.91-.7.35-1.46c0-.14,3.58-14.19,18-14.19,15,0,22.17,13.28,22.47,13.85l.7,1.32Z" style="fill:#263238"></path></g><g id="freepik--Fly--inject-80"><path d="M555.71,324.8l-.21-1c.65-.14,1.29-.29,1.93-.46l.25,1C557,324.51,556.37,324.66,555.71,324.8Z" style="fill:#263238"></path><path d="M561.55,323.19l-.32-.94c1.25-.43,2.5-.9,3.71-1.41l.39.92C564.1,322.28,562.83,322.76,561.55,323.19ZM569,320l-.45-.88c1.17-.61,2.34-1.27,3.45-2l.52.85C571.38,318.76,570.19,319.43,569,320Zm6.88-4.23-.59-.81c1.08-.79,2.12-1.62,3.1-2.47l.66.75C578,314.15,577,315,575.87,315.81Zm6.1-5.32-.73-.69c.92-1,1.79-2,2.59-3l.79.61C583.8,308.47,582.91,309.5,582,310.49Zm4.95-6.4-.85-.53a29.08,29.08,0,0,0,1.84-3.48l.92.41A33.74,33.74,0,0,1,586.92,304.09Zm3.31-7.42-1-.28a26.14,26.14,0,0,0,.81-3.83l1,.13A25.66,25.66,0,0,1,590.23,296.67Zm1.11-8h-1v-.29c0-1.21-.07-2.44-.19-3.65l1-.1a36.24,36.24,0,0,1,.2,3.75Zm-1.8-7.83a39.3,39.3,0,0,0-1-3.82l1-.3c.41,1.3.76,2.62,1,3.91Zm-2.37-7.53c-.48-1.18-1-2.39-1.64-3.61l.9-.45c.61,1.24,1.17,2.48,1.66,3.68Zm-3.5-7.13c-.62-1.09-1.3-2.24-2-3.42l.85-.53c.73,1.19,1.42,2.35,2,3.46Zm-4.18-6.79c-.73-1.1-1.47-2.21-2.23-3.32l.83-.56c.76,1.11,1.5,2.22,2.23,3.34ZM575,252.73c-.75-1.1-1.51-2.21-2.25-3.31l.83-.56c.74,1.1,1.49,2.21,2.24,3.3Zm-4.47-6.66c-.73-1.12-1.44-2.26-2.14-3.4l.85-.52c.7,1.14,1.41,2.26,2.13,3.38Zm-4.17-6.87c-.68-1.21-1.31-2.41-1.88-3.56l.9-.45c.56,1.14,1.19,2.32,1.85,3.52ZM562.81,232c-.53-1.25-1-2.52-1.44-3.76l1-.32c.42,1.21.89,2.46,1.41,3.69Zm-2.6-7.63c-.33-1.3-.62-2.63-.84-4l1-.16c.22,1.28.49,2.58.82,3.86Zm-1.34-8c-.1-1.23-.15-2.47-.15-3.71v-.33h1v.32c0,1.21,0,2.43.15,3.63Zm1-8-1-.1c0-.27.05-.55.08-.84.12-1.07.27-2.14.45-3.16l1,.17c-.17,1-.32,2.05-.44,3.1C560,207.85,560,208.12,559.92,208.4Zm1.39-7.78-1-.27c.37-1.32.8-2.61,1.28-3.84l.93.36A36.6,36.6,0,0,0,561.31,200.62Zm49.83-5.83c-.56,0-1.14-.08-1.71-.16-.78-.11-1.56-.24-2.33-.39l.2-1c.74.14,1.51.27,2.27.38.54.07,1.09.12,1.62.15Zm4.11-.31-.21-1a11.54,11.54,0,0,0,3.56-1.38l.52.85A12.45,12.45,0,0,1,615.25,194.48Zm-51.06-1.19-.89-.47a35.46,35.46,0,0,1,2.11-3.46l.82.57A32.66,32.66,0,0,0,564.19,193.29Zm39-.06a38.51,38.51,0,0,1-3.8-1.43l.41-.92a34.09,34.09,0,0,0,3.69,1.39Zm19-3.12-.83-.56a7,7,0,0,0,1.22-3.49l1,.07A8,8,0,0,1,622.17,190.11Zm-26.4-.15a36.69,36.69,0,0,1-3.39-2.23l.59-.8a35.28,35.28,0,0,0,3.3,2.16Zm-27.1-3.12-.74-.67a33.81,33.81,0,0,1,2.89-2.85l.66.75A33.41,33.41,0,0,0,568.67,186.84Zm20.59-1.69a37,37,0,0,1-2.83-2.91l.75-.66a36.84,36.84,0,0,0,2.75,2.83Zm32.55-2.71a9.77,9.77,0,0,0-2.33-3l.66-.75a10.8,10.8,0,0,1,2.57,3.29Zm-47.22-.79-.57-.82a38.58,38.58,0,0,1,3.47-2.11l.47.88A37.77,37.77,0,0,0,574.59,181.65Zm9.34-2.6c-.38-.54-.75-1.09-1.1-1.66l-1.3.51-.38-.92,1.15-.46c-.18-.3-.36-.6-.53-.9l.87-.49c.2.35.4.7.61,1q.84-.3,1.71-.57l.29,1c-.49.15-1,.31-1.46.48.31.49.63,1,1,1.43Zm32.33-1.72a21.3,21.3,0,0,0-3-1.22l-.66-.21.29-1,.68.22a21.6,21.6,0,0,1,3.12,1.27Zm-27.18-1.79-.21-1c1.29-.29,2.63-.53,4-.72l.15,1C591.67,175,590.36,175.25,589.08,175.54Zm19.7-.54c-1.25-.22-2.57-.39-3.92-.51l.08-1c1.39.12,2.74.29,4,.52Zm-11.85-.58-.07-1c1.19-.07,2.38-.11,3.56-.11h.49v1h-.48C599.27,174.31,598.09,174.34,596.93,174.42ZM580,172c-.54-1.22-1-2.49-1.45-3.78l1-.31c.42,1.26.89,2.5,1.41,3.69Zm-2.53-7.68c-.3-1.29-.55-2.63-.74-4l1-.14c.19,1.32.43,2.63.72,3.9Zm-1.12-8c-.05-.9-.08-1.82-.08-2.74,0-.43,0-.87,0-1.3l1,0c0,.43,0,.85,0,1.28,0,.9,0,1.81.07,2.68Zm1.19-8-1-.1c.14-1.32.33-2.67.56-4l1,.17C577.83,145.72,577.64,147,577.51,148.34Zm1.37-7.81-1-.24c.32-1.29.69-2.59,1.1-3.89l1,.31C579.56,138,579.19,139.27,578.88,140.53Zm2.4-7.57-.93-.36c.49-1.25,1-2.5,1.61-3.71l.9.44C582.29,130.51,581.76,131.73,581.28,133Zm3.44-7.13-.87-.51c.68-1.15,1.41-2.3,2.17-3.4l.82.57C586.09,123.57,585.38,124.69,584.72,125.83Zm4.51-6.51-.78-.63c.84-1,1.74-2.06,2.67-3l.72.69C590.93,117.3,590.05,118.3,589.23,119.32Zm5.44-5.76-.67-.74c1-.89,2-1.77,3.07-2.62l.62.79C596.65,111.82,595.63,112.69,594.67,113.56Zm6.21-4.94-.57-.83c1.09-.75,2.23-1.49,3.39-2.19l.51.85C603.08,107.14,602,107.87,600.88,108.62Zm6.79-4.13-.47-.88c1.18-.63,2.4-1.23,3.62-1.79l.42.91C610,103.28,608.83,103.88,607.67,104.49Zm7.23-3.32-.37-.94c1.26-.49,2.53-1,3.79-1.37l.32,1C617.4,100.22,616.14,100.68,614.9,101.17Z" style="fill:#263238"></path><path d="M622.64,98.62l-.25-1c1.24-.32,2-.46,2-.46l.18,1S623.85,98.31,622.64,98.62Z" style="fill:#263238"></path><path d="M640.32,92.16c-2.55-7.9-19.63-5.06-16.3,5.27S642.87,100.07,640.32,92.16Z" style="fill:#263238"></path><path d="M614.73,89c.13-3.47,4.95-6.14,11.77-4.91s13.23,5.83,13.23,5.83S633,94,626.11,94.75,614.6,92.46,614.73,89Z" style="fill:#ebebeb"></path><path d="M639.73,89.9c-3.54,0-7.07-.1-10.6-.21s-7.07-.29-10.6-.57c3.54,0,7.08.09,10.61.2S636.21,89.61,639.73,89.9Z" style="fill:#263238"></path><path d="M621.58,85.91a29.75,29.75,0,0,1,5.65,3.53,26.64,26.64,0,0,1-2.92-1.6A28.63,28.63,0,0,1,621.58,85.91Z" style="fill:#263238"></path><path d="M630.85,89.57A32.47,32.47,0,0,1,625,93.35a32.47,32.47,0,0,1,5.88-3.78Z" style="fill:#263238"></path><path d="M631.88,87.62a7.24,7.24,0,0,1,2.58,2.08,6.85,6.85,0,0,1-1.41-.89A7.32,7.32,0,0,1,631.88,87.62Z" style="fill:#263238"></path><path d="M621.23,109.55c2.13,2.74,7.6,2.08,12.41-2.9S641,94.18,641,94.18s-7.88.6-13.89,4S619.09,106.8,621.23,109.55Z" style="fill:#ebebeb"></path><path d="M641,94.18c-2.88,2-5.68,4.22-8.49,6.37s-5.56,4.37-8.25,6.66c2.88-2,5.68-4.21,8.48-6.36S638.27,96.48,641,94.18Z" style="fill:#263238"></path><path d="M628.58,108a28.53,28.53,0,0,0,1.43-3,26.73,26.73,0,0,0,1.08-3.16,27.77,27.77,0,0,0-1.43,3A28.52,28.52,0,0,0,628.58,108Z" style="fill:#263238"></path><path d="M634,99.64a33.06,33.06,0,0,0-7,.37,29.2,29.2,0,0,0,3.5,0A31.11,31.11,0,0,0,634,99.64Z" style="fill:#263238"></path><path d="M635.93,100.63a7.15,7.15,0,0,0,.62-1.56,7.48,7.48,0,0,0,.26-1.65,7.45,7.45,0,0,0-.88,3.21Z" style="fill:#263238"></path><path d="M640.32,92.16a3,3,0,1,1,1.93-3.77A3,3,0,0,1,640.32,92.16Z" style="fill:#455a64"></path><path d="M642.16,97.87a3,3,0,1,1,1.93-3.78A3,3,0,0,1,642.16,97.87Z" style="fill:#455a64"></path></g></svg>